G04 #@! TF.GenerationSoftware,KiCad,Pcbnew,(6.0.9)*
G04 #@! TF.CreationDate,2022-12-15T22:48:58+09:00*
G04 #@! TF.ProjectId,nixieupperside,6e697869-6575-4707-9065-72736964652e,rev?*
G04 #@! TF.SameCoordinates,Original*
G04 #@! TF.FileFunction,Soldermask,Top*
G04 #@! TF.FilePolarity,Negative*
%FSLAX46Y46*%
G04 Gerber Fmt 4.6, Leading zero omitted, Abs format (unit mm)*
G04 Created by KiCad (PCBNEW (6.0.9)) date 2022-12-15 22:48:58*
%MOMM*%
%LPD*%
G01*
G04 APERTURE LIST*
%ADD10R,1.524000X1.524000*%
%ADD11C,1.524000*%
%ADD12R,1.700000X1.700000*%
%ADD13O,1.700000X1.700000*%
G04 APERTURE END LIST*
D10*
X61000000Y-27000000D03*
D11*
X59250000Y-30500000D03*
X59250000Y-35000000D03*
X59250000Y-39500000D03*
X61000000Y-43000000D03*
X65000000Y-44000000D03*
X69000000Y-43000000D03*
X70750000Y-39500000D03*
X70750000Y-35000000D03*
X70750000Y-30500000D03*
X69000000Y-27000000D03*
X65000000Y-26000000D03*
D10*
X86000000Y-27000000D03*
D11*
X84250000Y-30500000D03*
X84250000Y-35000000D03*
X84250000Y-39500000D03*
X86000000Y-43000000D03*
X90000000Y-44000000D03*
X94000000Y-43000000D03*
X95750000Y-39500000D03*
X95750000Y-35000000D03*
X95750000Y-30500000D03*
X94000000Y-27000000D03*
X90000000Y-26000000D03*
D10*
X156000000Y-27000000D03*
D11*
X154250000Y-30500000D03*
X154250000Y-35000000D03*
X154250000Y-39500000D03*
X156000000Y-43000000D03*
X160000000Y-44000000D03*
X164000000Y-43000000D03*
X165750000Y-39500000D03*
X165750000Y-35000000D03*
X165750000Y-30500000D03*
X164000000Y-27000000D03*
X160000000Y-26000000D03*
D10*
X131000000Y-27000000D03*
D11*
X129250000Y-30500000D03*
X129250000Y-35000000D03*
X129250000Y-39500000D03*
X131000000Y-43000000D03*
X135000000Y-44000000D03*
X139000000Y-43000000D03*
X140750000Y-39500000D03*
X140750000Y-35000000D03*
X140750000Y-30500000D03*
X139000000Y-27000000D03*
X135000000Y-26000000D03*
D12*
X116800000Y-25000000D03*
D13*
X114260000Y-25000000D03*
X111720000Y-25000000D03*
X109180000Y-25000000D03*
D12*
X101575000Y-50000000D03*
D13*
X104115000Y-50000000D03*
X106655000Y-50000000D03*
X109195000Y-50000000D03*
X111735000Y-50000000D03*
X114275000Y-50000000D03*
X116815000Y-50000000D03*
X119355000Y-50000000D03*
X121895000Y-50000000D03*
X124435000Y-50000000D03*
M02*
