M48
; DRILL file {KiCad (6.0.9)} date Thu Dec 15 14:30:08 2022
; FORMAT={-:-/ absolute / metric / decimal}
; #@! TF.CreationDate,2022-12-15T14:30:08+09:00
; #@! TF.GenerationSoftware,Kicad,Pcbnew,(6.0.9)
; #@! TF.FileFunction,Plated,1,2,PTH
FMAT,2
METRIC
; #@! TA.AperFunction,Plated,PTH,ViaDrill
T1C0.400
; #@! TA.AperFunction,Plated,PTH,ComponentDrill
T2C0.762
; #@! TA.AperFunction,Plated,PTH,ComponentDrill
T3C1.000
%
G90
G05
T1
X54.864Y-24.638
T2
X59.25Y-30.5
X59.25Y-30.5
X59.25Y-30.5
X59.25Y-30.5
X59.25Y-35.0
X59.25Y-35.0
X59.25Y-35.0
X59.25Y-35.0
X59.25Y-39.5
X59.25Y-39.5
X59.25Y-39.5
X59.25Y-39.5
X61.0Y-27.0
X61.0Y-27.0
X61.0Y-27.0
X61.0Y-27.0
X61.0Y-27.0
X61.0Y-27.0
X61.0Y-27.0
X61.0Y-27.0
X61.0Y-43.0
X61.0Y-43.0
X61.0Y-43.0
X61.0Y-43.0
X65.0Y-26.0
X65.0Y-26.0
X65.0Y-26.0
X65.0Y-26.0
X65.0Y-44.0
X65.0Y-44.0
X65.0Y-44.0
X65.0Y-44.0
X69.0Y-27.0
X69.0Y-27.0
X69.0Y-27.0
X69.0Y-27.0
X69.0Y-43.0
X69.0Y-43.0
X69.0Y-43.0
X69.0Y-43.0
X70.75Y-30.5
X70.75Y-30.5
X70.75Y-30.5
X70.75Y-30.5
X70.75Y-35.0
X70.75Y-35.0
X70.75Y-35.0
X70.75Y-35.0
X70.75Y-39.5
X70.75Y-39.5
X70.75Y-39.5
X70.75Y-39.5
X84.25Y-30.5
X84.25Y-30.5
X84.25Y-30.5
X84.25Y-30.5
X84.25Y-35.0
X84.25Y-35.0
X84.25Y-35.0
X84.25Y-35.0
X84.25Y-39.5
X84.25Y-39.5
X84.25Y-39.5
X84.25Y-39.5
X86.0Y-27.0
X86.0Y-27.0
X86.0Y-27.0
X86.0Y-27.0
X86.0Y-27.0
X86.0Y-27.0
X86.0Y-27.0
X86.0Y-27.0
X86.0Y-43.0
X86.0Y-43.0
X86.0Y-43.0
X86.0Y-43.0
X90.0Y-26.0
X90.0Y-26.0
X90.0Y-26.0
X90.0Y-26.0
X90.0Y-44.0
X90.0Y-44.0
X90.0Y-44.0
X90.0Y-44.0
X94.0Y-27.0
X94.0Y-27.0
X94.0Y-27.0
X94.0Y-27.0
X94.0Y-43.0
X94.0Y-43.0
X94.0Y-43.0
X94.0Y-43.0
X95.75Y-30.5
X95.75Y-30.5
X95.75Y-30.5
X95.75Y-30.5
X95.75Y-35.0
X95.75Y-35.0
X95.75Y-35.0
X95.75Y-35.0
X95.75Y-39.5
X95.75Y-39.5
X95.75Y-39.5
X95.75Y-39.5
X129.25Y-30.5
X129.25Y-30.5
X129.25Y-30.5
X129.25Y-30.5
X129.25Y-35.0
X129.25Y-35.0
X129.25Y-35.0
X129.25Y-35.0
X129.25Y-39.5
X129.25Y-39.5
X129.25Y-39.5
X129.25Y-39.5
X131.0Y-27.0
X131.0Y-27.0
X131.0Y-27.0
X131.0Y-27.0
X131.0Y-27.0
X131.0Y-27.0
X131.0Y-27.0
X131.0Y-27.0
X131.0Y-43.0
X131.0Y-43.0
X131.0Y-43.0
X131.0Y-43.0
X135.0Y-26.0
X135.0Y-26.0
X135.0Y-26.0
X135.0Y-26.0
X135.0Y-44.0
X135.0Y-44.0
X135.0Y-44.0
X135.0Y-44.0
X139.0Y-27.0
X139.0Y-27.0
X139.0Y-27.0
X139.0Y-27.0
X139.0Y-43.0
X139.0Y-43.0
X139.0Y-43.0
X139.0Y-43.0
X140.75Y-30.5
X140.75Y-30.5
X140.75Y-30.5
X140.75Y-30.5
X140.75Y-35.0
X140.75Y-35.0
X140.75Y-35.0
X140.75Y-35.0
X140.75Y-39.5
X140.75Y-39.5
X140.75Y-39.5
X140.75Y-39.5
X154.25Y-30.5
X154.25Y-30.5
X154.25Y-30.5
X154.25Y-30.5
X154.25Y-35.0
X154.25Y-35.0
X154.25Y-35.0
X154.25Y-35.0
X154.25Y-39.5
X154.25Y-39.5
X154.25Y-39.5
X154.25Y-39.5
X156.0Y-27.0
X156.0Y-27.0
X156.0Y-27.0
X156.0Y-27.0
X156.0Y-27.0
X156.0Y-27.0
X156.0Y-27.0
X156.0Y-27.0
X156.0Y-43.0
X156.0Y-43.0
X156.0Y-43.0
X156.0Y-43.0
X160.0Y-26.0
X160.0Y-26.0
X160.0Y-26.0
X160.0Y-26.0
X160.0Y-44.0
X160.0Y-44.0
X160.0Y-44.0
X160.0Y-44.0
X164.0Y-27.0
X164.0Y-27.0
X164.0Y-27.0
X164.0Y-27.0
X164.0Y-43.0
X164.0Y-43.0
X164.0Y-43.0
X164.0Y-43.0
X165.75Y-30.5
X165.75Y-30.5
X165.75Y-30.5
X165.75Y-30.5
X165.75Y-35.0
X165.75Y-35.0
X165.75Y-35.0
X165.75Y-35.0
X165.75Y-39.5
X165.75Y-39.5
X165.75Y-39.5
X165.75Y-39.5
T3
X101.575Y-50.0
X104.115Y-50.0
X106.655Y-50.0
X109.18Y-25.0
X109.195Y-50.0
X111.72Y-25.0
X111.735Y-50.0
X114.26Y-25.0
X114.275Y-50.0
X116.8Y-25.0
X116.815Y-50.0
X119.355Y-50.0
X121.895Y-50.0
X124.435Y-50.0
T0
M30
