G04 #@! TF.GenerationSoftware,KiCad,Pcbnew,(6.0.9)*
G04 #@! TF.CreationDate,2022-12-15T22:48:58+09:00*
G04 #@! TF.ProjectId,nixieupperside,6e697869-6575-4707-9065-72736964652e,rev?*
G04 #@! TF.SameCoordinates,Original*
G04 #@! TF.FileFunction,Copper,L1,Top*
G04 #@! TF.FilePolarity,Positive*
%FSLAX46Y46*%
G04 Gerber Fmt 4.6, Leading zero omitted, Abs format (unit mm)*
G04 Created by KiCad (PCBNEW (6.0.9)) date 2022-12-15 22:48:58*
%MOMM*%
%LPD*%
G01*
G04 APERTURE LIST*
G04 #@! TA.AperFunction,ComponentPad*
%ADD10R,1.524000X1.524000*%
G04 #@! TD*
G04 #@! TA.AperFunction,ComponentPad*
%ADD11C,1.524000*%
G04 #@! TD*
G04 #@! TA.AperFunction,ComponentPad*
%ADD12R,1.700000X1.700000*%
G04 #@! TD*
G04 #@! TA.AperFunction,ComponentPad*
%ADD13O,1.700000X1.700000*%
G04 #@! TD*
G04 #@! TA.AperFunction,Conductor*
%ADD14C,0.762000*%
G04 #@! TD*
G04 APERTURE END LIST*
D10*
X61000000Y-27000000D03*
D11*
X59250000Y-30500000D03*
X59250000Y-35000000D03*
X59250000Y-39500000D03*
X61000000Y-43000000D03*
X65000000Y-44000000D03*
X69000000Y-43000000D03*
X70750000Y-39500000D03*
X70750000Y-35000000D03*
X70750000Y-30500000D03*
X69000000Y-27000000D03*
X65000000Y-26000000D03*
D10*
X86000000Y-27000000D03*
D11*
X84250000Y-30500000D03*
X84250000Y-35000000D03*
X84250000Y-39500000D03*
X86000000Y-43000000D03*
X90000000Y-44000000D03*
X94000000Y-43000000D03*
X95750000Y-39500000D03*
X95750000Y-35000000D03*
X95750000Y-30500000D03*
X94000000Y-27000000D03*
X90000000Y-26000000D03*
D10*
X156000000Y-27000000D03*
D11*
X154250000Y-30500000D03*
X154250000Y-35000000D03*
X154250000Y-39500000D03*
X156000000Y-43000000D03*
X160000000Y-44000000D03*
X164000000Y-43000000D03*
X165750000Y-39500000D03*
X165750000Y-35000000D03*
X165750000Y-30500000D03*
X164000000Y-27000000D03*
X160000000Y-26000000D03*
D10*
X131000000Y-27000000D03*
D11*
X129250000Y-30500000D03*
X129250000Y-35000000D03*
X129250000Y-39500000D03*
X131000000Y-43000000D03*
X135000000Y-44000000D03*
X139000000Y-43000000D03*
X140750000Y-39500000D03*
X140750000Y-35000000D03*
X140750000Y-30500000D03*
X139000000Y-27000000D03*
X135000000Y-26000000D03*
D12*
X116800000Y-25000000D03*
D13*
X114260000Y-25000000D03*
X111720000Y-25000000D03*
X109180000Y-25000000D03*
D12*
X101575000Y-50000000D03*
D13*
X104115000Y-50000000D03*
X106655000Y-50000000D03*
X109195000Y-50000000D03*
X111735000Y-50000000D03*
X114275000Y-50000000D03*
X116815000Y-50000000D03*
X119355000Y-50000000D03*
X121895000Y-50000000D03*
X124435000Y-50000000D03*
D14*
X127907000Y-31843000D02*
X129250000Y-30500000D01*
X85593000Y-31843000D02*
X127907000Y-31843000D01*
X84250000Y-30500000D02*
X85593000Y-31843000D01*
X117143000Y-22857000D02*
X120000000Y-20000000D01*
X120000000Y-20000000D02*
X150000000Y-20000000D01*
X156000000Y-26000000D02*
X156000000Y-27000000D01*
X117143000Y-24657000D02*
X117143000Y-22857000D01*
X150000000Y-20000000D02*
X156000000Y-26000000D01*
X116800000Y-25000000D02*
X117143000Y-24657000D01*
X61000000Y-24000000D02*
X61000000Y-27000000D01*
X104180000Y-20000000D02*
X65000000Y-20000000D01*
X65000000Y-20000000D02*
X61000000Y-24000000D01*
X109180000Y-25000000D02*
X104180000Y-20000000D01*
X91440000Y-22860000D02*
X94000000Y-25420000D01*
X53140000Y-44594474D02*
X53140000Y-34145526D01*
X94000000Y-25420000D02*
X94000000Y-27000000D01*
X53140000Y-34145526D02*
X58285526Y-29000000D01*
X67000000Y-29000000D02*
X69000000Y-27000000D01*
X71120000Y-22860000D02*
X91440000Y-22860000D01*
X69000000Y-24980000D02*
X71120000Y-22860000D01*
X58545526Y-50000000D02*
X53140000Y-44594474D01*
X101575000Y-50000000D02*
X58545526Y-50000000D01*
X69000000Y-27000000D02*
X69000000Y-24980000D01*
X58285526Y-29000000D02*
X67000000Y-29000000D01*
X54102000Y-44196000D02*
X54102000Y-34544000D01*
X56134000Y-32512000D02*
X59182000Y-32512000D01*
X59182000Y-32512000D02*
X61194000Y-30500000D01*
X54102000Y-34544000D02*
X56134000Y-32512000D01*
X58475000Y-48569000D02*
X54102000Y-44196000D01*
X61194000Y-30500000D02*
X70750000Y-30500000D01*
X102684000Y-48569000D02*
X58475000Y-48569000D01*
X104115000Y-50000000D02*
X102684000Y-48569000D01*
X140750000Y-35000000D02*
X151170000Y-35000000D01*
X55118000Y-43851526D02*
X58873474Y-47607000D01*
X56814000Y-37576000D02*
X55118000Y-39272000D01*
X70750000Y-35000000D02*
X68174000Y-37576000D01*
X162640000Y-38110000D02*
X165750000Y-35000000D01*
X154280000Y-38110000D02*
X162640000Y-38110000D01*
X68174000Y-37576000D02*
X56814000Y-37576000D01*
X58873474Y-47607000D02*
X104262000Y-47607000D01*
X104262000Y-47607000D02*
X106655000Y-50000000D01*
X55118000Y-39272000D02*
X55118000Y-43851526D01*
X151170000Y-35000000D02*
X154280000Y-38110000D01*
X61846000Y-39500000D02*
X70750000Y-39500000D01*
X109195000Y-50000000D02*
X105840000Y-46645000D01*
X57912000Y-45121000D02*
X57912000Y-43434000D01*
X57912000Y-43434000D02*
X61846000Y-39500000D01*
X105840000Y-46645000D02*
X59436000Y-46645000D01*
X59436000Y-46645000D02*
X57912000Y-45121000D01*
X162657000Y-41657000D02*
X164000000Y-43000000D01*
X140343000Y-41657000D02*
X162657000Y-41657000D01*
X139000000Y-43000000D02*
X140343000Y-41657000D01*
X116853000Y-52578000D02*
X126422000Y-52578000D01*
X126422000Y-52578000D02*
X135000000Y-44000000D01*
X157264000Y-46736000D02*
X160000000Y-44000000D01*
X137736000Y-46736000D02*
X157264000Y-46736000D01*
X114275000Y-50000000D02*
X116853000Y-52578000D01*
X135000000Y-44000000D02*
X137736000Y-46736000D01*
X61000000Y-43000000D02*
X63343000Y-45343000D01*
X86000000Y-43000000D02*
X86761999Y-42238001D01*
X131000000Y-43000000D02*
X128534000Y-45466000D01*
X86761999Y-42238001D02*
X91260001Y-42238001D01*
X83657000Y-45343000D02*
X86000000Y-43000000D01*
X116815000Y-45491000D02*
X116840000Y-45466000D01*
X128534000Y-45466000D02*
X117348000Y-45466000D01*
X116815000Y-50000000D02*
X116815000Y-45491000D01*
X117348000Y-45466000D02*
X116840000Y-45466000D01*
X91260001Y-42238001D02*
X94488000Y-45466000D01*
X63343000Y-45343000D02*
X83657000Y-45343000D01*
X94488000Y-45466000D02*
X117348000Y-45466000D01*
X59250000Y-39500000D02*
X60212000Y-38538000D01*
X82790000Y-38040000D02*
X84250000Y-39500000D01*
X129250000Y-39500000D02*
X127856000Y-40894000D01*
X129250000Y-39500000D02*
X130593000Y-38157000D01*
X60212000Y-38538000D02*
X69522000Y-38538000D01*
X85644000Y-40894000D02*
X84250000Y-39500000D01*
X70020000Y-38040000D02*
X82790000Y-38040000D01*
X130593000Y-38157000D02*
X152907000Y-38157000D01*
X152907000Y-38157000D02*
X154250000Y-39500000D01*
X127856000Y-40894000D02*
X85644000Y-40894000D01*
X69522000Y-38538000D02*
X70020000Y-38040000D01*
X82524000Y-33254000D02*
X82524000Y-33274000D01*
X99980000Y-35000000D02*
X129250000Y-35000000D01*
X59250000Y-35000000D02*
X62407000Y-31843000D01*
X62407000Y-31843000D02*
X81113000Y-31843000D01*
X81113000Y-31843000D02*
X82524000Y-33254000D01*
X130976000Y-33274000D02*
X130996000Y-33274000D01*
X82524000Y-33274000D02*
X84250000Y-35000000D01*
X130996000Y-33274000D02*
X132190000Y-32080000D01*
X132190000Y-32080000D02*
X151330000Y-32080000D01*
X84250000Y-35000000D02*
X87190000Y-37940000D01*
X97040000Y-37940000D02*
X99980000Y-35000000D01*
X87190000Y-37940000D02*
X97040000Y-37940000D01*
X129250000Y-35000000D02*
X130976000Y-33274000D01*
X151330000Y-32080000D02*
X154250000Y-35000000D01*
X129250000Y-30500000D02*
X130794000Y-28956000D01*
X152706000Y-28956000D02*
X154250000Y-30500000D01*
X130794000Y-28956000D02*
X152706000Y-28956000D01*
M02*
