M48
; DRILL file {KiCad (6.0.9)} date Thu Dec 15 14:24:50 2022
; FORMAT={-:-/ absolute / metric / decimal}
; #@! TF.CreationDate,2022-12-15T14:24:50+09:00
; #@! TF.GenerationSoftware,Kicad,Pcbnew,(6.0.9)
; #@! TF.FileFunction,Plated,1,2,PTH
FMAT,2
METRIC
; #@! TA.AperFunction,Plated,PTH,ViaDrill
T1C0.400
; #@! TA.AperFunction,Plated,PTH,ComponentDrill
T2C0.690
; #@! TA.AperFunction,Plated,PTH,ComponentDrill
T3C0.733
; #@! TA.AperFunction,Plated,PTH,ComponentDrill
T4C0.750
; #@! TA.AperFunction,Plated,PTH,ComponentDrill
T5C1.000
; #@! TA.AperFunction,Plated,PTH,ComponentDrill
T6C1.100
; #@! TA.AperFunction,Plated,PTH,ComponentDrill
T7C1.150
; #@! TA.AperFunction,Plated,PTH,ComponentDrill
T8C1.200
; #@! TA.AperFunction,Plated,PTH,ComponentDrill
T9C1.400
; #@! TA.AperFunction,Plated,PTH,ComponentDrill
T10C1.800
%
G90
G05
T1
X26.162Y-29.21
X26.162Y-97.79
X26.252Y-27.211
X26.416Y-46.228
X26.416Y-47.244
X26.416Y-48.26
X26.416Y-49.276
X26.416Y-50.292
X26.416Y-51.816
X26.416Y-52.832
X26.416Y-53.848
X26.416Y-54.864
X26.416Y-55.88
X26.416Y-57.404
X26.416Y-58.42
X26.416Y-59.436
X26.416Y-60.452
X26.416Y-61.468
X26.416Y-63.246
X26.416Y-64.262
X26.416Y-65.278
X26.416Y-66.294
X26.416Y-67.31
X26.416Y-68.326
X26.416Y-69.342
X26.416Y-70.358
X26.416Y-71.374
X26.416Y-72.39
X26.416Y-73.406
X26.416Y-74.422
X26.416Y-75.438
X26.416Y-76.454
X26.416Y-77.978
X26.67Y-40.386
X26.67Y-41.402
X26.67Y-42.418
X26.67Y-43.434
X26.67Y-44.45
X27.178Y-29.21
X27.178Y-97.79
X27.268Y-27.211
X27.432Y-76.454
X27.432Y-77.978
X28.194Y-29.21
X28.284Y-27.211
X28.346Y-98.577
X28.448Y-76.454
X28.448Y-77.978
X28.854Y-99.593
X29.21Y-29.21
X29.3Y-27.211
X29.362Y-98.577
X29.464Y-76.454
X29.464Y-77.978
X29.87Y-99.593
X30.226Y-29.21
X30.316Y-27.211
X30.886Y-99.593
X30.988Y-77.978
X31.242Y-29.21
X31.332Y-27.211
X31.902Y-99.593
X32.004Y-77.978
X32.258Y-29.21
X32.348Y-27.211
X33.02Y-44.45
X33.02Y-45.466
X33.02Y-46.482
X33.02Y-47.498
X33.02Y-48.514
X33.02Y-56.388
X33.02Y-57.404
X33.02Y-58.42
X33.02Y-59.436
X33.02Y-60.452
X33.02Y-77.978
X33.172Y-99.593
X33.274Y-29.21
X33.274Y-50.546
X33.274Y-51.562
X33.274Y-52.578
X33.274Y-53.594
X33.274Y-54.61
X33.364Y-27.211
X34.036Y-77.978
X34.188Y-99.593
X34.29Y-29.21
X34.29Y-82.55
X34.38Y-27.211
X35.0Y-91.45
X35.15Y-95.5
X35.151Y-93.726
X35.204Y-99.593
X35.306Y-29.21
X35.306Y-78.232
X35.306Y-82.55
X35.396Y-27.211
X36.068Y-50.292
X36.068Y-51.308
X36.068Y-52.324
X36.068Y-53.34
X36.068Y-54.356
X36.068Y-55.88
X36.068Y-56.896
X36.068Y-57.912
X36.068Y-58.928
X36.068Y-59.944
X36.22Y-99.593
X36.322Y-78.232
X36.322Y-82.55
X36.666Y-27.211
X36.83Y-39.878
X36.83Y-90.424
X37.338Y-78.232
X37.338Y-82.55
X37.49Y-99.593
X37.682Y-27.211
X37.846Y-39.878
X37.846Y-90.424
X38.354Y-78.232
X38.354Y-96.52
X38.506Y-99.593
X38.698Y-27.211
X38.862Y-39.878
X38.862Y-90.424
X39.116Y-86.868
X39.37Y-96.52
X39.522Y-99.593
X39.714Y-27.211
X39.878Y-39.878
X39.878Y-78.232
X39.878Y-90.424
X40.132Y-86.868
X40.386Y-96.52
X40.538Y-99.593
X40.73Y-27.211
X40.894Y-39.878
X40.894Y-78.232
X41.148Y-86.868
X41.148Y-90.424
X41.402Y-96.52
X41.91Y-78.232
X42.062Y-99.593
X42.164Y-86.868
X42.164Y-90.424
X42.418Y-96.52
X42.545Y-92.71
X42.926Y-78.232
X43.078Y-99.593
X43.18Y-90.424
X43.434Y-96.52
X44.094Y-99.593
X44.196Y-90.424
X44.45Y-96.52
X44.958Y-92.71
X45.11Y-99.593
X45.466Y-96.52
X46.126Y-99.593
X46.355Y-92.71
X46.736Y-29.464
X46.99Y-38.1
X46.99Y-39.116
X46.99Y-40.132
X46.99Y-41.148
X46.99Y-42.164
X47.142Y-99.593
X47.244Y-96.52
X47.752Y-29.464
X47.752Y-92.583
X48.158Y-99.593
X48.26Y-96.52
X48.768Y-29.464
X49.174Y-99.593
X49.276Y-96.52
X49.784Y-29.464
X50.292Y-37.592
X50.292Y-46.99
X50.292Y-96.52
X50.546Y-48.768
X50.698Y-99.593
X50.8Y-29.464
X51.308Y-37.592
X51.308Y-46.99
X51.562Y-48.768
X51.714Y-99.593
X52.324Y-37.592
X52.324Y-46.99
X52.73Y-99.593
X53.34Y-37.592
X53.34Y-46.99
X53.746Y-99.593
X54.0Y-84.0
X54.356Y-37.592
X54.61Y-46.99
X55.0Y-83.0
X55.855Y-94.336
X56.0Y-82.0
X56.109Y-99.746
X56.134Y-63.246
X56.744Y-93.497
X57.0Y-81.0
X57.125Y-99.746
X57.15Y-63.246
X57.658Y-96.774
X57.912Y-66.294
X57.937Y-92.329
X58.141Y-99.746
X58.166Y-63.246
X58.674Y-96.774
X58.928Y-66.294
X59.03Y-91.364
X59.157Y-99.746
X59.182Y-63.246
X59.69Y-96.774
X59.944Y-66.294
X60.071Y-90.297
X60.173Y-99.746
X60.198Y-63.246
X60.198Y-80.772
X60.198Y-81.788
X60.198Y-82.804
X60.198Y-83.82
X60.706Y-96.774
X60.96Y-66.294
X61.189Y-99.746
X61.976Y-63.246
X61.976Y-96.774
X62.205Y-99.746
X62.23Y-58.42
X62.23Y-59.944
X62.23Y-68.58
X62.992Y-39.37
X62.992Y-63.246
X62.992Y-96.774
X63.221Y-66.345
X63.221Y-99.746
X63.246Y-58.42
X63.246Y-59.944
X63.246Y-68.58
X64.008Y-39.37
X64.008Y-63.246
X64.008Y-96.774
X64.262Y-58.42
X64.262Y-59.944
X64.262Y-66.37
X64.262Y-68.58
X64.745Y-99.746
X65.024Y-39.37
X65.024Y-63.246
X65.024Y-96.774
X65.278Y-42.418
X65.278Y-58.42
X65.278Y-59.944
X65.278Y-68.58
X65.481Y-66.396
X65.761Y-99.746
X66.025Y-91.075
X66.04Y-39.37
X66.04Y-63.246
X66.04Y-71.628
X66.294Y-58.42
X66.294Y-59.944
X66.548Y-68.58
X66.777Y-99.746
X67.056Y-39.37
X67.056Y-71.628
X67.31Y-63.246
X67.31Y-86.36
X67.564Y-68.58
X67.793Y-99.746
X68.072Y-71.628
X68.326Y-63.246
X68.326Y-86.36
X68.58Y-39.116
X68.58Y-42.291
X68.58Y-68.58
X68.725Y-89.825
X69.088Y-71.628
X69.342Y-63.246
X69.342Y-86.36
X69.596Y-39.116
X69.596Y-68.58
X70.104Y-42.418
X70.104Y-55.118
X70.358Y-63.246
X70.358Y-86.36
X70.612Y-39.116
X71.12Y-55.118
X71.374Y-63.246
X71.374Y-68.58
X71.628Y-39.116
X72.0Y-86.625
X72.009Y-42.418
X72.136Y-55.118
X72.39Y-68.58
X72.644Y-39.116
X73.152Y-55.118
X73.25Y-78.6
X73.406Y-68.58
X73.487Y-89.388
X73.787Y-42.418
X74.041Y-39.751
X74.168Y-55.118
X74.325Y-74.325
X74.422Y-52.324
X74.422Y-63.246
X74.422Y-68.58
X74.422Y-91.186
X74.803Y-40.513
X74.95Y-83.375
X75.184Y-90.043
X75.438Y-52.324
X75.438Y-63.246
X75.438Y-91.186
X75.692Y-41.275
X75.725Y-76.025
X75.942Y-73.148
X76.073Y-42.418
X76.175Y-74.475
X76.25Y-71.55
X76.352Y-99.771
X76.454Y-52.324
X76.454Y-63.246
X76.454Y-87.63
X76.454Y-91.186
X76.962Y-55.372
X77.216Y-38.735
X77.216Y-88.646
X77.368Y-99.771
X77.47Y-52.324
X77.47Y-63.246
X77.47Y-87.63
X77.978Y-55.372
X77.978Y-89.535
X78.105Y-39.497
X78.25Y-77.875
X78.384Y-99.771
X78.486Y-52.324
X78.486Y-63.246
X78.486Y-87.63
X78.74Y-90.297
X78.867Y-40.386
X78.994Y-55.372
X78.994Y-82.804
X79.4Y-99.771
X79.629Y-41.275
X79.756Y-92.964
X79.768Y-77.05
X79.781Y-78.08
X79.985Y-83.515
X80.01Y-52.324
X80.01Y-55.372
X80.416Y-99.771
X80.608Y-26.931
X80.772Y-92.964
X80.797Y-78.003
X81.026Y-52.324
X81.026Y-55.372
X81.026Y-63.246
X81.153Y-91.059
X81.275Y-81.85
X81.432Y-99.771
X81.624Y-26.931
X81.788Y-42.418
X81.788Y-86.868
X81.788Y-90.297
X81.788Y-92.964
X82.042Y-52.324
X82.042Y-63.246
X82.042Y-70.358
X82.249Y-72.926
X82.296Y-90.932
X82.448Y-99.771
X82.55Y-89.535
X82.64Y-26.931
X82.85Y-81.1
X83.058Y-52.324
X83.058Y-55.118
X83.058Y-63.246
X83.058Y-70.358
X83.058Y-73.66
X83.464Y-99.771
X83.5Y-79.625
X83.566Y-88.773
X83.625Y-84.65
X83.656Y-26.931
X83.693Y-42.291
X83.757Y-90.995
X84.074Y-52.324
X84.074Y-55.118
X84.074Y-63.246
X84.074Y-70.358
X84.328Y-87.884
X84.672Y-26.931
X84.836Y-28.702
X84.988Y-99.771
X85.026Y-89.725
X85.09Y-55.118
X85.09Y-63.246
X85.09Y-70.358
X85.217Y-42.418
X85.598Y-85.09
X85.688Y-26.931
X85.827Y-66.294
X85.852Y-28.702
X86.004Y-99.771
X86.106Y-55.118
X86.106Y-88.646
X86.233Y-85.852
X86.36Y-82.296
X86.614Y-70.358
X86.704Y-26.931
X86.741Y-42.291
X86.843Y-66.345
X86.868Y-28.702
X86.868Y-63.246
X86.868Y-86.36
X86.875Y-92.825
X87.02Y-99.771
X87.122Y-55.118
X87.575Y-78.475
X87.63Y-70.358
X87.72Y-26.931
X87.833Y-66.37
X87.875Y-92.725
X87.884Y-28.702
X87.884Y-63.246
X88.036Y-99.771
X88.138Y-83.566
X88.138Y-84.582
X88.138Y-85.598
X88.138Y-86.614
X88.265Y-31.369
X88.392Y-42.291
X88.646Y-70.358
X88.736Y-26.931
X88.9Y-28.702
X88.9Y-63.246
X89.154Y-81.407
X89.662Y-70.358
X89.662Y-83.566
X89.662Y-84.582
X89.662Y-85.598
X89.662Y-86.614
X89.752Y-26.931
X89.789Y-31.369
X89.916Y-28.702
X89.916Y-42.291
X89.916Y-63.246
X89.916Y-74.676
X90.362Y-89.724
X90.424Y-81.407
X90.932Y-63.246
X90.932Y-74.676
X91.022Y-26.931
X91.186Y-28.702
X91.567Y-81.407
X91.694Y-31.369
X91.694Y-95.758
X91.948Y-74.676
X92.038Y-26.931
X92.202Y-28.702
X92.202Y-70.358
X92.71Y-40.894
X92.71Y-95.758
X92.964Y-74.676
X93.025Y-80.425
X93.054Y-26.931
X93.091Y-34.29
X93.091Y-35.306
X93.091Y-36.322
X93.218Y-28.702
X93.218Y-32.004
X93.218Y-33.02
X93.218Y-70.358
X93.3Y-97.025
X93.726Y-95.758
X94.07Y-26.931
X94.234Y-28.702
X94.65Y-36.95
X94.742Y-95.758
X94.996Y-40.894
X94.996Y-81.534
X95.086Y-26.931
X95.25Y-28.702
X95.5Y-84.55
X95.504Y-79.502
X95.758Y-35.56
X96.012Y-81.534
X97.028Y-40.894
X97.028Y-81.534
X97.536Y-95.25
X98.044Y-81.534
X98.515Y-26.982
X98.552Y-95.25
X98.625Y-73.66
X99.531Y-26.982
X99.568Y-95.25
X99.949Y-79.502
X100.547Y-26.982
X100.584Y-95.25
X100.635Y-74.879
X100.914Y-72.009
X101.563Y-26.982
X101.854Y-62.738
X101.854Y-74.93
X102.579Y-26.982
X103.227Y-95.677
X103.53Y-81.788
X103.595Y-26.982
X104.25Y-34.425
X104.546Y-81.788
X104.611Y-26.982
X104.675Y-36.625
X105.14Y-72.065
X105.258Y-74.117
X105.562Y-81.788
X105.627Y-26.982
X105.664Y-95.504
X106.41Y-72.99
X106.578Y-81.788
X106.643Y-26.982
X106.68Y-95.504
X106.75Y-40.025
X107.659Y-26.982
X107.696Y-95.504
X108.712Y-95.504
X108.929Y-26.982
X109.945Y-26.982
X110.211Y-99.873
X110.961Y-26.982
X111.227Y-99.873
X111.355Y-95.48
X111.76Y-80.518
X111.977Y-26.982
X112.243Y-99.873
X112.776Y-80.518
X112.993Y-26.982
X113.259Y-99.873
X113.792Y-80.518
X114.275Y-99.873
X114.275Y-34.425
X114.808Y-80.518
X114.808Y-95.504
X115.175Y-75.6
X115.291Y-99.873
X115.425Y-36.725
X115.824Y-80.518
X115.824Y-95.504
X116.307Y-99.873
X116.84Y-80.518
X116.84Y-95.504
X117.025Y-76.75
X117.323Y-99.873
X117.856Y-80.518
X117.856Y-95.504
X118.364Y-90.678
X118.847Y-99.873
X118.872Y-80.518
X118.872Y-86.614
X119.38Y-48.26
X119.38Y-90.678
X119.863Y-99.873
X119.888Y-80.518
X119.888Y-86.614
X120.396Y-90.678
X120.879Y-99.873
X120.904Y-80.518
X120.904Y-86.614
X121.412Y-90.678
X121.895Y-99.873
X121.92Y-50.8
X121.92Y-80.518
X121.92Y-86.614
X122.936Y-80.518
X123.952Y-80.518
X124.46Y-53.34
X124.587Y-34.288
X124.968Y-80.518
X125.525Y-36.625
X125.775Y-77.875
X125.984Y-80.518
X127.0Y-55.88
X127.0Y-80.518
X127.125Y-87.75
X128.016Y-80.518
X129.032Y-80.518
X129.032Y-84.328
X129.464Y-99.847
X129.54Y-58.42
X130.048Y-76.454
X130.048Y-80.518
X130.048Y-84.328
X130.48Y-99.847
X131.064Y-76.454
X131.064Y-80.518
X131.064Y-84.328
X131.496Y-99.847
X132.018Y-27.084
X132.08Y-49.784
X132.08Y-50.8
X132.08Y-51.816
X132.08Y-52.832
X132.08Y-53.848
X132.08Y-60.96
X132.08Y-76.454
X132.08Y-80.518
X132.08Y-84.328
X132.512Y-99.847
X133.034Y-27.084
X133.096Y-76.454
X133.096Y-80.518
X133.528Y-99.847
X133.604Y-84.328
X134.05Y-27.084
X134.112Y-76.454
X134.112Y-80.518
X134.544Y-99.847
X134.62Y-63.5
X134.62Y-84.328
X135.066Y-27.084
X135.128Y-76.454
X135.128Y-80.518
X135.525Y-88.25
X135.56Y-99.847
X135.636Y-84.328
X136.082Y-27.084
X136.144Y-53.594
X136.144Y-54.61
X136.144Y-55.626
X136.144Y-56.642
X136.144Y-57.658
X136.144Y-76.454
X136.576Y-99.847
X136.652Y-30.226
X136.652Y-84.328
X137.098Y-27.084
X137.414Y-37.338
X137.414Y-38.354
X137.414Y-39.37
X137.414Y-40.386
X137.414Y-41.402
X137.668Y-30.226
X137.922Y-57.658
X137.922Y-58.674
X137.922Y-59.69
X137.922Y-60.706
X137.922Y-61.722
X137.922Y-63.246
X137.922Y-64.262
X137.922Y-65.278
X137.922Y-66.294
X137.922Y-84.328
X138.1Y-99.847
X138.114Y-27.084
X138.684Y-30.226
X138.938Y-84.328
X139.116Y-99.847
X139.13Y-27.084
X139.7Y-30.226
X139.954Y-84.328
X140.132Y-99.847
X140.146Y-27.084
X140.716Y-30.226
X140.97Y-40.64
X140.97Y-41.656
X140.97Y-42.672
X140.97Y-43.688
X140.97Y-44.704
X140.97Y-84.328
X141.148Y-99.847
X141.162Y-27.084
X141.732Y-68.072
X141.986Y-50.546
X141.986Y-51.562
X141.986Y-52.578
X141.986Y-53.594
X141.986Y-54.61
X141.986Y-56.134
X141.986Y-57.15
X141.986Y-58.166
X141.986Y-59.182
X141.986Y-60.198
X141.986Y-61.976
X141.986Y-62.992
X141.986Y-64.008
X141.986Y-65.024
X141.986Y-66.04
X142.113Y-30.988
X142.24Y-84.328
X142.432Y-27.084
X142.748Y-68.072
X143.256Y-84.328
X143.383Y-32.385
X143.448Y-27.084
X143.764Y-68.072
X144.272Y-84.328
X144.464Y-27.084
X144.677Y-88.026
X144.78Y-68.072
X145.288Y-84.328
X145.415Y-50.622
X145.48Y-27.084
X145.542Y-34.036
X145.542Y-35.052
X145.542Y-36.068
X145.542Y-37.084
X145.542Y-38.1
X145.593Y-40.742
X145.593Y-41.758
X145.593Y-42.774
X145.593Y-43.79
X145.593Y-44.806
X145.593Y-46.584
X145.593Y-47.6
X145.593Y-48.616
X145.593Y-49.632
X145.669Y-51.892
X145.669Y-52.908
X145.669Y-53.924
X145.669Y-54.94
X145.669Y-55.956
X145.669Y-57.48
X145.669Y-58.496
X145.669Y-59.512
X145.669Y-60.528
X145.669Y-61.544
X145.669Y-62.814
X145.669Y-63.83
X145.669Y-64.846
X145.669Y-65.862
X145.669Y-66.878
X145.796Y-68.072
X146.05Y-99.06
X146.496Y-27.084
X146.812Y-28.067
X146.925Y-71.725
X146.939Y-29.337
X146.939Y-30.607
X146.939Y-31.623
X147.066Y-99.06
T2
X47.512Y-32.114
X50.052Y-34.654
X52.593Y-32.114
T3
X103.338Y-41.796
X103.338Y-44.59
X103.338Y-47.384
X103.338Y-50.178
X103.338Y-52.972
X103.338Y-55.766
X103.338Y-58.56
X103.338Y-61.354
X111.212Y-41.796
X111.212Y-44.59
X111.212Y-47.384
X111.212Y-50.178
X111.212Y-52.972
X111.212Y-55.766
X111.212Y-58.56
X111.212Y-61.354
T4
X92.898Y-52.392
X94.168Y-51.122
X95.438Y-52.392
T5
X38.75Y-30.48
X41.275Y-44.737
X41.275Y-48.237
X41.29Y-30.48
X43.83Y-30.48
X62.23Y-73.665
X62.23Y-76.205
X67.056Y-29.878
X67.056Y-33.378
X113.162Y-69.975
X115.702Y-69.975
X118.242Y-69.975
X120.767Y-45.0
X120.782Y-69.975
X123.307Y-45.0
X123.322Y-69.975
X125.847Y-45.0
X125.862Y-69.975
X128.387Y-45.0
X128.402Y-69.975
X130.942Y-69.975
X133.482Y-69.975
X136.022Y-69.975
T6
X34.539Y-64.186
X34.539Y-66.726
X34.539Y-69.266
X59.365Y-34.544
X59.365Y-37.084
X59.365Y-39.624
X74.676Y-33.02
X82.296Y-33.02
X90.17Y-47.752
X97.79Y-47.752
T7
X43.18Y-68.58
X45.72Y-68.58
X48.26Y-68.58
X50.8Y-68.58
T8
X28.05Y-79.945
X28.05Y-87.695
X34.544Y-75.108
X40.386Y-75.184
X45.898Y-74.93
X50.521Y-74.778
X50.8Y-88.9
X86.284Y-33.782
T9
X31.85Y-80.095
X31.85Y-87.545
T10
X64.797Y-50.292
X86.597Y-50.292
T5
G00X28.392Y-35.474
M15
G01X28.392Y-37.474
M16
G05
G00X30.392Y-41.174
M15
G01X32.392Y-41.174
M16
G05
G00X34.392Y-35.474
M15
G01X34.392Y-37.474
M16
G05
T0
M30
