G04 #@! TF.GenerationSoftware,KiCad,Pcbnew,(6.0.9)*
G04 #@! TF.CreationDate,2022-12-15T14:24:50+09:00*
G04 #@! TF.ProjectId,nixie9v,6e697869-6539-4762-9e6b-696361645f70,rev?*
G04 #@! TF.SameCoordinates,Original*
G04 #@! TF.FileFunction,Legend,Top*
G04 #@! TF.FilePolarity,Positive*
%FSLAX46Y46*%
G04 Gerber Fmt 4.6, Leading zero omitted, Abs format (unit mm)*
G04 Created by KiCad (PCBNEW (6.0.9)) date 2022-12-15 14:24:50*
%MOMM*%
%LPD*%
G01*
G04 APERTURE LIST*
G04 Aperture macros list*
%AMRoundRect*
0 Rectangle with rounded corners*
0 $1 Rounding radius*
0 $2 $3 $4 $5 $6 $7 $8 $9 X,Y pos of 4 corners*
0 Add a 4 corners polygon primitive as box body*
4,1,4,$2,$3,$4,$5,$6,$7,$8,$9,$2,$3,0*
0 Add four circle primitives for the rounded corners*
1,1,$1+$1,$2,$3*
1,1,$1+$1,$4,$5*
1,1,$1+$1,$6,$7*
1,1,$1+$1,$8,$9*
0 Add four rect primitives between the rounded corners*
20,1,$1+$1,$2,$3,$4,$5,0*
20,1,$1+$1,$4,$5,$6,$7,0*
20,1,$1+$1,$6,$7,$8,$9,0*
20,1,$1+$1,$8,$9,$2,$3,0*%
G04 Aperture macros list end*
%ADD10C,0.150000*%
%ADD11C,0.254000*%
%ADD12C,0.120000*%
%ADD13C,0.200000*%
%ADD14C,0.100000*%
%ADD15RoundRect,0.237500X0.250000X0.237500X-0.250000X0.237500X-0.250000X-0.237500X0.250000X-0.237500X0*%
%ADD16RoundRect,0.150000X0.150000X0.625000X-0.150000X0.625000X-0.150000X-0.625000X0.150000X-0.625000X0*%
%ADD17RoundRect,0.250000X0.350000X0.650000X-0.350000X0.650000X-0.350000X-0.650000X0.350000X-0.650000X0*%
%ADD18RoundRect,0.237500X-0.300000X-0.237500X0.300000X-0.237500X0.300000X0.237500X-0.300000X0.237500X0*%
%ADD19R,1.450000X1.000000*%
%ADD20RoundRect,0.237500X-0.250000X-0.237500X0.250000X-0.237500X0.250000X0.237500X-0.250000X0.237500X0*%
%ADD21RoundRect,0.237500X-0.237500X0.250000X-0.237500X-0.250000X0.237500X-0.250000X0.237500X0.250000X0*%
%ADD22RoundRect,0.237500X0.300000X0.237500X-0.300000X0.237500X-0.300000X-0.237500X0.300000X-0.237500X0*%
%ADD23RoundRect,0.075000X-0.521491X0.415425X0.415425X-0.521491X0.521491X-0.415425X-0.415425X0.521491X0*%
%ADD24RoundRect,0.075000X-0.521491X-0.415425X-0.415425X-0.521491X0.521491X0.415425X0.415425X0.521491X0*%
%ADD25RoundRect,0.237500X0.237500X-0.300000X0.237500X0.300000X-0.237500X0.300000X-0.237500X-0.300000X0*%
%ADD26R,0.650000X1.525000*%
%ADD27R,1.700000X1.700000*%
%ADD28O,1.700000X1.700000*%
%ADD29R,1.650000X0.700000*%
%ADD30RoundRect,0.150000X-0.587500X-0.150000X0.587500X-0.150000X0.587500X0.150000X-0.587500X0.150000X0*%
%ADD31RoundRect,0.237500X-0.287500X-0.237500X0.287500X-0.237500X0.287500X0.237500X-0.287500X0.237500X0*%
%ADD32RoundRect,0.150000X-0.150000X0.587500X-0.150000X-0.587500X0.150000X-0.587500X0.150000X0.587500X0*%
%ADD33R,2.000000X1.905000*%
%ADD34O,2.000000X1.905000*%
%ADD35R,2.000000X2.000000*%
%ADD36C,2.000000*%
%ADD37C,2.500000*%
%ADD38R,1.300000X1.300000*%
%ADD39C,1.300000*%
%ADD40R,3.450000X1.900000*%
%ADD41RoundRect,0.237500X-0.237500X0.300000X-0.237500X-0.300000X0.237500X-0.300000X0.237500X0.300000X0*%
%ADD42C,0.800000*%
%ADD43R,1.300000X0.450000*%
%ADD44C,1.800000*%
%ADD45C,1.120000*%
%ADD46R,2.200000X2.200000*%
%ADD47O,2.200000X2.200000*%
%ADD48R,0.700000X1.525000*%
%ADD49R,2.000000X1.500000*%
%ADD50R,2.000000X3.800000*%
%ADD51C,1.725000*%
%ADD52C,3.600000*%
%ADD53R,7.175000X5.600000*%
%ADD54R,3.500000X3.500000*%
%ADD55RoundRect,0.750000X-0.750000X-1.000000X0.750000X-1.000000X0.750000X1.000000X-0.750000X1.000000X0*%
%ADD56RoundRect,0.875000X-0.875000X-0.875000X0.875000X-0.875000X0.875000X0.875000X-0.875000X0.875000X0*%
%ADD57R,1.133000X1.133000*%
%ADD58C,1.133000*%
G04 APERTURE END LIST*
D10*
X26880142Y-95952380D02*
X26546809Y-95476190D01*
X26308714Y-95952380D02*
X26308714Y-94952380D01*
X26689666Y-94952380D01*
X26784904Y-95000000D01*
X26832523Y-95047619D01*
X26880142Y-95142857D01*
X26880142Y-95285714D01*
X26832523Y-95380952D01*
X26784904Y-95428571D01*
X26689666Y-95476190D01*
X26308714Y-95476190D01*
X27832523Y-95952380D02*
X27261095Y-95952380D01*
X27546809Y-95952380D02*
X27546809Y-94952380D01*
X27451571Y-95095238D01*
X27356333Y-95190476D01*
X27261095Y-95238095D01*
X28213476Y-95047619D02*
X28261095Y-95000000D01*
X28356333Y-94952380D01*
X28594428Y-94952380D01*
X28689666Y-95000000D01*
X28737285Y-95047619D01*
X28784904Y-95142857D01*
X28784904Y-95238095D01*
X28737285Y-95380952D01*
X28165857Y-95952380D01*
X28784904Y-95952380D01*
X86026666Y-98510380D02*
X86026666Y-99224666D01*
X85979047Y-99367523D01*
X85883809Y-99462761D01*
X85740952Y-99510380D01*
X85645714Y-99510380D01*
X86407619Y-98510380D02*
X87026666Y-98510380D01*
X86693333Y-98891333D01*
X86836190Y-98891333D01*
X86931428Y-98938952D01*
X86979047Y-98986571D01*
X87026666Y-99081809D01*
X87026666Y-99319904D01*
X86979047Y-99415142D01*
X86931428Y-99462761D01*
X86836190Y-99510380D01*
X86550476Y-99510380D01*
X86455238Y-99462761D01*
X86407619Y-99415142D01*
X99960133Y-83509142D02*
X99912514Y-83556761D01*
X99769657Y-83604380D01*
X99674419Y-83604380D01*
X99531561Y-83556761D01*
X99436323Y-83461523D01*
X99388704Y-83366285D01*
X99341085Y-83175809D01*
X99341085Y-83032952D01*
X99388704Y-82842476D01*
X99436323Y-82747238D01*
X99531561Y-82652000D01*
X99674419Y-82604380D01*
X99769657Y-82604380D01*
X99912514Y-82652000D01*
X99960133Y-82699619D01*
X100531561Y-83032952D02*
X100436323Y-82985333D01*
X100388704Y-82937714D01*
X100341085Y-82842476D01*
X100341085Y-82794857D01*
X100388704Y-82699619D01*
X100436323Y-82652000D01*
X100531561Y-82604380D01*
X100722038Y-82604380D01*
X100817276Y-82652000D01*
X100864895Y-82699619D01*
X100912514Y-82794857D01*
X100912514Y-82842476D01*
X100864895Y-82937714D01*
X100817276Y-82985333D01*
X100722038Y-83032952D01*
X100531561Y-83032952D01*
X100436323Y-83080571D01*
X100388704Y-83128190D01*
X100341085Y-83223428D01*
X100341085Y-83413904D01*
X100388704Y-83509142D01*
X100436323Y-83556761D01*
X100531561Y-83604380D01*
X100722038Y-83604380D01*
X100817276Y-83556761D01*
X100864895Y-83509142D01*
X100912514Y-83413904D01*
X100912514Y-83223428D01*
X100864895Y-83128190D01*
X100817276Y-83080571D01*
X100722038Y-83032952D01*
X140652666Y-95908761D02*
X140795523Y-95956380D01*
X141033619Y-95956380D01*
X141128857Y-95908761D01*
X141176476Y-95861142D01*
X141224095Y-95765904D01*
X141224095Y-95670666D01*
X141176476Y-95575428D01*
X141128857Y-95527809D01*
X141033619Y-95480190D01*
X140843142Y-95432571D01*
X140747904Y-95384952D01*
X140700285Y-95337333D01*
X140652666Y-95242095D01*
X140652666Y-95146857D01*
X140700285Y-95051619D01*
X140747904Y-95004000D01*
X140843142Y-94956380D01*
X141081238Y-94956380D01*
X141224095Y-95004000D01*
X141557428Y-94956380D02*
X141795523Y-95956380D01*
X141986000Y-95242095D01*
X142176476Y-95956380D01*
X142414571Y-94956380D01*
X143224095Y-94956380D02*
X143033619Y-94956380D01*
X142938380Y-95004000D01*
X142890761Y-95051619D01*
X142795523Y-95194476D01*
X142747904Y-95384952D01*
X142747904Y-95765904D01*
X142795523Y-95861142D01*
X142843142Y-95908761D01*
X142938380Y-95956380D01*
X143128857Y-95956380D01*
X143224095Y-95908761D01*
X143271714Y-95861142D01*
X143319333Y-95765904D01*
X143319333Y-95527809D01*
X143271714Y-95432571D01*
X143224095Y-95384952D01*
X143128857Y-95337333D01*
X142938380Y-95337333D01*
X142843142Y-95384952D01*
X142795523Y-95432571D01*
X142747904Y-95527809D01*
X138366952Y-97956380D02*
X138366952Y-98765904D01*
X138414571Y-98861142D01*
X138462190Y-98908761D01*
X138557428Y-98956380D01*
X138747904Y-98956380D01*
X138843142Y-98908761D01*
X138890761Y-98861142D01*
X138938380Y-98765904D01*
X138938380Y-97956380D01*
X139366952Y-98908761D02*
X139509809Y-98956380D01*
X139747904Y-98956380D01*
X139843142Y-98908761D01*
X139890761Y-98861142D01*
X139938380Y-98765904D01*
X139938380Y-98670666D01*
X139890761Y-98575428D01*
X139843142Y-98527809D01*
X139747904Y-98480190D01*
X139557428Y-98432571D01*
X139462190Y-98384952D01*
X139414571Y-98337333D01*
X139366952Y-98242095D01*
X139366952Y-98146857D01*
X139414571Y-98051619D01*
X139462190Y-98004000D01*
X139557428Y-97956380D01*
X139795523Y-97956380D01*
X139938380Y-98004000D01*
X140366952Y-98432571D02*
X140700285Y-98432571D01*
X140843142Y-98956380D02*
X140366952Y-98956380D01*
X140366952Y-97956380D01*
X140843142Y-97956380D01*
X141843142Y-98956380D02*
X141509809Y-98480190D01*
X141271714Y-98956380D02*
X141271714Y-97956380D01*
X141652666Y-97956380D01*
X141747904Y-98004000D01*
X141795523Y-98051619D01*
X141843142Y-98146857D01*
X141843142Y-98289714D01*
X141795523Y-98384952D01*
X141747904Y-98432571D01*
X141652666Y-98480190D01*
X141271714Y-98480190D01*
X142033619Y-99051619D02*
X142795523Y-99051619D01*
X142986000Y-98908761D02*
X143128857Y-98956380D01*
X143366952Y-98956380D01*
X143462190Y-98908761D01*
X143509809Y-98861142D01*
X143557428Y-98765904D01*
X143557428Y-98670666D01*
X143509809Y-98575428D01*
X143462190Y-98527809D01*
X143366952Y-98480190D01*
X143176476Y-98432571D01*
X143081238Y-98384952D01*
X143033619Y-98337333D01*
X142986000Y-98242095D01*
X142986000Y-98146857D01*
X143033619Y-98051619D01*
X143081238Y-98004000D01*
X143176476Y-97956380D01*
X143414571Y-97956380D01*
X143557428Y-98004000D01*
X143890761Y-97956380D02*
X144128857Y-98956380D01*
X144319333Y-98242095D01*
X144509809Y-98956380D01*
X144747904Y-97956380D01*
X145033619Y-97956380D02*
X145652666Y-97956380D01*
X145319333Y-98337333D01*
X145462190Y-98337333D01*
X145557428Y-98384952D01*
X145605047Y-98432571D01*
X145652666Y-98527809D01*
X145652666Y-98765904D01*
X145605047Y-98861142D01*
X145557428Y-98908761D01*
X145462190Y-98956380D01*
X145176476Y-98956380D01*
X145081238Y-98908761D01*
X145033619Y-98861142D01*
X127246142Y-38425380D02*
X126912809Y-37949190D01*
X126674714Y-38425380D02*
X126674714Y-37425380D01*
X127055666Y-37425380D01*
X127150904Y-37473000D01*
X127198523Y-37520619D01*
X127246142Y-37615857D01*
X127246142Y-37758714D01*
X127198523Y-37853952D01*
X127150904Y-37901571D01*
X127055666Y-37949190D01*
X126674714Y-37949190D01*
X128198523Y-38425380D02*
X127627095Y-38425380D01*
X127912809Y-38425380D02*
X127912809Y-37425380D01*
X127817571Y-37568238D01*
X127722333Y-37663476D01*
X127627095Y-37711095D01*
X128674714Y-38425380D02*
X128865190Y-38425380D01*
X128960428Y-38377761D01*
X129008047Y-38330142D01*
X129103285Y-38187285D01*
X129150904Y-37996809D01*
X129150904Y-37615857D01*
X129103285Y-37520619D01*
X129055666Y-37473000D01*
X128960428Y-37425380D01*
X128769952Y-37425380D01*
X128674714Y-37473000D01*
X128627095Y-37520619D01*
X128579476Y-37615857D01*
X128579476Y-37853952D01*
X128627095Y-37949190D01*
X128674714Y-37996809D01*
X128769952Y-38044428D01*
X128960428Y-38044428D01*
X129055666Y-37996809D01*
X129103285Y-37949190D01*
X129150904Y-37853952D01*
X86718380Y-73572666D02*
X86242190Y-73906000D01*
X86718380Y-74144095D02*
X85718380Y-74144095D01*
X85718380Y-73763142D01*
X85766000Y-73667904D01*
X85813619Y-73620285D01*
X85908857Y-73572666D01*
X86051714Y-73572666D01*
X86146952Y-73620285D01*
X86194571Y-73667904D01*
X86242190Y-73763142D01*
X86242190Y-74144095D01*
X86146952Y-73001238D02*
X86099333Y-73096476D01*
X86051714Y-73144095D01*
X85956476Y-73191714D01*
X85908857Y-73191714D01*
X85813619Y-73144095D01*
X85766000Y-73096476D01*
X85718380Y-73001238D01*
X85718380Y-72810761D01*
X85766000Y-72715523D01*
X85813619Y-72667904D01*
X85908857Y-72620285D01*
X85956476Y-72620285D01*
X86051714Y-72667904D01*
X86099333Y-72715523D01*
X86146952Y-72810761D01*
X86146952Y-73001238D01*
X86194571Y-73096476D01*
X86242190Y-73144095D01*
X86337428Y-73191714D01*
X86527904Y-73191714D01*
X86623142Y-73144095D01*
X86670761Y-73096476D01*
X86718380Y-73001238D01*
X86718380Y-72810761D01*
X86670761Y-72715523D01*
X86623142Y-72667904D01*
X86527904Y-72620285D01*
X86337428Y-72620285D01*
X86242190Y-72667904D01*
X86194571Y-72715523D01*
X86146952Y-72810761D01*
X26535142Y-94178380D02*
X26201809Y-93702190D01*
X25963714Y-94178380D02*
X25963714Y-93178380D01*
X26344666Y-93178380D01*
X26439904Y-93226000D01*
X26487523Y-93273619D01*
X26535142Y-93368857D01*
X26535142Y-93511714D01*
X26487523Y-93606952D01*
X26439904Y-93654571D01*
X26344666Y-93702190D01*
X25963714Y-93702190D01*
X27487523Y-94178380D02*
X26916095Y-94178380D01*
X27201809Y-94178380D02*
X27201809Y-93178380D01*
X27106571Y-93321238D01*
X27011333Y-93416476D01*
X26916095Y-93464095D01*
X27820857Y-93178380D02*
X28439904Y-93178380D01*
X28106571Y-93559333D01*
X28249428Y-93559333D01*
X28344666Y-93606952D01*
X28392285Y-93654571D01*
X28439904Y-93749809D01*
X28439904Y-93987904D01*
X28392285Y-94083142D01*
X28344666Y-94130761D01*
X28249428Y-94178380D01*
X27963714Y-94178380D01*
X27868476Y-94130761D01*
X27820857Y-94083142D01*
X26535142Y-91892380D02*
X26201809Y-91416190D01*
X25963714Y-91892380D02*
X25963714Y-90892380D01*
X26344666Y-90892380D01*
X26439904Y-90940000D01*
X26487523Y-90987619D01*
X26535142Y-91082857D01*
X26535142Y-91225714D01*
X26487523Y-91320952D01*
X26439904Y-91368571D01*
X26344666Y-91416190D01*
X25963714Y-91416190D01*
X27487523Y-91892380D02*
X26916095Y-91892380D01*
X27201809Y-91892380D02*
X27201809Y-90892380D01*
X27106571Y-91035238D01*
X27011333Y-91130476D01*
X26916095Y-91178095D01*
X28439904Y-91892380D02*
X27868476Y-91892380D01*
X28154190Y-91892380D02*
X28154190Y-90892380D01*
X28058952Y-91035238D01*
X27963714Y-91130476D01*
X27868476Y-91178095D01*
X27773333Y-71273942D02*
X27725714Y-71321561D01*
X27582857Y-71369180D01*
X27487619Y-71369180D01*
X27344761Y-71321561D01*
X27249523Y-71226323D01*
X27201904Y-71131085D01*
X27154285Y-70940609D01*
X27154285Y-70797752D01*
X27201904Y-70607276D01*
X27249523Y-70512038D01*
X27344761Y-70416800D01*
X27487619Y-70369180D01*
X27582857Y-70369180D01*
X27725714Y-70416800D01*
X27773333Y-70464419D01*
X28106666Y-70369180D02*
X28725714Y-70369180D01*
X28392380Y-70750133D01*
X28535238Y-70750133D01*
X28630476Y-70797752D01*
X28678095Y-70845371D01*
X28725714Y-70940609D01*
X28725714Y-71178704D01*
X28678095Y-71273942D01*
X28630476Y-71321561D01*
X28535238Y-71369180D01*
X28249523Y-71369180D01*
X28154285Y-71321561D01*
X28106666Y-71273942D01*
X53782933Y-84227942D02*
X53735314Y-84275561D01*
X53592457Y-84323180D01*
X53497219Y-84323180D01*
X53354361Y-84275561D01*
X53259123Y-84180323D01*
X53211504Y-84085085D01*
X53163885Y-83894609D01*
X53163885Y-83751752D01*
X53211504Y-83561276D01*
X53259123Y-83466038D01*
X53354361Y-83370800D01*
X53497219Y-83323180D01*
X53592457Y-83323180D01*
X53735314Y-83370800D01*
X53782933Y-83418419D01*
X54640076Y-83656514D02*
X54640076Y-84323180D01*
X54401980Y-83275561D02*
X54163885Y-83989847D01*
X54782933Y-83989847D01*
X59904333Y-47442380D02*
X59571000Y-46966190D01*
X59332904Y-47442380D02*
X59332904Y-46442380D01*
X59713857Y-46442380D01*
X59809095Y-46490000D01*
X59856714Y-46537619D01*
X59904333Y-46632857D01*
X59904333Y-46775714D01*
X59856714Y-46870952D01*
X59809095Y-46918571D01*
X59713857Y-46966190D01*
X59332904Y-46966190D01*
X60380523Y-47442380D02*
X60571000Y-47442380D01*
X60666238Y-47394761D01*
X60713857Y-47347142D01*
X60809095Y-47204285D01*
X60856714Y-47013809D01*
X60856714Y-46632857D01*
X60809095Y-46537619D01*
X60761476Y-46490000D01*
X60666238Y-46442380D01*
X60475761Y-46442380D01*
X60380523Y-46490000D01*
X60332904Y-46537619D01*
X60285285Y-46632857D01*
X60285285Y-46870952D01*
X60332904Y-46966190D01*
X60380523Y-47013809D01*
X60475761Y-47061428D01*
X60666238Y-47061428D01*
X60761476Y-47013809D01*
X60809095Y-46966190D01*
X60856714Y-46870952D01*
X131762666Y-95908761D02*
X131905523Y-95956380D01*
X132143619Y-95956380D01*
X132238857Y-95908761D01*
X132286476Y-95861142D01*
X132334095Y-95765904D01*
X132334095Y-95670666D01*
X132286476Y-95575428D01*
X132238857Y-95527809D01*
X132143619Y-95480190D01*
X131953142Y-95432571D01*
X131857904Y-95384952D01*
X131810285Y-95337333D01*
X131762666Y-95242095D01*
X131762666Y-95146857D01*
X131810285Y-95051619D01*
X131857904Y-95004000D01*
X131953142Y-94956380D01*
X132191238Y-94956380D01*
X132334095Y-95004000D01*
X132667428Y-94956380D02*
X132905523Y-95956380D01*
X133096000Y-95242095D01*
X133286476Y-95956380D01*
X133524571Y-94956380D01*
X134381714Y-94956380D02*
X133905523Y-94956380D01*
X133857904Y-95432571D01*
X133905523Y-95384952D01*
X134000761Y-95337333D01*
X134238857Y-95337333D01*
X134334095Y-95384952D01*
X134381714Y-95432571D01*
X134429333Y-95527809D01*
X134429333Y-95765904D01*
X134381714Y-95861142D01*
X134334095Y-95908761D01*
X134238857Y-95956380D01*
X134000761Y-95956380D01*
X133905523Y-95908761D01*
X133857904Y-95861142D01*
X129476952Y-97956380D02*
X129476952Y-98765904D01*
X129524571Y-98861142D01*
X129572190Y-98908761D01*
X129667428Y-98956380D01*
X129857904Y-98956380D01*
X129953142Y-98908761D01*
X130000761Y-98861142D01*
X130048380Y-98765904D01*
X130048380Y-97956380D01*
X130476952Y-98908761D02*
X130619809Y-98956380D01*
X130857904Y-98956380D01*
X130953142Y-98908761D01*
X131000761Y-98861142D01*
X131048380Y-98765904D01*
X131048380Y-98670666D01*
X131000761Y-98575428D01*
X130953142Y-98527809D01*
X130857904Y-98480190D01*
X130667428Y-98432571D01*
X130572190Y-98384952D01*
X130524571Y-98337333D01*
X130476952Y-98242095D01*
X130476952Y-98146857D01*
X130524571Y-98051619D01*
X130572190Y-98004000D01*
X130667428Y-97956380D01*
X130905523Y-97956380D01*
X131048380Y-98004000D01*
X131476952Y-98432571D02*
X131810285Y-98432571D01*
X131953142Y-98956380D02*
X131476952Y-98956380D01*
X131476952Y-97956380D01*
X131953142Y-97956380D01*
X132953142Y-98956380D02*
X132619809Y-98480190D01*
X132381714Y-98956380D02*
X132381714Y-97956380D01*
X132762666Y-97956380D01*
X132857904Y-98004000D01*
X132905523Y-98051619D01*
X132953142Y-98146857D01*
X132953142Y-98289714D01*
X132905523Y-98384952D01*
X132857904Y-98432571D01*
X132762666Y-98480190D01*
X132381714Y-98480190D01*
X133143619Y-99051619D02*
X133905523Y-99051619D01*
X134096000Y-98908761D02*
X134238857Y-98956380D01*
X134476952Y-98956380D01*
X134572190Y-98908761D01*
X134619809Y-98861142D01*
X134667428Y-98765904D01*
X134667428Y-98670666D01*
X134619809Y-98575428D01*
X134572190Y-98527809D01*
X134476952Y-98480190D01*
X134286476Y-98432571D01*
X134191238Y-98384952D01*
X134143619Y-98337333D01*
X134096000Y-98242095D01*
X134096000Y-98146857D01*
X134143619Y-98051619D01*
X134191238Y-98004000D01*
X134286476Y-97956380D01*
X134524571Y-97956380D01*
X134667428Y-98004000D01*
X135000761Y-97956380D02*
X135238857Y-98956380D01*
X135429333Y-98242095D01*
X135619809Y-98956380D01*
X135857904Y-97956380D01*
X136191238Y-98051619D02*
X136238857Y-98004000D01*
X136334095Y-97956380D01*
X136572190Y-97956380D01*
X136667428Y-98004000D01*
X136715047Y-98051619D01*
X136762666Y-98146857D01*
X136762666Y-98242095D01*
X136715047Y-98384952D01*
X136143619Y-98956380D01*
X136762666Y-98956380D01*
X84288097Y-76789398D02*
X84860517Y-76216978D01*
X84894189Y-76115963D01*
X84894189Y-76048619D01*
X84860517Y-75947604D01*
X84725830Y-75812917D01*
X84624815Y-75779245D01*
X84557471Y-75779245D01*
X84456456Y-75812917D01*
X83884036Y-76385337D01*
X83614662Y-76115963D02*
X83176930Y-75678230D01*
X83682006Y-75644558D01*
X83580991Y-75543543D01*
X83547319Y-75442528D01*
X83547319Y-75375184D01*
X83580991Y-75274169D01*
X83749349Y-75105810D01*
X83850365Y-75072138D01*
X83917708Y-75072138D01*
X84018723Y-75105810D01*
X84220754Y-75307841D01*
X84254426Y-75408856D01*
X84254426Y-75476199D01*
X94964542Y-66505057D02*
X95012161Y-66552676D01*
X95059780Y-66695533D01*
X95059780Y-66790771D01*
X95012161Y-66933628D01*
X94916923Y-67028866D01*
X94821685Y-67076485D01*
X94631209Y-67124104D01*
X94488352Y-67124104D01*
X94297876Y-67076485D01*
X94202638Y-67028866D01*
X94107400Y-66933628D01*
X94059780Y-66790771D01*
X94059780Y-66695533D01*
X94107400Y-66552676D01*
X94155019Y-66505057D01*
X94155019Y-66124104D02*
X94107400Y-66076485D01*
X94059780Y-65981247D01*
X94059780Y-65743152D01*
X94107400Y-65647914D01*
X94155019Y-65600295D01*
X94250257Y-65552676D01*
X94345495Y-65552676D01*
X94488352Y-65600295D01*
X95059780Y-66171723D01*
X95059780Y-65552676D01*
X94059780Y-65219342D02*
X94059780Y-64600295D01*
X94440733Y-64933628D01*
X94440733Y-64790771D01*
X94488352Y-64695533D01*
X94535971Y-64647914D01*
X94631209Y-64600295D01*
X94869304Y-64600295D01*
X94964542Y-64647914D01*
X95012161Y-64695533D01*
X95059780Y-64790771D01*
X95059780Y-65076485D01*
X95012161Y-65171723D01*
X94964542Y-65219342D01*
X78937142Y-73032857D02*
X78984761Y-73080476D01*
X79032380Y-73223333D01*
X79032380Y-73318571D01*
X78984761Y-73461428D01*
X78889523Y-73556666D01*
X78794285Y-73604285D01*
X78603809Y-73651904D01*
X78460952Y-73651904D01*
X78270476Y-73604285D01*
X78175238Y-73556666D01*
X78080000Y-73461428D01*
X78032380Y-73318571D01*
X78032380Y-73223333D01*
X78080000Y-73080476D01*
X78127619Y-73032857D01*
X79032380Y-72080476D02*
X79032380Y-72651904D01*
X79032380Y-72366190D02*
X78032380Y-72366190D01*
X78175238Y-72461428D01*
X78270476Y-72556666D01*
X78318095Y-72651904D01*
X79032380Y-71128095D02*
X79032380Y-71699523D01*
X79032380Y-71413809D02*
X78032380Y-71413809D01*
X78175238Y-71509047D01*
X78270476Y-71604285D01*
X78318095Y-71699523D01*
X93525592Y-61722130D02*
X93192259Y-61245940D01*
X92954164Y-61722130D02*
X92954164Y-60722130D01*
X93335116Y-60722130D01*
X93430354Y-60769750D01*
X93477973Y-60817369D01*
X93525592Y-60912607D01*
X93525592Y-61055464D01*
X93477973Y-61150702D01*
X93430354Y-61198321D01*
X93335116Y-61245940D01*
X92954164Y-61245940D01*
X94477973Y-61722130D02*
X93906545Y-61722130D01*
X94192259Y-61722130D02*
X94192259Y-60722130D01*
X94097021Y-60864988D01*
X94001783Y-60960226D01*
X93906545Y-61007845D01*
X95097021Y-60722130D02*
X95192259Y-60722130D01*
X95287497Y-60769750D01*
X95335116Y-60817369D01*
X95382735Y-60912607D01*
X95430354Y-61103083D01*
X95430354Y-61341178D01*
X95382735Y-61531654D01*
X95335116Y-61626892D01*
X95287497Y-61674511D01*
X95192259Y-61722130D01*
X95097021Y-61722130D01*
X95001783Y-61674511D01*
X94954164Y-61626892D01*
X94906545Y-61531654D01*
X94858926Y-61341178D01*
X94858926Y-61103083D01*
X94906545Y-60912607D01*
X94954164Y-60817369D01*
X95001783Y-60769750D01*
X95097021Y-60722130D01*
D11*
X106349523Y-69014761D02*
X105079523Y-69014761D01*
X106228571Y-67684285D02*
X106289047Y-67744761D01*
X106349523Y-67926190D01*
X106349523Y-68047142D01*
X106289047Y-68228571D01*
X106168095Y-68349523D01*
X106047142Y-68410000D01*
X105805238Y-68470476D01*
X105623809Y-68470476D01*
X105381904Y-68410000D01*
X105260952Y-68349523D01*
X105140000Y-68228571D01*
X105079523Y-68047142D01*
X105079523Y-67926190D01*
X105140000Y-67744761D01*
X105200476Y-67684285D01*
X105079523Y-67260952D02*
X105079523Y-66474761D01*
X105563333Y-66898095D01*
X105563333Y-66716666D01*
X105623809Y-66595714D01*
X105684285Y-66535238D01*
X105805238Y-66474761D01*
X106107619Y-66474761D01*
X106228571Y-66535238D01*
X106289047Y-66595714D01*
X106349523Y-66716666D01*
X106349523Y-67079523D01*
X106289047Y-67200476D01*
X106228571Y-67260952D01*
D10*
X121023142Y-38712380D02*
X120689809Y-38236190D01*
X120451714Y-38712380D02*
X120451714Y-37712380D01*
X120832666Y-37712380D01*
X120927904Y-37760000D01*
X120975523Y-37807619D01*
X121023142Y-37902857D01*
X121023142Y-38045714D01*
X120975523Y-38140952D01*
X120927904Y-38188571D01*
X120832666Y-38236190D01*
X120451714Y-38236190D01*
X121404095Y-37807619D02*
X121451714Y-37760000D01*
X121546952Y-37712380D01*
X121785047Y-37712380D01*
X121880285Y-37760000D01*
X121927904Y-37807619D01*
X121975523Y-37902857D01*
X121975523Y-37998095D01*
X121927904Y-38140952D01*
X121356476Y-38712380D01*
X121975523Y-38712380D01*
X122832666Y-38045714D02*
X122832666Y-38712380D01*
X122594571Y-37664761D02*
X122356476Y-38379047D01*
X122975523Y-38379047D01*
X58761333Y-70207142D02*
X58713714Y-70254761D01*
X58570857Y-70302380D01*
X58475619Y-70302380D01*
X58332761Y-70254761D01*
X58237523Y-70159523D01*
X58189904Y-70064285D01*
X58142285Y-69873809D01*
X58142285Y-69730952D01*
X58189904Y-69540476D01*
X58237523Y-69445238D01*
X58332761Y-69350000D01*
X58475619Y-69302380D01*
X58570857Y-69302380D01*
X58713714Y-69350000D01*
X58761333Y-69397619D01*
X59618476Y-69302380D02*
X59428000Y-69302380D01*
X59332761Y-69350000D01*
X59285142Y-69397619D01*
X59189904Y-69540476D01*
X59142285Y-69730952D01*
X59142285Y-70111904D01*
X59189904Y-70207142D01*
X59237523Y-70254761D01*
X59332761Y-70302380D01*
X59523238Y-70302380D01*
X59618476Y-70254761D01*
X59666095Y-70207142D01*
X59713714Y-70111904D01*
X59713714Y-69873809D01*
X59666095Y-69778571D01*
X59618476Y-69730952D01*
X59523238Y-69683333D01*
X59332761Y-69683333D01*
X59237523Y-69730952D01*
X59189904Y-69778571D01*
X59142285Y-69873809D01*
X58564542Y-30551380D02*
X58231209Y-30075190D01*
X57993114Y-30551380D02*
X57993114Y-29551380D01*
X58374066Y-29551380D01*
X58469304Y-29599000D01*
X58516923Y-29646619D01*
X58564542Y-29741857D01*
X58564542Y-29884714D01*
X58516923Y-29979952D01*
X58469304Y-30027571D01*
X58374066Y-30075190D01*
X57993114Y-30075190D01*
X59516923Y-30551380D02*
X58945495Y-30551380D01*
X59231209Y-30551380D02*
X59231209Y-29551380D01*
X59135971Y-29694238D01*
X59040733Y-29789476D01*
X58945495Y-29837095D01*
X60421685Y-29551380D02*
X59945495Y-29551380D01*
X59897876Y-30027571D01*
X59945495Y-29979952D01*
X60040733Y-29932333D01*
X60278828Y-29932333D01*
X60374066Y-29979952D01*
X60421685Y-30027571D01*
X60469304Y-30122809D01*
X60469304Y-30360904D01*
X60421685Y-30456142D01*
X60374066Y-30503761D01*
X60278828Y-30551380D01*
X60040733Y-30551380D01*
X59945495Y-30503761D01*
X59897876Y-30456142D01*
X109843980Y-70308333D02*
X110558266Y-70308333D01*
X110701123Y-70355952D01*
X110796361Y-70451190D01*
X110843980Y-70594047D01*
X110843980Y-70689285D01*
X109843980Y-69355952D02*
X109843980Y-69832142D01*
X110320171Y-69879761D01*
X110272552Y-69832142D01*
X110224933Y-69736904D01*
X110224933Y-69498809D01*
X110272552Y-69403571D01*
X110320171Y-69355952D01*
X110415409Y-69308333D01*
X110653504Y-69308333D01*
X110748742Y-69355952D01*
X110796361Y-69403571D01*
X110843980Y-69498809D01*
X110843980Y-69736904D01*
X110796361Y-69832142D01*
X110748742Y-69879761D01*
D11*
X128300238Y-33594523D02*
X128300238Y-32324523D01*
X129630714Y-33473571D02*
X129570238Y-33534047D01*
X129388809Y-33594523D01*
X129267857Y-33594523D01*
X129086428Y-33534047D01*
X128965476Y-33413095D01*
X128905000Y-33292142D01*
X128844523Y-33050238D01*
X128844523Y-32868809D01*
X128905000Y-32626904D01*
X128965476Y-32505952D01*
X129086428Y-32385000D01*
X129267857Y-32324523D01*
X129388809Y-32324523D01*
X129570238Y-32385000D01*
X129630714Y-32445476D01*
X130719285Y-32747857D02*
X130719285Y-33594523D01*
X130416904Y-32264047D02*
X130114523Y-33171190D01*
X130900714Y-33171190D01*
D10*
X40617380Y-35726666D02*
X40141190Y-36060000D01*
X40617380Y-36298095D02*
X39617380Y-36298095D01*
X39617380Y-35917142D01*
X39665000Y-35821904D01*
X39712619Y-35774285D01*
X39807857Y-35726666D01*
X39950714Y-35726666D01*
X40045952Y-35774285D01*
X40093571Y-35821904D01*
X40141190Y-35917142D01*
X40141190Y-36298095D01*
X40617380Y-34774285D02*
X40617380Y-35345714D01*
X40617380Y-35060000D02*
X39617380Y-35060000D01*
X39760238Y-35155238D01*
X39855476Y-35250476D01*
X39903095Y-35345714D01*
X53808333Y-81840342D02*
X53760714Y-81887961D01*
X53617857Y-81935580D01*
X53522619Y-81935580D01*
X53379761Y-81887961D01*
X53284523Y-81792723D01*
X53236904Y-81697485D01*
X53189285Y-81507009D01*
X53189285Y-81364152D01*
X53236904Y-81173676D01*
X53284523Y-81078438D01*
X53379761Y-80983200D01*
X53522619Y-80935580D01*
X53617857Y-80935580D01*
X53760714Y-80983200D01*
X53808333Y-81030819D01*
X54760714Y-81935580D02*
X54189285Y-81935580D01*
X54475000Y-81935580D02*
X54475000Y-80935580D01*
X54379761Y-81078438D01*
X54284523Y-81173676D01*
X54189285Y-81221295D01*
X43084761Y-33707619D02*
X42989523Y-33660000D01*
X42894285Y-33564761D01*
X42751428Y-33421904D01*
X42656190Y-33374285D01*
X42560952Y-33374285D01*
X42608571Y-33612380D02*
X42513333Y-33564761D01*
X42418095Y-33469523D01*
X42370476Y-33279047D01*
X42370476Y-32945714D01*
X42418095Y-32755238D01*
X42513333Y-32660000D01*
X42608571Y-32612380D01*
X42799047Y-32612380D01*
X42894285Y-32660000D01*
X42989523Y-32755238D01*
X43037142Y-32945714D01*
X43037142Y-33279047D01*
X42989523Y-33469523D01*
X42894285Y-33564761D01*
X42799047Y-33612380D01*
X42608571Y-33612380D01*
X43989523Y-33612380D02*
X43418095Y-33612380D01*
X43703809Y-33612380D02*
X43703809Y-32612380D01*
X43608571Y-32755238D01*
X43513333Y-32850476D01*
X43418095Y-32898095D01*
X130675142Y-92559142D02*
X130627523Y-92606761D01*
X130484666Y-92654380D01*
X130389428Y-92654380D01*
X130246571Y-92606761D01*
X130151333Y-92511523D01*
X130103714Y-92416285D01*
X130056095Y-92225809D01*
X130056095Y-92082952D01*
X130103714Y-91892476D01*
X130151333Y-91797238D01*
X130246571Y-91702000D01*
X130389428Y-91654380D01*
X130484666Y-91654380D01*
X130627523Y-91702000D01*
X130675142Y-91749619D01*
X131627523Y-92654380D02*
X131056095Y-92654380D01*
X131341809Y-92654380D02*
X131341809Y-91654380D01*
X131246571Y-91797238D01*
X131151333Y-91892476D01*
X131056095Y-91940095D01*
X131960857Y-91654380D02*
X132627523Y-91654380D01*
X132198952Y-92654380D01*
X50141142Y-38742857D02*
X50188761Y-38790476D01*
X50236380Y-38933333D01*
X50236380Y-39028571D01*
X50188761Y-39171428D01*
X50093523Y-39266666D01*
X49998285Y-39314285D01*
X49807809Y-39361904D01*
X49664952Y-39361904D01*
X49474476Y-39314285D01*
X49379238Y-39266666D01*
X49284000Y-39171428D01*
X49236380Y-39028571D01*
X49236380Y-38933333D01*
X49284000Y-38790476D01*
X49331619Y-38742857D01*
X50236380Y-37790476D02*
X50236380Y-38361904D01*
X50236380Y-38076190D02*
X49236380Y-38076190D01*
X49379238Y-38171428D01*
X49474476Y-38266666D01*
X49522095Y-38361904D01*
X49331619Y-37409523D02*
X49284000Y-37361904D01*
X49236380Y-37266666D01*
X49236380Y-37028571D01*
X49284000Y-36933333D01*
X49331619Y-36885714D01*
X49426857Y-36838095D01*
X49522095Y-36838095D01*
X49664952Y-36885714D01*
X50236380Y-37457142D01*
X50236380Y-36838095D01*
X115593904Y-96050380D02*
X115593904Y-95050380D01*
X115832000Y-95050380D01*
X115974857Y-95098000D01*
X116070095Y-95193238D01*
X116117714Y-95288476D01*
X116165333Y-95478952D01*
X116165333Y-95621809D01*
X116117714Y-95812285D01*
X116070095Y-95907523D01*
X115974857Y-96002761D01*
X115832000Y-96050380D01*
X115593904Y-96050380D01*
X116546285Y-95145619D02*
X116593904Y-95098000D01*
X116689142Y-95050380D01*
X116927238Y-95050380D01*
X117022476Y-95098000D01*
X117070095Y-95145619D01*
X117117714Y-95240857D01*
X117117714Y-95336095D01*
X117070095Y-95478952D01*
X116498666Y-96050380D01*
X117117714Y-96050380D01*
X115689142Y-98910380D02*
X115212952Y-98910380D01*
X115212952Y-97910380D01*
X116022476Y-98386571D02*
X116355809Y-98386571D01*
X116498666Y-98910380D02*
X116022476Y-98910380D01*
X116022476Y-97910380D01*
X116498666Y-97910380D01*
X116927238Y-98910380D02*
X116927238Y-97910380D01*
X117165333Y-97910380D01*
X117308190Y-97958000D01*
X117403428Y-98053238D01*
X117451047Y-98148476D01*
X117498666Y-98338952D01*
X117498666Y-98481809D01*
X117451047Y-98672285D01*
X117403428Y-98767523D01*
X117308190Y-98862761D01*
X117165333Y-98910380D01*
X116927238Y-98910380D01*
X58776819Y-77311238D02*
X58729200Y-77406476D01*
X58633961Y-77501714D01*
X58491104Y-77644571D01*
X58443485Y-77739809D01*
X58443485Y-77835047D01*
X58681580Y-77787428D02*
X58633961Y-77882666D01*
X58538723Y-77977904D01*
X58348247Y-78025523D01*
X58014914Y-78025523D01*
X57824438Y-77977904D01*
X57729200Y-77882666D01*
X57681580Y-77787428D01*
X57681580Y-77596952D01*
X57729200Y-77501714D01*
X57824438Y-77406476D01*
X58014914Y-77358857D01*
X58348247Y-77358857D01*
X58538723Y-77406476D01*
X58633961Y-77501714D01*
X58681580Y-77596952D01*
X58681580Y-77787428D01*
X57776819Y-76977904D02*
X57729200Y-76930285D01*
X57681580Y-76835047D01*
X57681580Y-76596952D01*
X57729200Y-76501714D01*
X57776819Y-76454095D01*
X57872057Y-76406476D01*
X57967295Y-76406476D01*
X58110152Y-76454095D01*
X58681580Y-77025523D01*
X58681580Y-76406476D01*
X55642619Y-37179238D02*
X55595000Y-37274476D01*
X55499761Y-37369714D01*
X55356904Y-37512571D01*
X55309285Y-37607809D01*
X55309285Y-37703047D01*
X55547380Y-37655428D02*
X55499761Y-37750666D01*
X55404523Y-37845904D01*
X55214047Y-37893523D01*
X54880714Y-37893523D01*
X54690238Y-37845904D01*
X54595000Y-37750666D01*
X54547380Y-37655428D01*
X54547380Y-37464952D01*
X54595000Y-37369714D01*
X54690238Y-37274476D01*
X54880714Y-37226857D01*
X55214047Y-37226857D01*
X55404523Y-37274476D01*
X55499761Y-37369714D01*
X55547380Y-37464952D01*
X55547380Y-37655428D01*
X54880714Y-36369714D02*
X55547380Y-36369714D01*
X54499761Y-36607809D02*
X55214047Y-36845904D01*
X55214047Y-36226857D01*
X112101333Y-98910380D02*
X111768000Y-98434190D01*
X111529904Y-98910380D02*
X111529904Y-97910380D01*
X111910857Y-97910380D01*
X112006095Y-97958000D01*
X112053714Y-98005619D01*
X112101333Y-98100857D01*
X112101333Y-98243714D01*
X112053714Y-98338952D01*
X112006095Y-98386571D01*
X111910857Y-98434190D01*
X111529904Y-98434190D01*
X113006095Y-97910380D02*
X112529904Y-97910380D01*
X112482285Y-98386571D01*
X112529904Y-98338952D01*
X112625142Y-98291333D01*
X112863238Y-98291333D01*
X112958476Y-98338952D01*
X113006095Y-98386571D01*
X113053714Y-98481809D01*
X113053714Y-98719904D01*
X113006095Y-98815142D01*
X112958476Y-98862761D01*
X112863238Y-98910380D01*
X112625142Y-98910380D01*
X112529904Y-98862761D01*
X112482285Y-98815142D01*
X47882142Y-46653989D02*
X47929761Y-46701608D01*
X47977380Y-46844465D01*
X47977380Y-46939703D01*
X47929761Y-47082561D01*
X47834523Y-47177799D01*
X47739285Y-47225418D01*
X47548809Y-47273037D01*
X47405952Y-47273037D01*
X47215476Y-47225418D01*
X47120238Y-47177799D01*
X47025000Y-47082561D01*
X46977380Y-46939703D01*
X46977380Y-46844465D01*
X47025000Y-46701608D01*
X47072619Y-46653989D01*
X47072619Y-46273037D02*
X47025000Y-46225418D01*
X46977380Y-46130180D01*
X46977380Y-45892084D01*
X47025000Y-45796846D01*
X47072619Y-45749227D01*
X47167857Y-45701608D01*
X47263095Y-45701608D01*
X47405952Y-45749227D01*
X47977380Y-46320656D01*
X47977380Y-45701608D01*
X44635895Y-72234380D02*
X45207323Y-72234380D01*
X44921609Y-73234380D02*
X44921609Y-72234380D01*
X45540657Y-73234380D02*
X45540657Y-72234380D01*
X45921609Y-72234380D01*
X46016847Y-72282000D01*
X46064466Y-72329619D01*
X46112085Y-72424857D01*
X46112085Y-72567714D01*
X46064466Y-72662952D01*
X46016847Y-72710571D01*
X45921609Y-72758190D01*
X45540657Y-72758190D01*
X47016847Y-72234380D02*
X46540657Y-72234380D01*
X46493038Y-72710571D01*
X46540657Y-72662952D01*
X46635895Y-72615333D01*
X46873990Y-72615333D01*
X46969228Y-72662952D01*
X47016847Y-72710571D01*
X47064466Y-72805809D01*
X47064466Y-73043904D01*
X47016847Y-73139142D01*
X46969228Y-73186761D01*
X46873990Y-73234380D01*
X46635895Y-73234380D01*
X46540657Y-73186761D01*
X46493038Y-73139142D01*
X33282095Y-72412180D02*
X33853523Y-72412180D01*
X33567809Y-73412180D02*
X33567809Y-72412180D01*
X34186857Y-73412180D02*
X34186857Y-72412180D01*
X34567809Y-72412180D01*
X34663047Y-72459800D01*
X34710666Y-72507419D01*
X34758285Y-72602657D01*
X34758285Y-72745514D01*
X34710666Y-72840752D01*
X34663047Y-72888371D01*
X34567809Y-72935990D01*
X34186857Y-72935990D01*
X35091619Y-72412180D02*
X35710666Y-72412180D01*
X35377333Y-72793133D01*
X35520190Y-72793133D01*
X35615428Y-72840752D01*
X35663047Y-72888371D01*
X35710666Y-72983609D01*
X35710666Y-73221704D01*
X35663047Y-73316942D01*
X35615428Y-73364561D01*
X35520190Y-73412180D01*
X35234476Y-73412180D01*
X35139238Y-73364561D01*
X35091619Y-73316942D01*
X140225542Y-76582542D02*
X140177923Y-76630161D01*
X140035066Y-76677780D01*
X139939828Y-76677780D01*
X139796971Y-76630161D01*
X139701733Y-76534923D01*
X139654114Y-76439685D01*
X139606495Y-76249209D01*
X139606495Y-76106352D01*
X139654114Y-75915876D01*
X139701733Y-75820638D01*
X139796971Y-75725400D01*
X139939828Y-75677780D01*
X140035066Y-75677780D01*
X140177923Y-75725400D01*
X140225542Y-75773019D01*
X141177923Y-76677780D02*
X140606495Y-76677780D01*
X140892209Y-76677780D02*
X140892209Y-75677780D01*
X140796971Y-75820638D01*
X140701733Y-75915876D01*
X140606495Y-75963495D01*
X142035066Y-76011114D02*
X142035066Y-76677780D01*
X141796971Y-75630161D02*
X141558876Y-76344447D01*
X142177923Y-76344447D01*
D11*
X97820238Y-33594523D02*
X97820238Y-32324523D01*
X99150714Y-33473571D02*
X99090238Y-33534047D01*
X98908809Y-33594523D01*
X98787857Y-33594523D01*
X98606428Y-33534047D01*
X98485476Y-33413095D01*
X98425000Y-33292142D01*
X98364523Y-33050238D01*
X98364523Y-32868809D01*
X98425000Y-32626904D01*
X98485476Y-32505952D01*
X98606428Y-32385000D01*
X98787857Y-32324523D01*
X98908809Y-32324523D01*
X99090238Y-32385000D01*
X99150714Y-32445476D01*
X99574047Y-32324523D02*
X100420714Y-32324523D01*
X99876428Y-33594523D01*
D10*
X39124095Y-72488380D02*
X39695523Y-72488380D01*
X39409809Y-73488380D02*
X39409809Y-72488380D01*
X40028857Y-73488380D02*
X40028857Y-72488380D01*
X40409809Y-72488380D01*
X40505047Y-72536000D01*
X40552666Y-72583619D01*
X40600285Y-72678857D01*
X40600285Y-72821714D01*
X40552666Y-72916952D01*
X40505047Y-72964571D01*
X40409809Y-73012190D01*
X40028857Y-73012190D01*
X41552666Y-73488380D02*
X40981238Y-73488380D01*
X41266952Y-73488380D02*
X41266952Y-72488380D01*
X41171714Y-72631238D01*
X41076476Y-72726476D01*
X40981238Y-72774095D01*
X89358742Y-69553057D02*
X89406361Y-69600676D01*
X89453980Y-69743533D01*
X89453980Y-69838771D01*
X89406361Y-69981628D01*
X89311123Y-70076866D01*
X89215885Y-70124485D01*
X89025409Y-70172104D01*
X88882552Y-70172104D01*
X88692076Y-70124485D01*
X88596838Y-70076866D01*
X88501600Y-69981628D01*
X88453980Y-69838771D01*
X88453980Y-69743533D01*
X88501600Y-69600676D01*
X88549219Y-69553057D01*
X88549219Y-69172104D02*
X88501600Y-69124485D01*
X88453980Y-69029247D01*
X88453980Y-68791152D01*
X88501600Y-68695914D01*
X88549219Y-68648295D01*
X88644457Y-68600676D01*
X88739695Y-68600676D01*
X88882552Y-68648295D01*
X89453980Y-69219723D01*
X89453980Y-68600676D01*
X89453980Y-67648295D02*
X89453980Y-68219723D01*
X89453980Y-67934009D02*
X88453980Y-67934009D01*
X88596838Y-68029247D01*
X88692076Y-68124485D01*
X88739695Y-68219723D01*
X139565142Y-90368380D02*
X139231809Y-89892190D01*
X138993714Y-90368380D02*
X138993714Y-89368380D01*
X139374666Y-89368380D01*
X139469904Y-89416000D01*
X139517523Y-89463619D01*
X139565142Y-89558857D01*
X139565142Y-89701714D01*
X139517523Y-89796952D01*
X139469904Y-89844571D01*
X139374666Y-89892190D01*
X138993714Y-89892190D01*
X140517523Y-90368380D02*
X139946095Y-90368380D01*
X140231809Y-90368380D02*
X140231809Y-89368380D01*
X140136571Y-89511238D01*
X140041333Y-89606476D01*
X139946095Y-89654095D01*
X141088952Y-89796952D02*
X140993714Y-89749333D01*
X140946095Y-89701714D01*
X140898476Y-89606476D01*
X140898476Y-89558857D01*
X140946095Y-89463619D01*
X140993714Y-89416000D01*
X141088952Y-89368380D01*
X141279428Y-89368380D01*
X141374666Y-89416000D01*
X141422285Y-89463619D01*
X141469904Y-89558857D01*
X141469904Y-89606476D01*
X141422285Y-89701714D01*
X141374666Y-89749333D01*
X141279428Y-89796952D01*
X141088952Y-89796952D01*
X140993714Y-89844571D01*
X140946095Y-89892190D01*
X140898476Y-89987428D01*
X140898476Y-90177904D01*
X140946095Y-90273142D01*
X140993714Y-90320761D01*
X141088952Y-90368380D01*
X141279428Y-90368380D01*
X141374666Y-90320761D01*
X141422285Y-90273142D01*
X141469904Y-90177904D01*
X141469904Y-89987428D01*
X141422285Y-89892190D01*
X141374666Y-89844571D01*
X141279428Y-89796952D01*
X85021895Y-31086380D02*
X85593323Y-31086380D01*
X85307609Y-32086380D02*
X85307609Y-31086380D01*
X85926657Y-32086380D02*
X85926657Y-31086380D01*
X86307609Y-31086380D01*
X86402847Y-31134000D01*
X86450466Y-31181619D01*
X86498085Y-31276857D01*
X86498085Y-31419714D01*
X86450466Y-31514952D01*
X86402847Y-31562571D01*
X86307609Y-31610190D01*
X85926657Y-31610190D01*
X87355228Y-31086380D02*
X87164752Y-31086380D01*
X87069514Y-31134000D01*
X87021895Y-31181619D01*
X86926657Y-31324476D01*
X86879038Y-31514952D01*
X86879038Y-31895904D01*
X86926657Y-31991142D01*
X86974276Y-32038761D01*
X87069514Y-32086380D01*
X87259990Y-32086380D01*
X87355228Y-32038761D01*
X87402847Y-31991142D01*
X87450466Y-31895904D01*
X87450466Y-31657809D01*
X87402847Y-31562571D01*
X87355228Y-31514952D01*
X87259990Y-31467333D01*
X87069514Y-31467333D01*
X86974276Y-31514952D01*
X86926657Y-31562571D01*
X86879038Y-31657809D01*
X139311142Y-92305142D02*
X139263523Y-92352761D01*
X139120666Y-92400380D01*
X139025428Y-92400380D01*
X138882571Y-92352761D01*
X138787333Y-92257523D01*
X138739714Y-92162285D01*
X138692095Y-91971809D01*
X138692095Y-91828952D01*
X138739714Y-91638476D01*
X138787333Y-91543238D01*
X138882571Y-91448000D01*
X139025428Y-91400380D01*
X139120666Y-91400380D01*
X139263523Y-91448000D01*
X139311142Y-91495619D01*
X140263523Y-92400380D02*
X139692095Y-92400380D01*
X139977809Y-92400380D02*
X139977809Y-91400380D01*
X139882571Y-91543238D01*
X139787333Y-91638476D01*
X139692095Y-91686095D01*
X140834952Y-91828952D02*
X140739714Y-91781333D01*
X140692095Y-91733714D01*
X140644476Y-91638476D01*
X140644476Y-91590857D01*
X140692095Y-91495619D01*
X140739714Y-91448000D01*
X140834952Y-91400380D01*
X141025428Y-91400380D01*
X141120666Y-91448000D01*
X141168285Y-91495619D01*
X141215904Y-91590857D01*
X141215904Y-91638476D01*
X141168285Y-91733714D01*
X141120666Y-91781333D01*
X141025428Y-91828952D01*
X140834952Y-91828952D01*
X140739714Y-91876571D01*
X140692095Y-91924190D01*
X140644476Y-92019428D01*
X140644476Y-92209904D01*
X140692095Y-92305142D01*
X140739714Y-92352761D01*
X140834952Y-92400380D01*
X141025428Y-92400380D01*
X141120666Y-92352761D01*
X141168285Y-92305142D01*
X141215904Y-92209904D01*
X141215904Y-92019428D01*
X141168285Y-91924190D01*
X141120666Y-91876571D01*
X141025428Y-91828952D01*
X49258695Y-72081980D02*
X49830123Y-72081980D01*
X49544409Y-73081980D02*
X49544409Y-72081980D01*
X50163457Y-73081980D02*
X50163457Y-72081980D01*
X50544409Y-72081980D01*
X50639647Y-72129600D01*
X50687266Y-72177219D01*
X50734885Y-72272457D01*
X50734885Y-72415314D01*
X50687266Y-72510552D01*
X50639647Y-72558171D01*
X50544409Y-72605790D01*
X50163457Y-72605790D01*
X51592028Y-72415314D02*
X51592028Y-73081980D01*
X51353933Y-72034361D02*
X51115838Y-72748647D01*
X51734885Y-72748647D01*
X92868761Y-55665619D02*
X92773523Y-55618000D01*
X92678285Y-55522761D01*
X92535428Y-55379904D01*
X92440190Y-55332285D01*
X92344952Y-55332285D01*
X92392571Y-55570380D02*
X92297333Y-55522761D01*
X92202095Y-55427523D01*
X92154476Y-55237047D01*
X92154476Y-54903714D01*
X92202095Y-54713238D01*
X92297333Y-54618000D01*
X92392571Y-54570380D01*
X92583047Y-54570380D01*
X92678285Y-54618000D01*
X92773523Y-54713238D01*
X92821142Y-54903714D01*
X92821142Y-55237047D01*
X92773523Y-55427523D01*
X92678285Y-55522761D01*
X92583047Y-55570380D01*
X92392571Y-55570380D01*
X93154476Y-54570380D02*
X93773523Y-54570380D01*
X93440190Y-54951333D01*
X93583047Y-54951333D01*
X93678285Y-54998952D01*
X93725904Y-55046571D01*
X93773523Y-55141809D01*
X93773523Y-55379904D01*
X93725904Y-55475142D01*
X93678285Y-55522761D01*
X93583047Y-55570380D01*
X93297333Y-55570380D01*
X93202095Y-55522761D01*
X93154476Y-55475142D01*
X131183142Y-38458380D02*
X130849809Y-37982190D01*
X130611714Y-38458380D02*
X130611714Y-37458380D01*
X130992666Y-37458380D01*
X131087904Y-37506000D01*
X131135523Y-37553619D01*
X131183142Y-37648857D01*
X131183142Y-37791714D01*
X131135523Y-37886952D01*
X131087904Y-37934571D01*
X130992666Y-37982190D01*
X130611714Y-37982190D01*
X131564095Y-37553619D02*
X131611714Y-37506000D01*
X131706952Y-37458380D01*
X131945047Y-37458380D01*
X132040285Y-37506000D01*
X132087904Y-37553619D01*
X132135523Y-37648857D01*
X132135523Y-37744095D01*
X132087904Y-37886952D01*
X131516476Y-38458380D01*
X132135523Y-38458380D01*
X132468857Y-37458380D02*
X133087904Y-37458380D01*
X132754571Y-37839333D01*
X132897428Y-37839333D01*
X132992666Y-37886952D01*
X133040285Y-37934571D01*
X133087904Y-38029809D01*
X133087904Y-38267904D01*
X133040285Y-38363142D01*
X132992666Y-38410761D01*
X132897428Y-38458380D01*
X132611714Y-38458380D01*
X132516476Y-38410761D01*
X132468857Y-38363142D01*
X93524342Y-69629257D02*
X93571961Y-69676876D01*
X93619580Y-69819733D01*
X93619580Y-69914971D01*
X93571961Y-70057828D01*
X93476723Y-70153066D01*
X93381485Y-70200685D01*
X93191009Y-70248304D01*
X93048152Y-70248304D01*
X92857676Y-70200685D01*
X92762438Y-70153066D01*
X92667200Y-70057828D01*
X92619580Y-69914971D01*
X92619580Y-69819733D01*
X92667200Y-69676876D01*
X92714819Y-69629257D01*
X92714819Y-69248304D02*
X92667200Y-69200685D01*
X92619580Y-69105447D01*
X92619580Y-68867352D01*
X92667200Y-68772114D01*
X92714819Y-68724495D01*
X92810057Y-68676876D01*
X92905295Y-68676876D01*
X93048152Y-68724495D01*
X93619580Y-69295923D01*
X93619580Y-68676876D01*
X92952914Y-67819733D02*
X93619580Y-67819733D01*
X92571961Y-68057828D02*
X93286247Y-68295923D01*
X93286247Y-67676876D01*
X95591333Y-98910380D02*
X95258000Y-98434190D01*
X95019904Y-98910380D02*
X95019904Y-97910380D01*
X95400857Y-97910380D01*
X95496095Y-97958000D01*
X95543714Y-98005619D01*
X95591333Y-98100857D01*
X95591333Y-98243714D01*
X95543714Y-98338952D01*
X95496095Y-98386571D01*
X95400857Y-98434190D01*
X95019904Y-98434190D01*
X96448476Y-98243714D02*
X96448476Y-98910380D01*
X96210380Y-97862761D02*
X95972285Y-98577047D01*
X96591333Y-98577047D01*
X60896666Y-78939761D02*
X61039523Y-78987380D01*
X61277619Y-78987380D01*
X61372857Y-78939761D01*
X61420476Y-78892142D01*
X61468095Y-78796904D01*
X61468095Y-78701666D01*
X61420476Y-78606428D01*
X61372857Y-78558809D01*
X61277619Y-78511190D01*
X61087142Y-78463571D01*
X60991904Y-78415952D01*
X60944285Y-78368333D01*
X60896666Y-78273095D01*
X60896666Y-78177857D01*
X60944285Y-78082619D01*
X60991904Y-78035000D01*
X61087142Y-77987380D01*
X61325238Y-77987380D01*
X61468095Y-78035000D01*
X61801428Y-77987380D02*
X62039523Y-78987380D01*
X62230000Y-78273095D01*
X62420476Y-78987380D01*
X62658571Y-77987380D01*
X62991904Y-78082619D02*
X63039523Y-78035000D01*
X63134761Y-77987380D01*
X63372857Y-77987380D01*
X63468095Y-78035000D01*
X63515714Y-78082619D01*
X63563333Y-78177857D01*
X63563333Y-78273095D01*
X63515714Y-78415952D01*
X62944285Y-78987380D01*
X63563333Y-78987380D01*
X36824761Y-31813333D02*
X36872380Y-31670476D01*
X36872380Y-31432380D01*
X36824761Y-31337142D01*
X36777142Y-31289523D01*
X36681904Y-31241904D01*
X36586666Y-31241904D01*
X36491428Y-31289523D01*
X36443809Y-31337142D01*
X36396190Y-31432380D01*
X36348571Y-31622857D01*
X36300952Y-31718095D01*
X36253333Y-31765714D01*
X36158095Y-31813333D01*
X36062857Y-31813333D01*
X35967619Y-31765714D01*
X35920000Y-31718095D01*
X35872380Y-31622857D01*
X35872380Y-31384761D01*
X35920000Y-31241904D01*
X35872380Y-30908571D02*
X36872380Y-30670476D01*
X36158095Y-30480000D01*
X36872380Y-30289523D01*
X35872380Y-30051428D01*
X36872380Y-29146666D02*
X36872380Y-29718095D01*
X36872380Y-29432380D02*
X35872380Y-29432380D01*
X36015238Y-29527619D01*
X36110476Y-29622857D01*
X36158095Y-29718095D01*
X107465904Y-96050380D02*
X107465904Y-95050380D01*
X107704000Y-95050380D01*
X107846857Y-95098000D01*
X107942095Y-95193238D01*
X107989714Y-95288476D01*
X108037333Y-95478952D01*
X108037333Y-95621809D01*
X107989714Y-95812285D01*
X107942095Y-95907523D01*
X107846857Y-96002761D01*
X107704000Y-96050380D01*
X107465904Y-96050380D01*
X108370666Y-95050380D02*
X108989714Y-95050380D01*
X108656380Y-95431333D01*
X108799238Y-95431333D01*
X108894476Y-95478952D01*
X108942095Y-95526571D01*
X108989714Y-95621809D01*
X108989714Y-95859904D01*
X108942095Y-95955142D01*
X108894476Y-96002761D01*
X108799238Y-96050380D01*
X108513523Y-96050380D01*
X108418285Y-96002761D01*
X108370666Y-95955142D01*
X107561142Y-98910380D02*
X107084952Y-98910380D01*
X107084952Y-97910380D01*
X107894476Y-98386571D02*
X108227809Y-98386571D01*
X108370666Y-98910380D02*
X107894476Y-98910380D01*
X107894476Y-97910380D01*
X108370666Y-97910380D01*
X108799238Y-98910380D02*
X108799238Y-97910380D01*
X109037333Y-97910380D01*
X109180190Y-97958000D01*
X109275428Y-98053238D01*
X109323047Y-98148476D01*
X109370666Y-98338952D01*
X109370666Y-98481809D01*
X109323047Y-98672285D01*
X109275428Y-98767523D01*
X109180190Y-98862761D01*
X109037333Y-98910380D01*
X108799238Y-98910380D01*
X49538095Y-86204380D02*
X50109523Y-86204380D01*
X49823809Y-87204380D02*
X49823809Y-86204380D01*
X50442857Y-87204380D02*
X50442857Y-86204380D01*
X50823809Y-86204380D01*
X50919047Y-86252000D01*
X50966666Y-86299619D01*
X51014285Y-86394857D01*
X51014285Y-86537714D01*
X50966666Y-86632952D01*
X50919047Y-86680571D01*
X50823809Y-86728190D01*
X50442857Y-86728190D01*
X51395238Y-86299619D02*
X51442857Y-86252000D01*
X51538095Y-86204380D01*
X51776190Y-86204380D01*
X51871428Y-86252000D01*
X51919047Y-86299619D01*
X51966666Y-86394857D01*
X51966666Y-86490095D01*
X51919047Y-86632952D01*
X51347619Y-87204380D01*
X51966666Y-87204380D01*
X100830142Y-38712380D02*
X100496809Y-38236190D01*
X100258714Y-38712380D02*
X100258714Y-37712380D01*
X100639666Y-37712380D01*
X100734904Y-37760000D01*
X100782523Y-37807619D01*
X100830142Y-37902857D01*
X100830142Y-38045714D01*
X100782523Y-38140952D01*
X100734904Y-38188571D01*
X100639666Y-38236190D01*
X100258714Y-38236190D01*
X101211095Y-37807619D02*
X101258714Y-37760000D01*
X101353952Y-37712380D01*
X101592047Y-37712380D01*
X101687285Y-37760000D01*
X101734904Y-37807619D01*
X101782523Y-37902857D01*
X101782523Y-37998095D01*
X101734904Y-38140952D01*
X101163476Y-38712380D01*
X101782523Y-38712380D01*
X102639666Y-37712380D02*
X102449190Y-37712380D01*
X102353952Y-37760000D01*
X102306333Y-37807619D01*
X102211095Y-37950476D01*
X102163476Y-38140952D01*
X102163476Y-38521904D01*
X102211095Y-38617142D01*
X102258714Y-38664761D01*
X102353952Y-38712380D01*
X102544428Y-38712380D01*
X102639666Y-38664761D01*
X102687285Y-38617142D01*
X102734904Y-38521904D01*
X102734904Y-38283809D01*
X102687285Y-38188571D01*
X102639666Y-38140952D01*
X102544428Y-38093333D01*
X102353952Y-38093333D01*
X102258714Y-38140952D01*
X102211095Y-38188571D01*
X102163476Y-38283809D01*
D11*
X118140238Y-33594523D02*
X118140238Y-32324523D01*
X119470714Y-33473571D02*
X119410238Y-33534047D01*
X119228809Y-33594523D01*
X119107857Y-33594523D01*
X118926428Y-33534047D01*
X118805476Y-33413095D01*
X118745000Y-33292142D01*
X118684523Y-33050238D01*
X118684523Y-32868809D01*
X118745000Y-32626904D01*
X118805476Y-32505952D01*
X118926428Y-32385000D01*
X119107857Y-32324523D01*
X119228809Y-32324523D01*
X119410238Y-32385000D01*
X119470714Y-32445476D01*
X120619761Y-32324523D02*
X120015000Y-32324523D01*
X119954523Y-32929285D01*
X120015000Y-32868809D01*
X120135952Y-32808333D01*
X120438333Y-32808333D01*
X120559285Y-32868809D01*
X120619761Y-32929285D01*
X120680238Y-33050238D01*
X120680238Y-33352619D01*
X120619761Y-33473571D01*
X120559285Y-33534047D01*
X120438333Y-33594523D01*
X120135952Y-33594523D01*
X120015000Y-33534047D01*
X119954523Y-33473571D01*
D10*
X130609380Y-45333333D02*
X131323666Y-45333333D01*
X131466523Y-45380952D01*
X131561761Y-45476190D01*
X131609380Y-45619047D01*
X131609380Y-45714285D01*
X130609380Y-44428571D02*
X130609380Y-44619047D01*
X130657000Y-44714285D01*
X130704619Y-44761904D01*
X130847476Y-44857142D01*
X131037952Y-44904761D01*
X131418904Y-44904761D01*
X131514142Y-44857142D01*
X131561761Y-44809523D01*
X131609380Y-44714285D01*
X131609380Y-44523809D01*
X131561761Y-44428571D01*
X131514142Y-44380952D01*
X131418904Y-44333333D01*
X131180809Y-44333333D01*
X131085571Y-44380952D01*
X131037952Y-44428571D01*
X130990333Y-44523809D01*
X130990333Y-44714285D01*
X131037952Y-44809523D01*
X131085571Y-44857142D01*
X131180809Y-44904761D01*
X122157142Y-90627380D02*
X121823809Y-90151190D01*
X121585714Y-90627380D02*
X121585714Y-89627380D01*
X121966666Y-89627380D01*
X122061904Y-89675000D01*
X122109523Y-89722619D01*
X122157142Y-89817857D01*
X122157142Y-89960714D01*
X122109523Y-90055952D01*
X122061904Y-90103571D01*
X121966666Y-90151190D01*
X121585714Y-90151190D01*
X123109523Y-90627380D02*
X122538095Y-90627380D01*
X122823809Y-90627380D02*
X122823809Y-89627380D01*
X122728571Y-89770238D01*
X122633333Y-89865476D01*
X122538095Y-89913095D01*
X123966666Y-89627380D02*
X123776190Y-89627380D01*
X123680952Y-89675000D01*
X123633333Y-89722619D01*
X123538095Y-89865476D01*
X123490476Y-90055952D01*
X123490476Y-90436904D01*
X123538095Y-90532142D01*
X123585714Y-90579761D01*
X123680952Y-90627380D01*
X123871428Y-90627380D01*
X123966666Y-90579761D01*
X124014285Y-90532142D01*
X124061904Y-90436904D01*
X124061904Y-90198809D01*
X124014285Y-90103571D01*
X123966666Y-90055952D01*
X123871428Y-90008333D01*
X123680952Y-90008333D01*
X123585714Y-90055952D01*
X123538095Y-90103571D01*
X123490476Y-90198809D01*
X91568542Y-69756257D02*
X91616161Y-69803876D01*
X91663780Y-69946733D01*
X91663780Y-70041971D01*
X91616161Y-70184828D01*
X91520923Y-70280066D01*
X91425685Y-70327685D01*
X91235209Y-70375304D01*
X91092352Y-70375304D01*
X90901876Y-70327685D01*
X90806638Y-70280066D01*
X90711400Y-70184828D01*
X90663780Y-70041971D01*
X90663780Y-69946733D01*
X90711400Y-69803876D01*
X90759019Y-69756257D01*
X90759019Y-69375304D02*
X90711400Y-69327685D01*
X90663780Y-69232447D01*
X90663780Y-68994352D01*
X90711400Y-68899114D01*
X90759019Y-68851495D01*
X90854257Y-68803876D01*
X90949495Y-68803876D01*
X91092352Y-68851495D01*
X91663780Y-69422923D01*
X91663780Y-68803876D01*
X90759019Y-68422923D02*
X90711400Y-68375304D01*
X90663780Y-68280066D01*
X90663780Y-68041971D01*
X90711400Y-67946733D01*
X90759019Y-67899114D01*
X90854257Y-67851495D01*
X90949495Y-67851495D01*
X91092352Y-67899114D01*
X91663780Y-68470542D01*
X91663780Y-67851495D01*
X113607142Y-83477142D02*
X113559523Y-83524761D01*
X113416666Y-83572380D01*
X113321428Y-83572380D01*
X113178571Y-83524761D01*
X113083333Y-83429523D01*
X113035714Y-83334285D01*
X112988095Y-83143809D01*
X112988095Y-83000952D01*
X113035714Y-82810476D01*
X113083333Y-82715238D01*
X113178571Y-82620000D01*
X113321428Y-82572380D01*
X113416666Y-82572380D01*
X113559523Y-82620000D01*
X113607142Y-82667619D01*
X114559523Y-83572380D02*
X113988095Y-83572380D01*
X114273809Y-83572380D02*
X114273809Y-82572380D01*
X114178571Y-82715238D01*
X114083333Y-82810476D01*
X113988095Y-82858095D01*
X115178571Y-82572380D02*
X115273809Y-82572380D01*
X115369047Y-82620000D01*
X115416666Y-82667619D01*
X115464285Y-82762857D01*
X115511904Y-82953333D01*
X115511904Y-83191428D01*
X115464285Y-83381904D01*
X115416666Y-83477142D01*
X115369047Y-83524761D01*
X115273809Y-83572380D01*
X115178571Y-83572380D01*
X115083333Y-83524761D01*
X115035714Y-83477142D01*
X114988095Y-83381904D01*
X114940476Y-83191428D01*
X114940476Y-82953333D01*
X114988095Y-82762857D01*
X115035714Y-82667619D01*
X115083333Y-82620000D01*
X115178571Y-82572380D01*
D11*
X49318333Y-57724523D02*
X48895000Y-57119761D01*
X48592619Y-57724523D02*
X48592619Y-56454523D01*
X49076428Y-56454523D01*
X49197380Y-56515000D01*
X49257857Y-56575476D01*
X49318333Y-56696428D01*
X49318333Y-56877857D01*
X49257857Y-56998809D01*
X49197380Y-57059285D01*
X49076428Y-57119761D01*
X48592619Y-57119761D01*
X49802142Y-56575476D02*
X49862619Y-56515000D01*
X49983571Y-56454523D01*
X50285952Y-56454523D01*
X50406904Y-56515000D01*
X50467380Y-56575476D01*
X50527857Y-56696428D01*
X50527857Y-56817380D01*
X50467380Y-56998809D01*
X49741666Y-57724523D01*
X50527857Y-57724523D01*
X46143333Y-58994523D02*
X46264285Y-58994523D01*
X46385238Y-59055000D01*
X46445714Y-59115476D01*
X46506190Y-59236428D01*
X46566666Y-59478333D01*
X46566666Y-59780714D01*
X46506190Y-60022619D01*
X46445714Y-60143571D01*
X46385238Y-60204047D01*
X46264285Y-60264523D01*
X46143333Y-60264523D01*
X46022380Y-60204047D01*
X45961904Y-60143571D01*
X45901428Y-60022619D01*
X45840952Y-59780714D01*
X45840952Y-59478333D01*
X45901428Y-59236428D01*
X45961904Y-59115476D01*
X46022380Y-59055000D01*
X46143333Y-58994523D01*
X47110952Y-60143571D02*
X47171428Y-60204047D01*
X47110952Y-60264523D01*
X47050476Y-60204047D01*
X47110952Y-60143571D01*
X47110952Y-60264523D01*
X47655238Y-59115476D02*
X47715714Y-59055000D01*
X47836666Y-58994523D01*
X48139047Y-58994523D01*
X48260000Y-59055000D01*
X48320476Y-59115476D01*
X48380952Y-59236428D01*
X48380952Y-59357380D01*
X48320476Y-59538809D01*
X47594761Y-60264523D01*
X48380952Y-60264523D01*
X48864761Y-59115476D02*
X48925238Y-59055000D01*
X49046190Y-58994523D01*
X49348571Y-58994523D01*
X49469523Y-59055000D01*
X49530000Y-59115476D01*
X49590476Y-59236428D01*
X49590476Y-59357380D01*
X49530000Y-59538809D01*
X48804285Y-60264523D01*
X49590476Y-60264523D01*
X51707142Y-58994523D02*
X51102380Y-58994523D01*
X51041904Y-59599285D01*
X51102380Y-59538809D01*
X51223333Y-59478333D01*
X51525714Y-59478333D01*
X51646666Y-59538809D01*
X51707142Y-59599285D01*
X51767619Y-59720238D01*
X51767619Y-60022619D01*
X51707142Y-60143571D01*
X51646666Y-60204047D01*
X51525714Y-60264523D01*
X51223333Y-60264523D01*
X51102380Y-60204047D01*
X51041904Y-60143571D01*
X52190952Y-58994523D02*
X52493333Y-60264523D01*
X52735238Y-59357380D01*
X52977142Y-60264523D01*
X53279523Y-58994523D01*
D10*
X110990142Y-38458380D02*
X110656809Y-37982190D01*
X110418714Y-38458380D02*
X110418714Y-37458380D01*
X110799666Y-37458380D01*
X110894904Y-37506000D01*
X110942523Y-37553619D01*
X110990142Y-37648857D01*
X110990142Y-37791714D01*
X110942523Y-37886952D01*
X110894904Y-37934571D01*
X110799666Y-37982190D01*
X110418714Y-37982190D01*
X111371095Y-37553619D02*
X111418714Y-37506000D01*
X111513952Y-37458380D01*
X111752047Y-37458380D01*
X111847285Y-37506000D01*
X111894904Y-37553619D01*
X111942523Y-37648857D01*
X111942523Y-37744095D01*
X111894904Y-37886952D01*
X111323476Y-38458380D01*
X111942523Y-38458380D01*
X112847285Y-37458380D02*
X112371095Y-37458380D01*
X112323476Y-37934571D01*
X112371095Y-37886952D01*
X112466333Y-37839333D01*
X112704428Y-37839333D01*
X112799666Y-37886952D01*
X112847285Y-37934571D01*
X112894904Y-38029809D01*
X112894904Y-38267904D01*
X112847285Y-38363142D01*
X112799666Y-38410761D01*
X112704428Y-38458380D01*
X112466333Y-38458380D01*
X112371095Y-38410761D01*
X112323476Y-38363142D01*
X38261180Y-67487704D02*
X39070704Y-67487704D01*
X39165942Y-67440085D01*
X39213561Y-67392466D01*
X39261180Y-67297228D01*
X39261180Y-67106752D01*
X39213561Y-67011514D01*
X39165942Y-66963895D01*
X39070704Y-66916276D01*
X38261180Y-66916276D01*
X39261180Y-65916276D02*
X39261180Y-66487704D01*
X39261180Y-66201990D02*
X38261180Y-66201990D01*
X38404038Y-66297228D01*
X38499276Y-66392466D01*
X38546895Y-66487704D01*
X81797142Y-88050666D02*
X81844761Y-88098285D01*
X81892380Y-88241142D01*
X81892380Y-88336380D01*
X81844761Y-88479238D01*
X81749523Y-88574476D01*
X81654285Y-88622095D01*
X81463809Y-88669714D01*
X81320952Y-88669714D01*
X81130476Y-88622095D01*
X81035238Y-88574476D01*
X80940000Y-88479238D01*
X80892380Y-88336380D01*
X80892380Y-88241142D01*
X80940000Y-88098285D01*
X80987619Y-88050666D01*
X81892380Y-87574476D02*
X81892380Y-87384000D01*
X81844761Y-87288761D01*
X81797142Y-87241142D01*
X81654285Y-87145904D01*
X81463809Y-87098285D01*
X81082857Y-87098285D01*
X80987619Y-87145904D01*
X80940000Y-87193523D01*
X80892380Y-87288761D01*
X80892380Y-87479238D01*
X80940000Y-87574476D01*
X80987619Y-87622095D01*
X81082857Y-87669714D01*
X81320952Y-87669714D01*
X81416190Y-87622095D01*
X81463809Y-87574476D01*
X81511428Y-87479238D01*
X81511428Y-87288761D01*
X81463809Y-87193523D01*
X81416190Y-87145904D01*
X81320952Y-87098285D01*
X122039142Y-92559142D02*
X121991523Y-92606761D01*
X121848666Y-92654380D01*
X121753428Y-92654380D01*
X121610571Y-92606761D01*
X121515333Y-92511523D01*
X121467714Y-92416285D01*
X121420095Y-92225809D01*
X121420095Y-92082952D01*
X121467714Y-91892476D01*
X121515333Y-91797238D01*
X121610571Y-91702000D01*
X121753428Y-91654380D01*
X121848666Y-91654380D01*
X121991523Y-91702000D01*
X122039142Y-91749619D01*
X122991523Y-92654380D02*
X122420095Y-92654380D01*
X122705809Y-92654380D02*
X122705809Y-91654380D01*
X122610571Y-91797238D01*
X122515333Y-91892476D01*
X122420095Y-91940095D01*
X123848666Y-91654380D02*
X123658190Y-91654380D01*
X123562952Y-91702000D01*
X123515333Y-91749619D01*
X123420095Y-91892476D01*
X123372476Y-92082952D01*
X123372476Y-92463904D01*
X123420095Y-92559142D01*
X123467714Y-92606761D01*
X123562952Y-92654380D01*
X123753428Y-92654380D01*
X123848666Y-92606761D01*
X123896285Y-92559142D01*
X123943904Y-92463904D01*
X123943904Y-92225809D01*
X123896285Y-92130571D01*
X123848666Y-92082952D01*
X123753428Y-92035333D01*
X123562952Y-92035333D01*
X123467714Y-92082952D01*
X123420095Y-92130571D01*
X123372476Y-92225809D01*
X53189142Y-39250857D02*
X53236761Y-39298476D01*
X53284380Y-39441333D01*
X53284380Y-39536571D01*
X53236761Y-39679428D01*
X53141523Y-39774666D01*
X53046285Y-39822285D01*
X52855809Y-39869904D01*
X52712952Y-39869904D01*
X52522476Y-39822285D01*
X52427238Y-39774666D01*
X52332000Y-39679428D01*
X52284380Y-39536571D01*
X52284380Y-39441333D01*
X52332000Y-39298476D01*
X52379619Y-39250857D01*
X53284380Y-38298476D02*
X53284380Y-38869904D01*
X53284380Y-38584190D02*
X52284380Y-38584190D01*
X52427238Y-38679428D01*
X52522476Y-38774666D01*
X52570095Y-38869904D01*
X52284380Y-37965142D02*
X52284380Y-37346095D01*
X52665333Y-37679428D01*
X52665333Y-37536571D01*
X52712952Y-37441333D01*
X52760571Y-37393714D01*
X52855809Y-37346095D01*
X53093904Y-37346095D01*
X53189142Y-37393714D01*
X53236761Y-37441333D01*
X53284380Y-37536571D01*
X53284380Y-37822285D01*
X53236761Y-37917523D01*
X53189142Y-37965142D01*
X32952380Y-84153333D02*
X33666666Y-84153333D01*
X33809523Y-84200952D01*
X33904761Y-84296190D01*
X33952380Y-84439047D01*
X33952380Y-84534285D01*
X33047619Y-83724761D02*
X33000000Y-83677142D01*
X32952380Y-83581904D01*
X32952380Y-83343809D01*
X33000000Y-83248571D01*
X33047619Y-83200952D01*
X33142857Y-83153333D01*
X33238095Y-83153333D01*
X33380952Y-83200952D01*
X33952380Y-83772380D01*
X33952380Y-83153333D01*
X99083904Y-96050380D02*
X99083904Y-95050380D01*
X99322000Y-95050380D01*
X99464857Y-95098000D01*
X99560095Y-95193238D01*
X99607714Y-95288476D01*
X99655333Y-95478952D01*
X99655333Y-95621809D01*
X99607714Y-95812285D01*
X99560095Y-95907523D01*
X99464857Y-96002761D01*
X99322000Y-96050380D01*
X99083904Y-96050380D01*
X100607714Y-96050380D02*
X100036285Y-96050380D01*
X100322000Y-96050380D02*
X100322000Y-95050380D01*
X100226761Y-95193238D01*
X100131523Y-95288476D01*
X100036285Y-95336095D01*
X99179142Y-98910380D02*
X98702952Y-98910380D01*
X98702952Y-97910380D01*
X99512476Y-98386571D02*
X99845809Y-98386571D01*
X99988666Y-98910380D02*
X99512476Y-98910380D01*
X99512476Y-97910380D01*
X99988666Y-97910380D01*
X100417238Y-98910380D02*
X100417238Y-97910380D01*
X100655333Y-97910380D01*
X100798190Y-97958000D01*
X100893428Y-98053238D01*
X100941047Y-98148476D01*
X100988666Y-98338952D01*
X100988666Y-98481809D01*
X100941047Y-98672285D01*
X100893428Y-98767523D01*
X100798190Y-98862761D01*
X100655333Y-98910380D01*
X100417238Y-98910380D01*
D11*
X49282047Y-31562523D02*
X48858714Y-30957761D01*
X48556333Y-31562523D02*
X48556333Y-30292523D01*
X49040142Y-30292523D01*
X49161095Y-30353000D01*
X49221571Y-30413476D01*
X49282047Y-30534428D01*
X49282047Y-30715857D01*
X49221571Y-30836809D01*
X49161095Y-30897285D01*
X49040142Y-30957761D01*
X48556333Y-30957761D01*
X49644904Y-30292523D02*
X50068238Y-31562523D01*
X50491571Y-30292523D01*
X51580142Y-31562523D02*
X50854428Y-31562523D01*
X51217285Y-31562523D02*
X51217285Y-30292523D01*
X51096333Y-30473952D01*
X50975380Y-30594904D01*
X50854428Y-30655380D01*
D10*
X141160666Y-78071161D02*
X141303523Y-78118780D01*
X141541619Y-78118780D01*
X141636857Y-78071161D01*
X141684476Y-78023542D01*
X141732095Y-77928304D01*
X141732095Y-77833066D01*
X141684476Y-77737828D01*
X141636857Y-77690209D01*
X141541619Y-77642590D01*
X141351142Y-77594971D01*
X141255904Y-77547352D01*
X141208285Y-77499733D01*
X141160666Y-77404495D01*
X141160666Y-77309257D01*
X141208285Y-77214019D01*
X141255904Y-77166400D01*
X141351142Y-77118780D01*
X141589238Y-77118780D01*
X141732095Y-77166400D01*
X142065428Y-77118780D02*
X142303523Y-78118780D01*
X142494000Y-77404495D01*
X142684476Y-78118780D01*
X142922571Y-77118780D01*
X143208285Y-77118780D02*
X143827333Y-77118780D01*
X143494000Y-77499733D01*
X143636857Y-77499733D01*
X143732095Y-77547352D01*
X143779714Y-77594971D01*
X143827333Y-77690209D01*
X143827333Y-77928304D01*
X143779714Y-78023542D01*
X143732095Y-78071161D01*
X143636857Y-78118780D01*
X143351142Y-78118780D01*
X143255904Y-78071161D01*
X143208285Y-78023542D01*
X141041619Y-83868780D02*
X140708285Y-83392590D01*
X140470190Y-83868780D02*
X140470190Y-82868780D01*
X140851142Y-82868780D01*
X140946380Y-82916400D01*
X140994000Y-82964019D01*
X141041619Y-83059257D01*
X141041619Y-83202114D01*
X140994000Y-83297352D01*
X140946380Y-83344971D01*
X140851142Y-83392590D01*
X140470190Y-83392590D01*
X141470190Y-83344971D02*
X141803523Y-83344971D01*
X141946380Y-83868780D02*
X141470190Y-83868780D01*
X141470190Y-82868780D01*
X141946380Y-82868780D01*
X142327333Y-83821161D02*
X142470190Y-83868780D01*
X142708285Y-83868780D01*
X142803523Y-83821161D01*
X142851142Y-83773542D01*
X142898761Y-83678304D01*
X142898761Y-83583066D01*
X142851142Y-83487828D01*
X142803523Y-83440209D01*
X142708285Y-83392590D01*
X142517809Y-83344971D01*
X142422571Y-83297352D01*
X142374952Y-83249733D01*
X142327333Y-83154495D01*
X142327333Y-83059257D01*
X142374952Y-82964019D01*
X142422571Y-82916400D01*
X142517809Y-82868780D01*
X142755904Y-82868780D01*
X142898761Y-82916400D01*
X143327333Y-83344971D02*
X143660666Y-83344971D01*
X143803523Y-83868780D02*
X143327333Y-83868780D01*
X143327333Y-82868780D01*
X143803523Y-82868780D01*
X144089238Y-82868780D02*
X144660666Y-82868780D01*
X144374952Y-83868780D02*
X144374952Y-82868780D01*
X75866666Y-98510380D02*
X75866666Y-99224666D01*
X75819047Y-99367523D01*
X75723809Y-99462761D01*
X75580952Y-99510380D01*
X75485714Y-99510380D01*
X76771428Y-98843714D02*
X76771428Y-99510380D01*
X76533333Y-98462761D02*
X76295238Y-99177047D01*
X76914285Y-99177047D01*
X117289342Y-38831780D02*
X116956009Y-38355590D01*
X116717914Y-38831780D02*
X116717914Y-37831780D01*
X117098866Y-37831780D01*
X117194104Y-37879400D01*
X117241723Y-37927019D01*
X117289342Y-38022257D01*
X117289342Y-38165114D01*
X117241723Y-38260352D01*
X117194104Y-38307971D01*
X117098866Y-38355590D01*
X116717914Y-38355590D01*
X117670295Y-37927019D02*
X117717914Y-37879400D01*
X117813152Y-37831780D01*
X118051247Y-37831780D01*
X118146485Y-37879400D01*
X118194104Y-37927019D01*
X118241723Y-38022257D01*
X118241723Y-38117495D01*
X118194104Y-38260352D01*
X117622676Y-38831780D01*
X118241723Y-38831780D01*
X118860771Y-37831780D02*
X118956009Y-37831780D01*
X119051247Y-37879400D01*
X119098866Y-37927019D01*
X119146485Y-38022257D01*
X119194104Y-38212733D01*
X119194104Y-38450828D01*
X119146485Y-38641304D01*
X119098866Y-38736542D01*
X119051247Y-38784161D01*
X118956009Y-38831780D01*
X118860771Y-38831780D01*
X118765533Y-38784161D01*
X118717914Y-38736542D01*
X118670295Y-38641304D01*
X118622676Y-38450828D01*
X118622676Y-38212733D01*
X118670295Y-38022257D01*
X118717914Y-37927019D01*
X118765533Y-37879400D01*
X118860771Y-37831780D01*
X140327142Y-74239380D02*
X139993809Y-73763190D01*
X139755714Y-74239380D02*
X139755714Y-73239380D01*
X140136666Y-73239380D01*
X140231904Y-73287000D01*
X140279523Y-73334619D01*
X140327142Y-73429857D01*
X140327142Y-73572714D01*
X140279523Y-73667952D01*
X140231904Y-73715571D01*
X140136666Y-73763190D01*
X139755714Y-73763190D01*
X141279523Y-74239380D02*
X140708095Y-74239380D01*
X140993809Y-74239380D02*
X140993809Y-73239380D01*
X140898571Y-73382238D01*
X140803333Y-73477476D01*
X140708095Y-73525095D01*
X142136666Y-73572714D02*
X142136666Y-74239380D01*
X141898571Y-73191761D02*
X141660476Y-73906047D01*
X142279523Y-73906047D01*
X103973333Y-98910380D02*
X103640000Y-98434190D01*
X103401904Y-98910380D02*
X103401904Y-97910380D01*
X103782857Y-97910380D01*
X103878095Y-97958000D01*
X103925714Y-98005619D01*
X103973333Y-98100857D01*
X103973333Y-98243714D01*
X103925714Y-98338952D01*
X103878095Y-98386571D01*
X103782857Y-98434190D01*
X103401904Y-98434190D01*
X104306666Y-97910380D02*
X104973333Y-97910380D01*
X104544761Y-98910380D01*
X130675142Y-90368380D02*
X130341809Y-89892190D01*
X130103714Y-90368380D02*
X130103714Y-89368380D01*
X130484666Y-89368380D01*
X130579904Y-89416000D01*
X130627523Y-89463619D01*
X130675142Y-89558857D01*
X130675142Y-89701714D01*
X130627523Y-89796952D01*
X130579904Y-89844571D01*
X130484666Y-89892190D01*
X130103714Y-89892190D01*
X131627523Y-90368380D02*
X131056095Y-90368380D01*
X131341809Y-90368380D02*
X131341809Y-89368380D01*
X131246571Y-89511238D01*
X131151333Y-89606476D01*
X131056095Y-89654095D01*
X131960857Y-89368380D02*
X132627523Y-89368380D01*
X132198952Y-90368380D01*
X77747904Y-35942380D02*
X77747904Y-34942380D01*
X77986000Y-34942380D01*
X78128857Y-34990000D01*
X78224095Y-35085238D01*
X78271714Y-35180476D01*
X78319333Y-35370952D01*
X78319333Y-35513809D01*
X78271714Y-35704285D01*
X78224095Y-35799523D01*
X78128857Y-35894761D01*
X77986000Y-35942380D01*
X77747904Y-35942380D01*
X79224095Y-34942380D02*
X78747904Y-34942380D01*
X78700285Y-35418571D01*
X78747904Y-35370952D01*
X78843142Y-35323333D01*
X79081238Y-35323333D01*
X79176476Y-35370952D01*
X79224095Y-35418571D01*
X79271714Y-35513809D01*
X79271714Y-35751904D01*
X79224095Y-35847142D01*
X79176476Y-35894761D01*
X79081238Y-35942380D01*
X78843142Y-35942380D01*
X78747904Y-35894761D01*
X78700285Y-35847142D01*
X82034095Y-35572380D02*
X82034095Y-34572380D01*
X82605523Y-35572380D02*
X82176952Y-35000952D01*
X82605523Y-34572380D02*
X82034095Y-35143809D01*
D11*
X52644523Y-49118761D02*
X51374523Y-49118761D01*
X52523571Y-47788285D02*
X52584047Y-47848761D01*
X52644523Y-48030190D01*
X52644523Y-48151142D01*
X52584047Y-48332571D01*
X52463095Y-48453523D01*
X52342142Y-48514000D01*
X52100238Y-48574476D01*
X51918809Y-48574476D01*
X51676904Y-48514000D01*
X51555952Y-48453523D01*
X51435000Y-48332571D01*
X51374523Y-48151142D01*
X51374523Y-48030190D01*
X51435000Y-47848761D01*
X51495476Y-47788285D01*
X52644523Y-46578761D02*
X52644523Y-47304476D01*
X52644523Y-46941619D02*
X51374523Y-46941619D01*
X51555952Y-47062571D01*
X51676904Y-47183523D01*
X51737380Y-47304476D01*
D10*
X43484895Y-87746980D02*
X43484895Y-88556504D01*
X43532514Y-88651742D01*
X43580133Y-88699361D01*
X43675371Y-88746980D01*
X43865847Y-88746980D01*
X43961085Y-88699361D01*
X44008704Y-88651742D01*
X44056323Y-88556504D01*
X44056323Y-87746980D01*
X44484895Y-87842219D02*
X44532514Y-87794600D01*
X44627752Y-87746980D01*
X44865847Y-87746980D01*
X44961085Y-87794600D01*
X45008704Y-87842219D01*
X45056323Y-87937457D01*
X45056323Y-88032695D01*
X45008704Y-88175552D01*
X44437276Y-88746980D01*
X45056323Y-88746980D01*
X94608242Y-69539142D02*
X94560623Y-69586761D01*
X94417766Y-69634380D01*
X94322528Y-69634380D01*
X94179671Y-69586761D01*
X94084433Y-69491523D01*
X94036814Y-69396285D01*
X93989195Y-69205809D01*
X93989195Y-69062952D01*
X94036814Y-68872476D01*
X94084433Y-68777238D01*
X94179671Y-68682000D01*
X94322528Y-68634380D01*
X94417766Y-68634380D01*
X94560623Y-68682000D01*
X94608242Y-68729619D01*
X94989195Y-68729619D02*
X95036814Y-68682000D01*
X95132052Y-68634380D01*
X95370147Y-68634380D01*
X95465385Y-68682000D01*
X95513004Y-68729619D01*
X95560623Y-68824857D01*
X95560623Y-68920095D01*
X95513004Y-69062952D01*
X94941576Y-69634380D01*
X95560623Y-69634380D01*
X96179671Y-68634380D02*
X96274909Y-68634380D01*
X96370147Y-68682000D01*
X96417766Y-68729619D01*
X96465385Y-68824857D01*
X96513004Y-69015333D01*
X96513004Y-69253428D01*
X96465385Y-69443904D01*
X96417766Y-69539142D01*
X96370147Y-69586761D01*
X96274909Y-69634380D01*
X96179671Y-69634380D01*
X96084433Y-69586761D01*
X96036814Y-69539142D01*
X95989195Y-69443904D01*
X95941576Y-69253428D01*
X95941576Y-69015333D01*
X95989195Y-68824857D01*
X96036814Y-68729619D01*
X96084433Y-68682000D01*
X96179671Y-68634380D01*
X123126666Y-95908761D02*
X123269523Y-95956380D01*
X123507619Y-95956380D01*
X123602857Y-95908761D01*
X123650476Y-95861142D01*
X123698095Y-95765904D01*
X123698095Y-95670666D01*
X123650476Y-95575428D01*
X123602857Y-95527809D01*
X123507619Y-95480190D01*
X123317142Y-95432571D01*
X123221904Y-95384952D01*
X123174285Y-95337333D01*
X123126666Y-95242095D01*
X123126666Y-95146857D01*
X123174285Y-95051619D01*
X123221904Y-95004000D01*
X123317142Y-94956380D01*
X123555238Y-94956380D01*
X123698095Y-95004000D01*
X124031428Y-94956380D02*
X124269523Y-95956380D01*
X124460000Y-95242095D01*
X124650476Y-95956380D01*
X124888571Y-94956380D01*
X125698095Y-95289714D02*
X125698095Y-95956380D01*
X125460000Y-94908761D02*
X125221904Y-95623047D01*
X125840952Y-95623047D01*
X120840952Y-97956380D02*
X120840952Y-98765904D01*
X120888571Y-98861142D01*
X120936190Y-98908761D01*
X121031428Y-98956380D01*
X121221904Y-98956380D01*
X121317142Y-98908761D01*
X121364761Y-98861142D01*
X121412380Y-98765904D01*
X121412380Y-97956380D01*
X121840952Y-98908761D02*
X121983809Y-98956380D01*
X122221904Y-98956380D01*
X122317142Y-98908761D01*
X122364761Y-98861142D01*
X122412380Y-98765904D01*
X122412380Y-98670666D01*
X122364761Y-98575428D01*
X122317142Y-98527809D01*
X122221904Y-98480190D01*
X122031428Y-98432571D01*
X121936190Y-98384952D01*
X121888571Y-98337333D01*
X121840952Y-98242095D01*
X121840952Y-98146857D01*
X121888571Y-98051619D01*
X121936190Y-98004000D01*
X122031428Y-97956380D01*
X122269523Y-97956380D01*
X122412380Y-98004000D01*
X122840952Y-98432571D02*
X123174285Y-98432571D01*
X123317142Y-98956380D02*
X122840952Y-98956380D01*
X122840952Y-97956380D01*
X123317142Y-97956380D01*
X124317142Y-98956380D02*
X123983809Y-98480190D01*
X123745714Y-98956380D02*
X123745714Y-97956380D01*
X124126666Y-97956380D01*
X124221904Y-98004000D01*
X124269523Y-98051619D01*
X124317142Y-98146857D01*
X124317142Y-98289714D01*
X124269523Y-98384952D01*
X124221904Y-98432571D01*
X124126666Y-98480190D01*
X123745714Y-98480190D01*
X124507619Y-99051619D02*
X125269523Y-99051619D01*
X125460000Y-98908761D02*
X125602857Y-98956380D01*
X125840952Y-98956380D01*
X125936190Y-98908761D01*
X125983809Y-98861142D01*
X126031428Y-98765904D01*
X126031428Y-98670666D01*
X125983809Y-98575428D01*
X125936190Y-98527809D01*
X125840952Y-98480190D01*
X125650476Y-98432571D01*
X125555238Y-98384952D01*
X125507619Y-98337333D01*
X125460000Y-98242095D01*
X125460000Y-98146857D01*
X125507619Y-98051619D01*
X125555238Y-98004000D01*
X125650476Y-97956380D01*
X125888571Y-97956380D01*
X126031428Y-98004000D01*
X126364761Y-97956380D02*
X126602857Y-98956380D01*
X126793333Y-98242095D01*
X126983809Y-98956380D01*
X127221904Y-97956380D01*
X128126666Y-98956380D02*
X127555238Y-98956380D01*
X127840952Y-98956380D02*
X127840952Y-97956380D01*
X127745714Y-98099238D01*
X127650476Y-98194476D01*
X127555238Y-98242095D01*
X93241904Y-45918380D02*
X93241904Y-44918380D01*
X93480000Y-44918380D01*
X93622857Y-44966000D01*
X93718095Y-45061238D01*
X93765714Y-45156476D01*
X93813333Y-45346952D01*
X93813333Y-45489809D01*
X93765714Y-45680285D01*
X93718095Y-45775523D01*
X93622857Y-45870761D01*
X93480000Y-45918380D01*
X93241904Y-45918380D01*
X94670476Y-45251714D02*
X94670476Y-45918380D01*
X94432380Y-44870761D02*
X94194285Y-45585047D01*
X94813333Y-45585047D01*
X89908095Y-46104380D02*
X89908095Y-45104380D01*
X90479523Y-46104380D02*
X90050952Y-45532952D01*
X90479523Y-45104380D02*
X89908095Y-45675809D01*
D11*
X107980238Y-33594523D02*
X107980238Y-32324523D01*
X109310714Y-33473571D02*
X109250238Y-33534047D01*
X109068809Y-33594523D01*
X108947857Y-33594523D01*
X108766428Y-33534047D01*
X108645476Y-33413095D01*
X108585000Y-33292142D01*
X108524523Y-33050238D01*
X108524523Y-32868809D01*
X108585000Y-32626904D01*
X108645476Y-32505952D01*
X108766428Y-32385000D01*
X108947857Y-32324523D01*
X109068809Y-32324523D01*
X109250238Y-32385000D01*
X109310714Y-32445476D01*
X110399285Y-32324523D02*
X110157380Y-32324523D01*
X110036428Y-32385000D01*
X109975952Y-32445476D01*
X109855000Y-32626904D01*
X109794523Y-32868809D01*
X109794523Y-33352619D01*
X109855000Y-33473571D01*
X109915476Y-33534047D01*
X110036428Y-33594523D01*
X110278333Y-33594523D01*
X110399285Y-33534047D01*
X110459761Y-33473571D01*
X110520238Y-33352619D01*
X110520238Y-33050238D01*
X110459761Y-32929285D01*
X110399285Y-32868809D01*
X110278333Y-32808333D01*
X110036428Y-32808333D01*
X109915476Y-32868809D01*
X109855000Y-32929285D01*
X109794523Y-33050238D01*
D10*
X102787742Y-73871057D02*
X102835361Y-73918676D01*
X102882980Y-74061533D01*
X102882980Y-74156771D01*
X102835361Y-74299628D01*
X102740123Y-74394866D01*
X102644885Y-74442485D01*
X102454409Y-74490104D01*
X102311552Y-74490104D01*
X102121076Y-74442485D01*
X102025838Y-74394866D01*
X101930600Y-74299628D01*
X101882980Y-74156771D01*
X101882980Y-74061533D01*
X101930600Y-73918676D01*
X101978219Y-73871057D01*
X102882980Y-72918676D02*
X102882980Y-73490104D01*
X102882980Y-73204390D02*
X101882980Y-73204390D01*
X102025838Y-73299628D01*
X102121076Y-73394866D01*
X102168695Y-73490104D01*
X102882980Y-72442485D02*
X102882980Y-72252009D01*
X102835361Y-72156771D01*
X102787742Y-72109152D01*
X102644885Y-72013914D01*
X102454409Y-71966295D01*
X102073457Y-71966295D01*
X101978219Y-72013914D01*
X101930600Y-72061533D01*
X101882980Y-72156771D01*
X101882980Y-72347247D01*
X101930600Y-72442485D01*
X101978219Y-72490104D01*
X102073457Y-72537723D01*
X102311552Y-72537723D01*
X102406790Y-72490104D01*
X102454409Y-72442485D01*
X102502028Y-72347247D01*
X102502028Y-72156771D01*
X102454409Y-72061533D01*
X102406790Y-72013914D01*
X102311552Y-71966295D01*
X97020142Y-38933380D02*
X96686809Y-38457190D01*
X96448714Y-38933380D02*
X96448714Y-37933380D01*
X96829666Y-37933380D01*
X96924904Y-37981000D01*
X96972523Y-38028619D01*
X97020142Y-38123857D01*
X97020142Y-38266714D01*
X96972523Y-38361952D01*
X96924904Y-38409571D01*
X96829666Y-38457190D01*
X96448714Y-38457190D01*
X97401095Y-38028619D02*
X97448714Y-37981000D01*
X97543952Y-37933380D01*
X97782047Y-37933380D01*
X97877285Y-37981000D01*
X97924904Y-38028619D01*
X97972523Y-38123857D01*
X97972523Y-38219095D01*
X97924904Y-38361952D01*
X97353476Y-38933380D01*
X97972523Y-38933380D01*
X98353476Y-38028619D02*
X98401095Y-37981000D01*
X98496333Y-37933380D01*
X98734428Y-37933380D01*
X98829666Y-37981000D01*
X98877285Y-38028619D01*
X98924904Y-38123857D01*
X98924904Y-38219095D01*
X98877285Y-38361952D01*
X98305857Y-38933380D01*
X98924904Y-38933380D01*
X107180142Y-38552380D02*
X106846809Y-38076190D01*
X106608714Y-38552380D02*
X106608714Y-37552380D01*
X106989666Y-37552380D01*
X107084904Y-37600000D01*
X107132523Y-37647619D01*
X107180142Y-37742857D01*
X107180142Y-37885714D01*
X107132523Y-37980952D01*
X107084904Y-38028571D01*
X106989666Y-38076190D01*
X106608714Y-38076190D01*
X107561095Y-37647619D02*
X107608714Y-37600000D01*
X107703952Y-37552380D01*
X107942047Y-37552380D01*
X108037285Y-37600000D01*
X108084904Y-37647619D01*
X108132523Y-37742857D01*
X108132523Y-37838095D01*
X108084904Y-37980952D01*
X107513476Y-38552380D01*
X108132523Y-38552380D01*
X109084904Y-38552380D02*
X108513476Y-38552380D01*
X108799190Y-38552380D02*
X108799190Y-37552380D01*
X108703952Y-37695238D01*
X108608714Y-37790476D01*
X108513476Y-37838095D01*
D11*
X100449523Y-68989761D02*
X99179523Y-68989761D01*
X100328571Y-67659285D02*
X100389047Y-67719761D01*
X100449523Y-67901190D01*
X100449523Y-68022142D01*
X100389047Y-68203571D01*
X100268095Y-68324523D01*
X100147142Y-68385000D01*
X99905238Y-68445476D01*
X99723809Y-68445476D01*
X99481904Y-68385000D01*
X99360952Y-68324523D01*
X99240000Y-68203571D01*
X99179523Y-68022142D01*
X99179523Y-67901190D01*
X99240000Y-67719761D01*
X99300476Y-67659285D01*
X99300476Y-67175476D02*
X99240000Y-67115000D01*
X99179523Y-66994047D01*
X99179523Y-66691666D01*
X99240000Y-66570714D01*
X99300476Y-66510238D01*
X99421428Y-66449761D01*
X99542380Y-66449761D01*
X99723809Y-66510238D01*
X100449523Y-67235952D01*
X100449523Y-66449761D01*
X45447857Y-62525123D02*
X45447857Y-61255123D01*
X45931666Y-61255123D01*
X46052619Y-61315600D01*
X46113095Y-61376076D01*
X46173571Y-61497028D01*
X46173571Y-61678457D01*
X46113095Y-61799409D01*
X46052619Y-61859885D01*
X45931666Y-61920361D01*
X45447857Y-61920361D01*
X46657380Y-62464647D02*
X46838809Y-62525123D01*
X47141190Y-62525123D01*
X47262142Y-62464647D01*
X47322619Y-62404171D01*
X47383095Y-62283219D01*
X47383095Y-62162266D01*
X47322619Y-62041314D01*
X47262142Y-61980838D01*
X47141190Y-61920361D01*
X46899285Y-61859885D01*
X46778333Y-61799409D01*
X46717857Y-61738933D01*
X46657380Y-61617980D01*
X46657380Y-61497028D01*
X46717857Y-61376076D01*
X46778333Y-61315600D01*
X46899285Y-61255123D01*
X47201666Y-61255123D01*
X47383095Y-61315600D01*
X48592619Y-62525123D02*
X47866904Y-62525123D01*
X48229761Y-62525123D02*
X48229761Y-61255123D01*
X48108809Y-61436552D01*
X47987857Y-61557504D01*
X47866904Y-61617980D01*
D10*
X59015333Y-67413142D02*
X58967714Y-67460761D01*
X58824857Y-67508380D01*
X58729619Y-67508380D01*
X58586761Y-67460761D01*
X58491523Y-67365523D01*
X58443904Y-67270285D01*
X58396285Y-67079809D01*
X58396285Y-66936952D01*
X58443904Y-66746476D01*
X58491523Y-66651238D01*
X58586761Y-66556000D01*
X58729619Y-66508380D01*
X58824857Y-66508380D01*
X58967714Y-66556000D01*
X59015333Y-66603619D01*
X59348666Y-66508380D02*
X60015333Y-66508380D01*
X59586761Y-67508380D01*
X60412333Y-50236380D02*
X60079000Y-49760190D01*
X59840904Y-50236380D02*
X59840904Y-49236380D01*
X60221857Y-49236380D01*
X60317095Y-49284000D01*
X60364714Y-49331619D01*
X60412333Y-49426857D01*
X60412333Y-49569714D01*
X60364714Y-49664952D01*
X60317095Y-49712571D01*
X60221857Y-49760190D01*
X59840904Y-49760190D01*
X60745666Y-49236380D02*
X61364714Y-49236380D01*
X61031380Y-49617333D01*
X61174238Y-49617333D01*
X61269476Y-49664952D01*
X61317095Y-49712571D01*
X61364714Y-49807809D01*
X61364714Y-50045904D01*
X61317095Y-50141142D01*
X61269476Y-50188761D01*
X61174238Y-50236380D01*
X60888523Y-50236380D01*
X60793285Y-50188761D01*
X60745666Y-50141142D01*
X75530333Y-37444380D02*
X75054142Y-37444380D01*
X75054142Y-36444380D01*
X76387476Y-37444380D02*
X75816047Y-37444380D01*
X76101761Y-37444380D02*
X76101761Y-36444380D01*
X76006523Y-36587238D01*
X75911285Y-36682476D01*
X75816047Y-36730095D01*
X27493933Y-68327542D02*
X27446314Y-68375161D01*
X27303457Y-68422780D01*
X27208219Y-68422780D01*
X27065361Y-68375161D01*
X26970123Y-68279923D01*
X26922504Y-68184685D01*
X26874885Y-67994209D01*
X26874885Y-67851352D01*
X26922504Y-67660876D01*
X26970123Y-67565638D01*
X27065361Y-67470400D01*
X27208219Y-67422780D01*
X27303457Y-67422780D01*
X27446314Y-67470400D01*
X27493933Y-67518019D01*
X28398695Y-67422780D02*
X27922504Y-67422780D01*
X27874885Y-67898971D01*
X27922504Y-67851352D01*
X28017742Y-67803733D01*
X28255838Y-67803733D01*
X28351076Y-67851352D01*
X28398695Y-67898971D01*
X28446314Y-67994209D01*
X28446314Y-68232304D01*
X28398695Y-68327542D01*
X28351076Y-68375161D01*
X28255838Y-68422780D01*
X28017742Y-68422780D01*
X27922504Y-68375161D01*
X27874885Y-68327542D01*
X58761333Y-73350380D02*
X58428000Y-72874190D01*
X58189904Y-73350380D02*
X58189904Y-72350380D01*
X58570857Y-72350380D01*
X58666095Y-72398000D01*
X58713714Y-72445619D01*
X58761333Y-72540857D01*
X58761333Y-72683714D01*
X58713714Y-72778952D01*
X58666095Y-72826571D01*
X58570857Y-72874190D01*
X58189904Y-72874190D01*
X59618476Y-72350380D02*
X59428000Y-72350380D01*
X59332761Y-72398000D01*
X59285142Y-72445619D01*
X59189904Y-72588476D01*
X59142285Y-72778952D01*
X59142285Y-73159904D01*
X59189904Y-73255142D01*
X59237523Y-73302761D01*
X59332761Y-73350380D01*
X59523238Y-73350380D01*
X59618476Y-73302761D01*
X59666095Y-73255142D01*
X59713714Y-73159904D01*
X59713714Y-72921809D01*
X59666095Y-72826571D01*
X59618476Y-72778952D01*
X59523238Y-72731333D01*
X59332761Y-72731333D01*
X59237523Y-72778952D01*
X59189904Y-72826571D01*
X59142285Y-72921809D01*
X105822809Y-85457190D02*
X105822809Y-85933380D01*
X105489476Y-84933380D02*
X105822809Y-85457190D01*
X106156142Y-84933380D01*
X107013285Y-85933380D02*
X106441857Y-85933380D01*
X106727571Y-85933380D02*
X106727571Y-84933380D01*
X106632333Y-85076238D01*
X106537095Y-85171476D01*
X106441857Y-85219095D01*
X25608266Y-41676780D02*
X25608266Y-42391066D01*
X25560647Y-42533923D01*
X25465409Y-42629161D01*
X25322552Y-42676780D01*
X25227314Y-42676780D01*
X26608266Y-42676780D02*
X26036838Y-42676780D01*
X26322552Y-42676780D02*
X26322552Y-41676780D01*
X26227314Y-41819638D01*
X26132076Y-41914876D01*
X26036838Y-41962495D01*
D11*
X106307380Y-50879523D02*
X106307380Y-51907619D01*
X106367857Y-52028571D01*
X106428333Y-52089047D01*
X106549285Y-52149523D01*
X106791190Y-52149523D01*
X106912142Y-52089047D01*
X106972619Y-52028571D01*
X107033095Y-51907619D01*
X107033095Y-50879523D01*
X108182142Y-51302857D02*
X108182142Y-52149523D01*
X107879761Y-50819047D02*
X107577380Y-51726190D01*
X108363571Y-51726190D01*
D10*
X73001142Y-28328857D02*
X73048761Y-28376476D01*
X73096380Y-28519333D01*
X73096380Y-28614571D01*
X73048761Y-28757428D01*
X72953523Y-28852666D01*
X72858285Y-28900285D01*
X72667809Y-28947904D01*
X72524952Y-28947904D01*
X72334476Y-28900285D01*
X72239238Y-28852666D01*
X72144000Y-28757428D01*
X72096380Y-28614571D01*
X72096380Y-28519333D01*
X72144000Y-28376476D01*
X72191619Y-28328857D01*
X73096380Y-27376476D02*
X73096380Y-27947904D01*
X73096380Y-27662190D02*
X72096380Y-27662190D01*
X72239238Y-27757428D01*
X72334476Y-27852666D01*
X72382095Y-27947904D01*
X72096380Y-26471714D02*
X72096380Y-26947904D01*
X72572571Y-26995523D01*
X72524952Y-26947904D01*
X72477333Y-26852666D01*
X72477333Y-26614571D01*
X72524952Y-26519333D01*
X72572571Y-26471714D01*
X72667809Y-26424095D01*
X72905904Y-26424095D01*
X73001142Y-26471714D01*
X73048761Y-26519333D01*
X73096380Y-26614571D01*
X73096380Y-26852666D01*
X73048761Y-26947904D01*
X73001142Y-26995523D01*
D12*
X31079724Y-94977500D02*
X30570276Y-94977500D01*
X31079724Y-96022500D02*
X30570276Y-96022500D01*
X89470000Y-95798000D02*
X89470000Y-94648000D01*
X88420000Y-94648000D02*
X88420000Y-93658000D01*
X83250000Y-94648000D02*
X84300000Y-94648000D01*
X89470000Y-94648000D02*
X88420000Y-94648000D01*
X83250000Y-95798000D02*
X83250000Y-94648000D01*
X88300000Y-97768000D02*
X84420000Y-97768000D01*
X99980533Y-85092000D02*
X100273067Y-85092000D01*
X99980533Y-84072000D02*
X100273067Y-84072000D01*
X139526000Y-93644000D02*
X139526000Y-93894000D01*
X139526000Y-97364000D02*
X144446000Y-97364000D01*
X144446000Y-93644000D02*
X144446000Y-93894000D01*
X144446000Y-97114000D02*
X144446000Y-97364000D01*
X139526000Y-97114000D02*
X139526000Y-97364000D01*
X144446000Y-93644000D02*
X139526000Y-93644000D01*
X127634276Y-36053500D02*
X128143724Y-36053500D01*
X127634276Y-37098500D02*
X128143724Y-37098500D01*
X84313500Y-73151276D02*
X84313500Y-73660724D01*
X85358500Y-73151276D02*
X85358500Y-73660724D01*
X30988724Y-94248500D02*
X30479276Y-94248500D01*
X30988724Y-93203500D02*
X30479276Y-93203500D01*
X30988724Y-90917500D02*
X30479276Y-90917500D01*
X30988724Y-91962500D02*
X30479276Y-91962500D01*
X31235867Y-71401400D02*
X30943333Y-71401400D01*
X31235867Y-70381400D02*
X30943333Y-70381400D01*
X50653733Y-83310000D02*
X50946267Y-83310000D01*
X50653733Y-84330000D02*
X50946267Y-84330000D01*
X57149276Y-46213500D02*
X57658724Y-46213500D01*
X57149276Y-47258500D02*
X57658724Y-47258500D01*
X135556000Y-93644000D02*
X135556000Y-93894000D01*
X130636000Y-93644000D02*
X130636000Y-93894000D01*
X135556000Y-97114000D02*
X135556000Y-97364000D01*
X130636000Y-97114000D02*
X130636000Y-97364000D01*
X135556000Y-93644000D02*
X130636000Y-93644000D01*
X130636000Y-97364000D02*
X135556000Y-97364000D01*
X80000000Y-74894689D02*
X79681802Y-75212887D01*
X80000000Y-85105311D02*
X80318198Y-84787113D01*
X84787113Y-79681802D02*
X85105311Y-80000000D01*
X74894689Y-80000000D02*
X75212887Y-79681802D01*
X80318198Y-75212887D02*
X80000000Y-74894689D01*
X85105311Y-80000000D02*
X84787113Y-80318198D01*
X79681802Y-84787113D02*
X80000000Y-85105311D01*
X75212887Y-80318198D02*
X74894689Y-80000000D01*
X79681802Y-75212887D02*
X78769634Y-74300719D01*
X95527400Y-66008467D02*
X95527400Y-65715933D01*
X96547400Y-66008467D02*
X96547400Y-65715933D01*
X80520000Y-72536267D02*
X80520000Y-72243733D01*
X79500000Y-72536267D02*
X79500000Y-72243733D01*
X93913726Y-62177250D02*
X94423174Y-62177250D01*
X93913726Y-63222250D02*
X94423174Y-63222250D01*
D13*
X103325000Y-69375000D02*
X103325000Y-66175000D01*
X108225000Y-69375000D02*
X103325000Y-69375000D01*
X103195000Y-71250000D02*
X103195000Y-69725000D01*
X103325000Y-66175000D02*
X108225000Y-66175000D01*
X108225000Y-66175000D02*
X108225000Y-69375000D01*
D12*
X121920724Y-36307500D02*
X121411276Y-36307500D01*
X121920724Y-37352500D02*
X121411276Y-37352500D01*
X55733733Y-69340000D02*
X56026267Y-69340000D01*
X55733733Y-70360000D02*
X56026267Y-70360000D01*
X56134724Y-29449500D02*
X55625276Y-29449500D01*
X56134724Y-30494500D02*
X55625276Y-30494500D01*
X114431600Y-71305000D02*
X114431600Y-68645000D01*
X111831600Y-69975000D02*
X111831600Y-68645000D01*
X111831600Y-68645000D02*
X113161600Y-68645000D01*
X114431600Y-68645000D02*
X137351600Y-68645000D01*
X114431600Y-71305000D02*
X137351600Y-71305000D01*
X137351600Y-71305000D02*
X137351600Y-68645000D01*
D13*
X127465000Y-31145000D02*
X131615000Y-31145000D01*
X127465000Y-34895000D02*
X127465000Y-31145000D01*
X131615000Y-31145000D02*
X131615000Y-34895000D01*
X131615000Y-34895000D02*
X127465000Y-34895000D01*
X133615000Y-34990000D02*
X131965000Y-34990000D01*
D12*
X38212500Y-35305276D02*
X38212500Y-35814724D01*
X39257500Y-35305276D02*
X39257500Y-35814724D01*
X50501333Y-80973200D02*
X50793867Y-80973200D01*
X50501333Y-81993200D02*
X50793867Y-81993200D01*
X43180000Y-34000000D02*
X41505000Y-34000000D01*
X43180000Y-37120000D02*
X42530000Y-37120000D01*
X43180000Y-34000000D02*
X43830000Y-34000000D01*
X43180000Y-37120000D02*
X43830000Y-37120000D01*
X134766267Y-92712000D02*
X134473733Y-92712000D01*
X134766267Y-91692000D02*
X134473733Y-91692000D01*
X49274000Y-41802267D02*
X49274000Y-41509733D01*
X50294000Y-41802267D02*
X50294000Y-41509733D01*
X114672000Y-96293000D02*
X114672000Y-97763000D01*
X117132000Y-96293000D02*
X114672000Y-96293000D01*
X114672000Y-97763000D02*
X117132000Y-97763000D01*
X54269200Y-77216000D02*
X54269200Y-77866000D01*
X57389200Y-77216000D02*
X57389200Y-77866000D01*
X54269200Y-77216000D02*
X54269200Y-76566000D01*
X57389200Y-77216000D02*
X57389200Y-75541000D01*
X56095000Y-38934000D02*
X57605000Y-38934000D01*
X60736000Y-42204000D02*
X60736000Y-31964000D01*
X56095000Y-31964000D02*
X60736000Y-31964000D01*
X56095000Y-42204000D02*
X56095000Y-31964000D01*
X57605000Y-42204000D02*
X57605000Y-31964000D01*
X56095000Y-42204000D02*
X60736000Y-42204000D01*
X56095000Y-35233000D02*
X57605000Y-35233000D01*
X112522724Y-96505500D02*
X112013276Y-96505500D01*
X112522724Y-97550500D02*
X112013276Y-97550500D01*
X43714000Y-50968323D02*
X38836000Y-50968323D01*
X46352000Y-46687323D02*
X36198000Y-46687323D01*
X40034000Y-48688323D02*
X36691000Y-48688323D01*
X45264000Y-49648323D02*
X37286000Y-49648323D01*
X40034000Y-48768323D02*
X36730000Y-48768323D01*
X44753000Y-50208323D02*
X37797000Y-50208323D01*
X46279000Y-47368323D02*
X42516000Y-47368323D01*
X46337000Y-46927323D02*
X36213000Y-46927323D01*
X46240000Y-47568323D02*
X42516000Y-47568323D01*
X40034000Y-48088323D02*
X36451000Y-48088323D01*
X44150000Y-41007677D02*
X44150000Y-42007677D01*
X45469000Y-49368323D02*
X42516000Y-49368323D01*
X40034000Y-47448323D02*
X36285000Y-47448323D01*
X40034000Y-47328323D02*
X36264000Y-47328323D01*
X46355000Y-46527323D02*
X36195000Y-46527323D01*
X40034000Y-47087323D02*
X36230000Y-47087323D01*
X46249000Y-47528323D02*
X42516000Y-47528323D01*
X40034000Y-47648323D02*
X36328000Y-47648323D01*
X42785000Y-51368323D02*
X39765000Y-51368323D01*
X40034000Y-49368323D02*
X37081000Y-49368323D01*
X44667000Y-50288323D02*
X37883000Y-50288323D01*
X42505000Y-51448323D02*
X40045000Y-51448323D01*
X45355000Y-49528323D02*
X37195000Y-49528323D01*
X40034000Y-47808323D02*
X36368000Y-47808323D01*
X42337000Y-51488323D02*
X40213000Y-51488323D01*
X40034000Y-47167323D02*
X36240000Y-47167323D01*
X43484000Y-51088323D02*
X39066000Y-51088323D01*
X40034000Y-47848323D02*
X36378000Y-47848323D01*
X40034000Y-49048323D02*
X36880000Y-49048323D01*
X44481000Y-50448323D02*
X38069000Y-50448323D01*
X44711000Y-50248323D02*
X37839000Y-50248323D01*
X46058000Y-48208323D02*
X42516000Y-48208323D01*
X46043000Y-48248323D02*
X42516000Y-48248323D01*
X46355000Y-46487323D02*
X36195000Y-46487323D01*
X46293000Y-47288323D02*
X42516000Y-47288323D01*
X43121000Y-51248323D02*
X39429000Y-51248323D01*
X40034000Y-47047323D02*
X36225000Y-47047323D01*
X40034000Y-47928323D02*
X36401000Y-47928323D01*
X46286000Y-47328323D02*
X42516000Y-47328323D01*
X42653000Y-51408323D02*
X39897000Y-51408323D01*
X44329000Y-50568323D02*
X38221000Y-50568323D01*
X40034000Y-47688323D02*
X36337000Y-47688323D01*
X46029000Y-48288323D02*
X42516000Y-48288323D01*
X45232000Y-49688323D02*
X37318000Y-49688323D01*
X40034000Y-48568323D02*
X36636000Y-48568323D01*
X46086000Y-48128323D02*
X42516000Y-48128323D01*
X45998000Y-48368323D02*
X42516000Y-48368323D01*
X45982000Y-48408323D02*
X42516000Y-48408323D01*
X40034000Y-48728323D02*
X36711000Y-48728323D01*
X46072000Y-48168323D02*
X42516000Y-48168323D01*
X40034000Y-48368323D02*
X36552000Y-48368323D01*
X45496000Y-49328323D02*
X42516000Y-49328323D01*
X42137000Y-51528323D02*
X40413000Y-51528323D01*
X43017000Y-51288323D02*
X39533000Y-51288323D01*
X40034000Y-49008323D02*
X36858000Y-49008323D01*
X46354000Y-46607323D02*
X36196000Y-46607323D01*
X46257000Y-47488323D02*
X42516000Y-47488323D01*
X44431000Y-50488323D02*
X38119000Y-50488323D01*
X46149000Y-47928323D02*
X42516000Y-47928323D01*
X46160000Y-47888323D02*
X42516000Y-47888323D01*
X43920000Y-50848323D02*
X38630000Y-50848323D01*
X46310000Y-47167323D02*
X42516000Y-47167323D01*
X45325000Y-49568323D02*
X37225000Y-49568323D01*
X44381000Y-50528323D02*
X38169000Y-50528323D01*
X43854000Y-50888323D02*
X38696000Y-50888323D01*
X40034000Y-49088323D02*
X36904000Y-49088323D01*
X40034000Y-48608323D02*
X36654000Y-48608323D01*
X45573000Y-49208323D02*
X42516000Y-49208323D01*
X46265000Y-47448323D02*
X42516000Y-47448323D01*
X45800000Y-48808323D02*
X42516000Y-48808323D01*
X40034000Y-48968323D02*
X36835000Y-48968323D01*
X46350000Y-46727323D02*
X36200000Y-46727323D01*
X45670000Y-49048323D02*
X42516000Y-49048323D01*
X44876000Y-50088323D02*
X37674000Y-50088323D01*
X44795000Y-50168323D02*
X37755000Y-50168323D01*
X46348000Y-46767323D02*
X36202000Y-46767323D01*
X44622000Y-50328323D02*
X37928000Y-50328323D01*
X45028000Y-49928323D02*
X37522000Y-49928323D01*
X40034000Y-48528323D02*
X36618000Y-48528323D01*
X40034000Y-48888323D02*
X36792000Y-48888323D01*
X46125000Y-48008323D02*
X42516000Y-48008323D01*
X43640000Y-51008323D02*
X38910000Y-51008323D01*
X45295000Y-49608323D02*
X37255000Y-49608323D01*
X46299000Y-47248323D02*
X42516000Y-47248323D01*
X40034000Y-48128323D02*
X36464000Y-48128323D01*
X45598000Y-49168323D02*
X42516000Y-49168323D01*
X46340000Y-46887323D02*
X36210000Y-46887323D01*
X45413000Y-49448323D02*
X42516000Y-49448323D01*
X45622000Y-49128323D02*
X42516000Y-49128323D01*
X46345000Y-46807323D02*
X36205000Y-46807323D01*
X44529000Y-50408323D02*
X38021000Y-50408323D01*
X46315000Y-47127323D02*
X42516000Y-47127323D01*
X46137000Y-47968323D02*
X42516000Y-47968323D01*
X45133000Y-49808323D02*
X37417000Y-49808323D01*
X40034000Y-47248323D02*
X36251000Y-47248323D01*
X45779000Y-48848323D02*
X42516000Y-48848323D01*
X44105000Y-50728323D02*
X38445000Y-50728323D01*
X44991000Y-49968323D02*
X37559000Y-49968323D01*
X46325000Y-47047323D02*
X42516000Y-47047323D01*
X45200000Y-49728323D02*
X37350000Y-49728323D01*
X40034000Y-47408323D02*
X36278000Y-47408323D01*
X40034000Y-48208323D02*
X36492000Y-48208323D01*
X40034000Y-49328323D02*
X37054000Y-49328323D01*
X45737000Y-48928323D02*
X42516000Y-48928323D01*
X46013000Y-48328323D02*
X42516000Y-48328323D01*
X40034000Y-47768323D02*
X36357000Y-47768323D01*
X46329000Y-47007323D02*
X42516000Y-47007323D01*
X45859000Y-48688323D02*
X42516000Y-48688323D01*
X40034000Y-48008323D02*
X36425000Y-48008323D01*
X42905000Y-51328323D02*
X39645000Y-51328323D01*
X46222000Y-47648323D02*
X42516000Y-47648323D01*
X45522000Y-49288323D02*
X42516000Y-49288323D01*
X40034000Y-48408323D02*
X36568000Y-48408323D01*
X40034000Y-49288323D02*
X37028000Y-49288323D01*
X46353000Y-46647323D02*
X36197000Y-46647323D01*
X45715000Y-48968323D02*
X42516000Y-48968323D01*
X46272000Y-47408323D02*
X42516000Y-47408323D01*
X40034000Y-49128323D02*
X36928000Y-49128323D01*
X45965000Y-48448323D02*
X42516000Y-48448323D01*
X43219000Y-51208323D02*
X39331000Y-51208323D01*
X45932000Y-48528323D02*
X42516000Y-48528323D01*
X46203000Y-47728323D02*
X42516000Y-47728323D01*
X40034000Y-49248323D02*
X37002000Y-49248323D01*
X46343000Y-46847323D02*
X36207000Y-46847323D01*
X40034000Y-47368323D02*
X36271000Y-47368323D01*
X45099000Y-49848323D02*
X37451000Y-49848323D01*
X40034000Y-47528323D02*
X36301000Y-47528323D01*
X45878000Y-48648323D02*
X42516000Y-48648323D01*
X40034000Y-47608323D02*
X36319000Y-47608323D01*
X40034000Y-47968323D02*
X36413000Y-47968323D01*
X45820000Y-48768323D02*
X42516000Y-48768323D01*
X40034000Y-49408323D02*
X37109000Y-49408323D01*
X40034000Y-48248323D02*
X36507000Y-48248323D01*
X46182000Y-47808323D02*
X42516000Y-47808323D01*
X40034000Y-47007323D02*
X36221000Y-47007323D01*
X40034000Y-47568323D02*
X36310000Y-47568323D01*
X45949000Y-48488323D02*
X42516000Y-48488323D01*
X45385000Y-49488323D02*
X37165000Y-49488323D01*
X46213000Y-47688323D02*
X42516000Y-47688323D01*
X43400000Y-51128323D02*
X39150000Y-51128323D01*
X45914000Y-48568323D02*
X42516000Y-48568323D01*
X43785000Y-50928323D02*
X38765000Y-50928323D01*
X40034000Y-49168323D02*
X36952000Y-49168323D01*
X44915000Y-50048323D02*
X37635000Y-50048323D01*
X40034000Y-48048323D02*
X36438000Y-48048323D01*
X40034000Y-48488323D02*
X36601000Y-48488323D01*
X40034000Y-48328323D02*
X36537000Y-48328323D01*
X40034000Y-48288323D02*
X36521000Y-48288323D01*
X45441000Y-49408323D02*
X42516000Y-49408323D01*
X44836000Y-50128323D02*
X37714000Y-50128323D01*
X45646000Y-49088323D02*
X42516000Y-49088323D01*
X40034000Y-48848323D02*
X36771000Y-48848323D01*
X46305000Y-47208323D02*
X42516000Y-47208323D01*
X44650000Y-41507677D02*
X43650000Y-41507677D01*
X45064000Y-49888323D02*
X37486000Y-49888323D01*
X46112000Y-48048323D02*
X42516000Y-48048323D01*
X46172000Y-47848323D02*
X42516000Y-47848323D01*
X40034000Y-47728323D02*
X36347000Y-47728323D01*
X44954000Y-50008323D02*
X37596000Y-50008323D01*
X40034000Y-48808323D02*
X36750000Y-48808323D01*
X43984000Y-50808323D02*
X38566000Y-50808323D01*
X45167000Y-49768323D02*
X37383000Y-49768323D01*
X46231000Y-47608323D02*
X42516000Y-47608323D01*
X40034000Y-48448323D02*
X36585000Y-48448323D01*
X44045000Y-50768323D02*
X38505000Y-50768323D01*
X43312000Y-51168323D02*
X39238000Y-51168323D01*
X40034000Y-48928323D02*
X36813000Y-48928323D01*
X40034000Y-49208323D02*
X36977000Y-49208323D01*
X45548000Y-49248323D02*
X42516000Y-49248323D01*
X40034000Y-47208323D02*
X36245000Y-47208323D01*
X44164000Y-50688323D02*
X38386000Y-50688323D01*
X44275000Y-50608323D02*
X38275000Y-50608323D01*
X40034000Y-47127323D02*
X36235000Y-47127323D01*
X40034000Y-48648323D02*
X36672000Y-48648323D01*
X45692000Y-49008323D02*
X42516000Y-49008323D01*
X40034000Y-47888323D02*
X36390000Y-47888323D01*
X40034000Y-48168323D02*
X36478000Y-48168323D01*
X45839000Y-48728323D02*
X42516000Y-48728323D01*
X46355000Y-46567323D02*
X36195000Y-46567323D01*
X45896000Y-48608323D02*
X42516000Y-48608323D01*
X45758000Y-48888323D02*
X42516000Y-48888323D01*
X40034000Y-47288323D02*
X36257000Y-47288323D01*
X43564000Y-51048323D02*
X38986000Y-51048323D01*
X40034000Y-47488323D02*
X36293000Y-47488323D01*
X44576000Y-50368323D02*
X37974000Y-50368323D01*
X40034000Y-49448323D02*
X37137000Y-49448323D01*
X46320000Y-47087323D02*
X42516000Y-47087323D01*
X41874000Y-51568323D02*
X40676000Y-51568323D01*
X46099000Y-48088323D02*
X42516000Y-48088323D01*
X46193000Y-47768323D02*
X42516000Y-47768323D01*
X44220000Y-50648323D02*
X38330000Y-50648323D01*
X46333000Y-46967323D02*
X36217000Y-46967323D01*
X46395000Y-46487323D02*
G75*
G03*
X46395000Y-46487323I-5120000J0D01*
G01*
X47347800Y-74930000D02*
G75*
G03*
X47347800Y-74930000I-1450000J0D01*
G01*
X35994000Y-75107800D02*
G75*
G03*
X35994000Y-75107800I-1450000J0D01*
G01*
X144392867Y-76710000D02*
X144100333Y-76710000D01*
X144392867Y-75690000D02*
X144100333Y-75690000D01*
D13*
X101135000Y-31145000D02*
X101135000Y-34895000D01*
X103135000Y-34990000D02*
X101485000Y-34990000D01*
X96985000Y-31145000D02*
X101135000Y-31145000D01*
X96985000Y-34895000D02*
X96985000Y-31145000D01*
X101135000Y-34895000D02*
X96985000Y-34895000D01*
D12*
X41836000Y-75184000D02*
G75*
G03*
X41836000Y-75184000I-1450000J0D01*
G01*
X89714800Y-66008467D02*
X89714800Y-65715933D01*
X88694800Y-66008467D02*
X88694800Y-65715933D01*
X143509276Y-89393500D02*
X144018724Y-89393500D01*
X143509276Y-90438500D02*
X144018724Y-90438500D01*
X87733800Y-33782000D02*
G75*
G03*
X87733800Y-33782000I-1450000J0D01*
G01*
X143910267Y-92458000D02*
X143617733Y-92458000D01*
X143910267Y-91438000D02*
X143617733Y-91438000D01*
X51970600Y-74777600D02*
G75*
G03*
X51970600Y-74777600I-1450000J0D01*
G01*
X92368450Y-54241750D02*
X95968450Y-54241750D01*
X94168450Y-49791749D02*
G75*
G03*
X92329972Y-54230228I0J-2600001D01*
G01*
X96006928Y-54230228D02*
G75*
G03*
X94168450Y-49791750I-1838478J1838478D01*
G01*
X132080724Y-37098500D02*
X131571276Y-37098500D01*
X132080724Y-36053500D02*
X131571276Y-36053500D01*
X92606400Y-66008467D02*
X92606400Y-65715933D01*
X93626400Y-66008467D02*
X93626400Y-65715933D01*
X96012724Y-97550500D02*
X95503276Y-97550500D01*
X96012724Y-96505500D02*
X95503276Y-96505500D01*
X63560000Y-72335000D02*
X60900000Y-72335000D01*
X60900000Y-74935000D02*
X60900000Y-72335000D01*
X63560000Y-74935000D02*
X60900000Y-74935000D01*
X63560000Y-76205000D02*
X63560000Y-77535000D01*
X63560000Y-74935000D02*
X63560000Y-72335000D01*
X63560000Y-77535000D02*
X62230000Y-77535000D01*
X37420000Y-31810000D02*
X37420000Y-30480000D01*
X45160000Y-31810000D02*
X45160000Y-29150000D01*
X40020000Y-29150000D02*
X45160000Y-29150000D01*
X40020000Y-31810000D02*
X40020000Y-29150000D01*
X40020000Y-31810000D02*
X45160000Y-31810000D01*
X38750000Y-31810000D02*
X37420000Y-31810000D01*
X106544000Y-96293000D02*
X106544000Y-97763000D01*
X106544000Y-97763000D02*
X109004000Y-97763000D01*
X109004000Y-96293000D02*
X106544000Y-96293000D01*
X52250000Y-88900000D02*
G75*
G03*
X52250000Y-88900000I-1450000J0D01*
G01*
X101727724Y-37352500D02*
X101218276Y-37352500D01*
X101727724Y-36307500D02*
X101218276Y-36307500D01*
D13*
X117305000Y-31145000D02*
X121455000Y-31145000D01*
X121455000Y-31145000D02*
X121455000Y-34895000D01*
X121455000Y-34895000D02*
X117305000Y-34895000D01*
X117305000Y-34895000D02*
X117305000Y-31145000D01*
X123455000Y-34990000D02*
X121805000Y-34990000D01*
D12*
X129717000Y-45000000D02*
X129717000Y-46330000D01*
X127117000Y-43670000D02*
X127117000Y-46330000D01*
X127117000Y-43670000D02*
X119437000Y-43670000D01*
X127117000Y-46330000D02*
X119437000Y-46330000D01*
X129717000Y-46330000D02*
X128387000Y-46330000D01*
X119437000Y-43670000D02*
X119437000Y-46330000D01*
X125983276Y-89647500D02*
X126492724Y-89647500D01*
X125983276Y-90692500D02*
X126492724Y-90692500D01*
X91619800Y-66008467D02*
X91619800Y-65715933D01*
X90599800Y-66008467D02*
X90599800Y-65715933D01*
X114103733Y-85060000D02*
X114396267Y-85060000D01*
X114103733Y-84040000D02*
X114396267Y-84040000D01*
D13*
X58030000Y-53500000D02*
X41030000Y-53500000D01*
X41030000Y-60800000D02*
X58030000Y-60800000D01*
D12*
X111887724Y-36053500D02*
X111378276Y-36053500D01*
X111887724Y-37098500D02*
X111378276Y-37098500D01*
X37808800Y-71845800D02*
X33167800Y-71845800D01*
X36298800Y-61605800D02*
X36298800Y-71845800D01*
X33167800Y-61605800D02*
X33167800Y-71845800D01*
X37808800Y-61605800D02*
X33167800Y-61605800D01*
X37808800Y-64875800D02*
X36298800Y-64875800D01*
X37808800Y-68576800D02*
X36298800Y-68576800D01*
X37808800Y-61605800D02*
X37808800Y-71845800D01*
X79500000Y-87737733D02*
X79500000Y-88030267D01*
X80520000Y-87737733D02*
X80520000Y-88030267D01*
X126384267Y-91692000D02*
X126091733Y-91692000D01*
X126384267Y-92712000D02*
X126091733Y-92712000D01*
X53342000Y-41802267D02*
X53342000Y-41509733D01*
X52322000Y-41802267D02*
X52322000Y-41509733D01*
D10*
X26250000Y-87670000D02*
X26700000Y-87670000D01*
X32400000Y-82020000D02*
X32400000Y-81295000D01*
X26700000Y-87670000D02*
X26700000Y-87970000D01*
X30650000Y-79670000D02*
X29250000Y-79670000D01*
X26700000Y-87970000D02*
X26850000Y-87970000D01*
X26700000Y-79670000D02*
X26700000Y-79970000D01*
X26850000Y-79670000D02*
X26700000Y-79670000D01*
X29250000Y-87970000D02*
X30650000Y-87970000D01*
X32400000Y-85620000D02*
X32400000Y-86345000D01*
X26700000Y-79970000D02*
X26250000Y-79970000D01*
X32825000Y-82745000D02*
X32825000Y-82020000D01*
X32825000Y-82020000D02*
X32400000Y-82020000D01*
D12*
X98162000Y-97763000D02*
X100622000Y-97763000D01*
X98162000Y-96293000D02*
X98162000Y-97763000D01*
X100622000Y-96293000D02*
X98162000Y-96293000D01*
D13*
X46752500Y-28584000D02*
X46752500Y-35574000D01*
X53352500Y-35574000D02*
X53352500Y-28584000D01*
X53352500Y-28584000D02*
X46752500Y-28584000D01*
X46752500Y-35574000D02*
X53352500Y-35574000D01*
X53831500Y-32116000D02*
G75*
G03*
X53831500Y-32116000I-57000J0D01*
G01*
D12*
X144954000Y-78556400D02*
X140034000Y-78556400D01*
X140034000Y-82026400D02*
X140034000Y-82276400D01*
X140034000Y-78556400D02*
X140034000Y-78806400D01*
X140034000Y-82276400D02*
X144954000Y-82276400D01*
X144954000Y-78556400D02*
X144954000Y-78806400D01*
X144954000Y-82026400D02*
X144954000Y-82276400D01*
X73090000Y-94648000D02*
X74140000Y-94648000D01*
X79310000Y-94648000D02*
X78260000Y-94648000D01*
X78140000Y-97768000D02*
X74260000Y-97768000D01*
X79310000Y-95798000D02*
X79310000Y-94648000D01*
X78260000Y-94648000D02*
X78260000Y-93658000D01*
X73090000Y-95798000D02*
X73090000Y-94648000D01*
X117601276Y-37352500D02*
X118110724Y-37352500D01*
X117601276Y-36307500D02*
X118110724Y-36307500D01*
X144017276Y-73289900D02*
X144526724Y-73289900D01*
X144017276Y-74334900D02*
X144526724Y-74334900D01*
X104394724Y-97550500D02*
X103885276Y-97550500D01*
X104394724Y-96505500D02*
X103885276Y-96505500D01*
X134365276Y-89393500D02*
X134874724Y-89393500D01*
X134365276Y-90438500D02*
X134874724Y-90438500D01*
X81206000Y-34360000D02*
X81206000Y-34490000D01*
X81206000Y-34490000D02*
X75766000Y-34490000D01*
X80426000Y-34490000D02*
X80426000Y-31550000D01*
X80186000Y-34490000D02*
X80186000Y-31550000D01*
X81206000Y-31550000D02*
X75766000Y-31550000D01*
X81206000Y-31680000D02*
X81206000Y-31550000D01*
X75766000Y-31550000D02*
X75766000Y-31680000D01*
X75766000Y-34490000D02*
X75766000Y-34360000D01*
X80306000Y-34490000D02*
X80306000Y-31550000D01*
D13*
X49620000Y-49479000D02*
X49620000Y-46279000D01*
X54675000Y-44404000D02*
X54675000Y-45929000D01*
X54520000Y-49479000D02*
X49620000Y-49479000D01*
X54520000Y-46279000D02*
X54520000Y-49479000D01*
X49620000Y-46279000D02*
X54520000Y-46279000D01*
D12*
X48346800Y-87204600D02*
X42336800Y-87204600D01*
X46096800Y-80384600D02*
X42336800Y-80384600D01*
X42336800Y-80384600D02*
X42336800Y-81644600D01*
X42336800Y-87204600D02*
X42336800Y-85944600D01*
X95104833Y-71122000D02*
X95397367Y-71122000D01*
X95104833Y-70102000D02*
X95397367Y-70102000D01*
X122000000Y-93644000D02*
X122000000Y-93894000D01*
X126920000Y-97114000D02*
X126920000Y-97364000D01*
X126920000Y-93644000D02*
X126920000Y-93894000D01*
X122000000Y-97114000D02*
X122000000Y-97364000D01*
X122000000Y-97364000D02*
X126920000Y-97364000D01*
X126920000Y-93644000D02*
X122000000Y-93644000D01*
X91260000Y-49092000D02*
X91260000Y-49222000D01*
X92040000Y-46282000D02*
X92040000Y-49222000D01*
X92280000Y-46282000D02*
X92280000Y-49222000D01*
X96700000Y-49222000D02*
X96700000Y-49092000D01*
X92160000Y-46282000D02*
X92160000Y-49222000D01*
X91260000Y-46412000D02*
X91260000Y-46282000D01*
X91260000Y-49222000D02*
X96700000Y-49222000D01*
X91260000Y-46282000D02*
X96700000Y-46282000D01*
X96700000Y-46282000D02*
X96700000Y-46412000D01*
D13*
X107145000Y-31145000D02*
X111295000Y-31145000D01*
X113295000Y-34990000D02*
X111645000Y-34990000D01*
X107145000Y-34895000D02*
X107145000Y-31145000D01*
X111295000Y-34895000D02*
X107145000Y-34895000D01*
X111295000Y-31145000D02*
X111295000Y-34895000D01*
D12*
X103350600Y-73374467D02*
X103350600Y-73081933D01*
X104370600Y-73374467D02*
X104370600Y-73081933D01*
X97408276Y-37479500D02*
X97917724Y-37479500D01*
X97408276Y-36434500D02*
X97917724Y-36434500D01*
X107568276Y-36053500D02*
X108077724Y-36053500D01*
X107568276Y-37098500D02*
X108077724Y-37098500D01*
D13*
X102325000Y-66150000D02*
X102325000Y-69350000D01*
X97295000Y-71225000D02*
X97295000Y-69700000D01*
X97425000Y-66150000D02*
X102325000Y-66150000D01*
X102325000Y-69350000D02*
X97425000Y-69350000D01*
X97425000Y-69350000D02*
X97425000Y-66150000D01*
D14*
X52780000Y-69830000D02*
X41280000Y-69830000D01*
X52780000Y-63830000D02*
X52780000Y-69830000D01*
X41280000Y-69830000D02*
X41280000Y-63830000D01*
X42780000Y-70380000D02*
X42780000Y-70380000D01*
X42880000Y-70380000D02*
X42880000Y-70380000D01*
X41280000Y-63830000D02*
X52780000Y-63830000D01*
X42880000Y-70380000D02*
G75*
G03*
X42780000Y-70380000I-50000J0D01*
G01*
X42780000Y-70380000D02*
G75*
G03*
X42880000Y-70380000I50000J0D01*
G01*
D12*
X55733733Y-66546000D02*
X56026267Y-66546000D01*
X55733733Y-67566000D02*
X56026267Y-67566000D01*
X57149276Y-49261500D02*
X57658724Y-49261500D01*
X57149276Y-50306500D02*
X57658724Y-50306500D01*
X63702614Y-52352000D02*
G75*
G03*
X87691386Y-52352000I11994386J2060000D01*
G01*
X87691386Y-48232000D02*
G75*
G03*
X63702614Y-48232000I-11994386J-2060000D01*
G01*
X79593667Y-50292000D02*
G75*
G03*
X79593667Y-50292000I-3896667J0D01*
G01*
X31235867Y-68582000D02*
X30943333Y-68582000D01*
X31235867Y-67562000D02*
X30943333Y-67562000D01*
X55625276Y-72375500D02*
X56134724Y-72375500D01*
X55625276Y-73420500D02*
X56134724Y-73420500D01*
X102999000Y-92021000D02*
X109599000Y-92021000D01*
X102999000Y-86541000D02*
X109599000Y-86541000D01*
X95424000Y-86481000D02*
X95424000Y-92081000D01*
X35291600Y-41074400D02*
X33391600Y-41074400D01*
X20591600Y-31874400D02*
X35291600Y-31874400D01*
X20591600Y-41074400D02*
X20591600Y-31874400D01*
X35291600Y-38374400D02*
X35291600Y-41074400D01*
X34441600Y-31674400D02*
X35491600Y-31674400D01*
X29391600Y-41074400D02*
X20591600Y-41074400D01*
X35291600Y-31874400D02*
X35291600Y-34474400D01*
X35491600Y-32724400D02*
X35491600Y-31674400D01*
D13*
X104037000Y-62625000D02*
X110513000Y-62625000D01*
X102771000Y-40525000D02*
X110513000Y-40525000D01*
D12*
X71581000Y-33949323D02*
X68297000Y-33949323D01*
X70809000Y-35069323D02*
X63303000Y-35069323D01*
X70534000Y-35349323D02*
X63578000Y-35349323D01*
X65815000Y-32509323D02*
X62052000Y-32509323D01*
X70403000Y-35469323D02*
X63709000Y-35469323D01*
X72133000Y-31828323D02*
X61979000Y-31828323D01*
X72012000Y-32749323D02*
X68297000Y-32749323D01*
X72124000Y-31988323D02*
X61988000Y-31988323D01*
X65815000Y-33069323D02*
X62182000Y-33069323D01*
X70948000Y-34909323D02*
X63164000Y-34909323D01*
X65815000Y-33389323D02*
X62288000Y-33389323D01*
X65815000Y-32549323D02*
X62059000Y-32549323D01*
X65815000Y-33149323D02*
X62206000Y-33149323D01*
X69181000Y-36269323D02*
X64931000Y-36269323D01*
X65815000Y-32589323D02*
X62066000Y-32589323D01*
X71560000Y-33989323D02*
X68297000Y-33989323D01*
X71136000Y-34669323D02*
X62976000Y-34669323D01*
X70981000Y-34869323D02*
X63131000Y-34869323D01*
X71045000Y-34789323D02*
X63067000Y-34789323D01*
X71222000Y-34549323D02*
X68297000Y-34549323D01*
X71918000Y-33109323D02*
X68297000Y-33109323D01*
X70772000Y-35109323D02*
X63340000Y-35109323D01*
X71930000Y-33069323D02*
X68297000Y-33069323D01*
X65815000Y-32629323D02*
X62074000Y-32629323D01*
X65815000Y-34549323D02*
X62890000Y-34549323D01*
X71779000Y-33509323D02*
X68297000Y-33509323D01*
X68118000Y-36629323D02*
X65994000Y-36629323D01*
X72038000Y-32629323D02*
X68297000Y-32629323D01*
X72091000Y-32308323D02*
X68297000Y-32308323D01*
X65815000Y-34309323D02*
X62733000Y-34309323D01*
X72114000Y-32108323D02*
X61998000Y-32108323D01*
X71403000Y-34269323D02*
X68297000Y-34269323D01*
X71601000Y-33909323D02*
X68297000Y-33909323D01*
X72096000Y-32268323D02*
X68297000Y-32268323D01*
X70576000Y-35309323D02*
X63536000Y-35309323D01*
X69000000Y-36349323D02*
X65112000Y-36349323D01*
X65815000Y-33869323D02*
X62492000Y-33869323D01*
X72074000Y-32429323D02*
X68297000Y-32429323D01*
X71941000Y-33029323D02*
X68297000Y-33029323D01*
X70431000Y-26648677D02*
X69431000Y-26648677D01*
X72003000Y-32789323D02*
X68297000Y-32789323D01*
X71984000Y-32869323D02*
X68297000Y-32869323D01*
X71763000Y-33549323D02*
X68297000Y-33549323D01*
X65815000Y-34149323D02*
X62639000Y-34149323D01*
X69265000Y-36229323D02*
X64847000Y-36229323D01*
X71106000Y-34709323D02*
X63006000Y-34709323D01*
X65815000Y-34349323D02*
X62758000Y-34349323D01*
X69566000Y-36069323D02*
X64546000Y-36069323D01*
X70310000Y-35549323D02*
X63802000Y-35549323D01*
X65815000Y-32148323D02*
X62002000Y-32148323D01*
X70357000Y-35509323D02*
X63755000Y-35509323D01*
X65815000Y-33509323D02*
X62333000Y-33509323D01*
X72118000Y-32068323D02*
X61994000Y-32068323D01*
X69635000Y-36029323D02*
X64477000Y-36029323D01*
X65815000Y-32909323D02*
X62138000Y-32909323D01*
X72126000Y-31948323D02*
X61986000Y-31948323D01*
X71880000Y-33229323D02*
X68297000Y-33229323D01*
X71730000Y-33629323D02*
X68297000Y-33629323D01*
X71427000Y-34229323D02*
X68297000Y-34229323D01*
X68686000Y-36469323D02*
X65426000Y-36469323D01*
X65815000Y-34229323D02*
X62685000Y-34229323D01*
X70735000Y-35149323D02*
X63377000Y-35149323D01*
X68566000Y-36509323D02*
X65546000Y-36509323D01*
X71640000Y-33829323D02*
X68297000Y-33829323D01*
X65815000Y-32429323D02*
X62038000Y-32429323D01*
X68434000Y-36549323D02*
X65678000Y-36549323D01*
X71695000Y-33709323D02*
X68297000Y-33709323D01*
X70880000Y-34989323D02*
X63232000Y-34989323D01*
X71303000Y-34429323D02*
X68297000Y-34429323D01*
X72121000Y-32028323D02*
X61991000Y-32028323D01*
X65815000Y-33349323D02*
X62273000Y-33349323D01*
X65815000Y-34389323D02*
X62783000Y-34389323D01*
X71620000Y-33869323D02*
X68297000Y-33869323D01*
X71451000Y-34189323D02*
X68297000Y-34189323D01*
X71810000Y-33429323D02*
X68297000Y-33429323D01*
X65815000Y-33029323D02*
X62171000Y-33029323D01*
X72101000Y-32228323D02*
X68297000Y-32228323D01*
X72060000Y-32509323D02*
X68297000Y-32509323D01*
X72021000Y-32709323D02*
X68297000Y-32709323D01*
X65815000Y-33629323D02*
X62382000Y-33629323D01*
X71839000Y-33349323D02*
X68297000Y-33349323D01*
X71853000Y-33309323D02*
X68297000Y-33309323D01*
X65815000Y-32228323D02*
X62011000Y-32228323D01*
X65815000Y-32789323D02*
X62109000Y-32789323D01*
X68286000Y-36589323D02*
X65826000Y-36589323D01*
X69886000Y-35869323D02*
X64226000Y-35869323D01*
X71329000Y-34389323D02*
X68297000Y-34389323D01*
X71194000Y-34589323D02*
X68297000Y-34589323D01*
X71013000Y-34829323D02*
X63099000Y-34829323D01*
X71824000Y-33389323D02*
X68297000Y-33389323D01*
X71906000Y-33149323D02*
X68297000Y-33149323D01*
X70696000Y-35189323D02*
X63416000Y-35189323D01*
X72135000Y-31748323D02*
X61977000Y-31748323D01*
X71250000Y-34509323D02*
X68297000Y-34509323D01*
X71746000Y-33589323D02*
X68297000Y-33589323D01*
X69826000Y-35909323D02*
X64286000Y-35909323D01*
X72136000Y-31708323D02*
X61976000Y-31708323D01*
X69945000Y-35829323D02*
X64167000Y-35829323D01*
X65815000Y-33789323D02*
X62453000Y-33789323D01*
X72129000Y-31908323D02*
X61983000Y-31908323D01*
X65815000Y-33109323D02*
X62194000Y-33109323D01*
X65815000Y-32869323D02*
X62128000Y-32869323D01*
X65815000Y-32349323D02*
X62026000Y-32349323D01*
X65815000Y-33829323D02*
X62472000Y-33829323D01*
X65815000Y-34469323D02*
X62835000Y-34469323D01*
X69421000Y-36149323D02*
X64691000Y-36149323D01*
X65815000Y-33269323D02*
X62245000Y-33269323D01*
X70056000Y-35749323D02*
X64056000Y-35749323D01*
X65815000Y-33989323D02*
X62552000Y-33989323D01*
X65815000Y-34189323D02*
X62661000Y-34189323D01*
X65815000Y-32949323D02*
X62149000Y-32949323D01*
X70212000Y-35629323D02*
X63900000Y-35629323D01*
X65815000Y-32268323D02*
X62016000Y-32268323D01*
X65815000Y-32188323D02*
X62006000Y-32188323D01*
X69345000Y-36189323D02*
X64767000Y-36189323D01*
X72046000Y-32589323D02*
X68297000Y-32589323D01*
X65815000Y-32709323D02*
X62091000Y-32709323D01*
X71794000Y-33469323D02*
X68297000Y-33469323D01*
X65815000Y-32989323D02*
X62159000Y-32989323D01*
X65815000Y-33189323D02*
X62219000Y-33189323D01*
X65815000Y-32389323D02*
X62032000Y-32389323D01*
X71166000Y-34629323D02*
X62946000Y-34629323D01*
X71677000Y-33749323D02*
X68297000Y-33749323D01*
X65815000Y-33549323D02*
X62349000Y-33549323D01*
X70262000Y-35589323D02*
X63850000Y-35589323D01*
X70110000Y-35709323D02*
X64002000Y-35709323D01*
X72134000Y-31788323D02*
X61978000Y-31788323D01*
X71076000Y-34749323D02*
X63036000Y-34749323D01*
X69931000Y-26148677D02*
X69931000Y-27148677D01*
X65815000Y-33229323D02*
X62232000Y-33229323D01*
X72131000Y-31868323D02*
X61981000Y-31868323D01*
X65815000Y-33669323D02*
X62399000Y-33669323D01*
X70162000Y-35669323D02*
X63950000Y-35669323D01*
X70448000Y-35429323D02*
X63664000Y-35429323D01*
X71659000Y-33789323D02*
X68297000Y-33789323D01*
X69701000Y-35989323D02*
X64411000Y-35989323D01*
X70492000Y-35389323D02*
X63620000Y-35389323D01*
X65815000Y-32829323D02*
X62118000Y-32829323D01*
X65815000Y-32669323D02*
X62082000Y-32669323D01*
X70657000Y-35229323D02*
X63455000Y-35229323D01*
X72053000Y-32549323D02*
X68297000Y-32549323D01*
X71893000Y-33189323D02*
X68297000Y-33189323D01*
X71277000Y-34469323D02*
X68297000Y-34469323D01*
X72136000Y-31628323D02*
X61976000Y-31628323D01*
X71354000Y-34349323D02*
X68297000Y-34349323D01*
X65815000Y-33909323D02*
X62511000Y-33909323D01*
X72106000Y-32188323D02*
X68297000Y-32188323D01*
X67655000Y-36709323D02*
X66457000Y-36709323D01*
X65815000Y-33309323D02*
X62259000Y-33309323D01*
X71994000Y-32829323D02*
X68297000Y-32829323D01*
X68902000Y-36389323D02*
X65210000Y-36389323D01*
X71379000Y-34309323D02*
X68297000Y-34309323D01*
X72086000Y-32349323D02*
X68297000Y-32349323D01*
X65815000Y-33469323D02*
X62318000Y-33469323D01*
X70914000Y-34949323D02*
X63198000Y-34949323D01*
X71518000Y-34069323D02*
X68297000Y-34069323D01*
X69765000Y-35949323D02*
X64347000Y-35949323D01*
X71473000Y-34149323D02*
X68297000Y-34149323D01*
X72030000Y-32669323D02*
X68297000Y-32669323D01*
X68798000Y-36429323D02*
X65314000Y-36429323D01*
X65815000Y-34429323D02*
X62809000Y-34429323D01*
X65815000Y-33749323D02*
X62435000Y-33749323D01*
X72110000Y-32148323D02*
X68297000Y-32148323D01*
X71496000Y-34109323D02*
X68297000Y-34109323D01*
X65815000Y-34509323D02*
X62862000Y-34509323D01*
X65815000Y-32308323D02*
X62021000Y-32308323D01*
X65815000Y-34109323D02*
X62616000Y-34109323D01*
X65815000Y-34589323D02*
X62918000Y-34589323D01*
X71963000Y-32949323D02*
X68297000Y-32949323D01*
X65815000Y-34029323D02*
X62573000Y-34029323D01*
X65815000Y-33589323D02*
X62366000Y-33589323D01*
X65815000Y-34269323D02*
X62709000Y-34269323D01*
X65815000Y-32469323D02*
X62045000Y-32469323D01*
X67918000Y-36669323D02*
X66194000Y-36669323D01*
X65815000Y-32749323D02*
X62100000Y-32749323D01*
X69093000Y-36309323D02*
X65019000Y-36309323D01*
X65815000Y-33949323D02*
X62531000Y-33949323D01*
X71867000Y-33269323D02*
X68297000Y-33269323D01*
X71713000Y-33669323D02*
X68297000Y-33669323D01*
X70617000Y-35269323D02*
X63495000Y-35269323D01*
X65815000Y-33429323D02*
X62302000Y-33429323D01*
X71539000Y-34029323D02*
X68297000Y-34029323D01*
X65815000Y-33709323D02*
X62417000Y-33709323D01*
X69495000Y-36109323D02*
X64617000Y-36109323D01*
X70001000Y-35789323D02*
X64111000Y-35789323D01*
X72080000Y-32389323D02*
X68297000Y-32389323D01*
X72067000Y-32469323D02*
X68297000Y-32469323D01*
X72136000Y-31668323D02*
X61976000Y-31668323D01*
X71974000Y-32909323D02*
X68297000Y-32909323D01*
X70845000Y-35029323D02*
X63267000Y-35029323D01*
X65815000Y-34069323D02*
X62594000Y-34069323D01*
X71953000Y-32989323D02*
X68297000Y-32989323D01*
X72176000Y-31628323D02*
G75*
G03*
X72176000Y-31628323I-5120000J0D01*
G01*
%LPC*%
D15*
X31737500Y-95500000D03*
X29912500Y-95500000D03*
D16*
X87860000Y-94433000D03*
X86860000Y-94433000D03*
X85860000Y-94433000D03*
X84860000Y-94433000D03*
D17*
X89160000Y-96958000D03*
X83560000Y-96958000D03*
D18*
X99264300Y-84582000D03*
X100989300Y-84582000D03*
D19*
X139411000Y-94654000D03*
X144561000Y-94654000D03*
X139411000Y-96354000D03*
X144561000Y-96354000D03*
D20*
X126976500Y-36576000D03*
X128801500Y-36576000D03*
D21*
X84836000Y-72493500D03*
X84836000Y-74318500D03*
D15*
X31646500Y-93726000D03*
X29821500Y-93726000D03*
X31646500Y-91440000D03*
X29821500Y-91440000D03*
D22*
X31952100Y-70891400D03*
X30227100Y-70891400D03*
D18*
X49937500Y-83820000D03*
X51662500Y-83820000D03*
D20*
X56491500Y-46736000D03*
X58316500Y-46736000D03*
D19*
X130521000Y-94654000D03*
X135671000Y-94654000D03*
X135671000Y-96354000D03*
X130521000Y-96354000D03*
D23*
X79001212Y-75112124D03*
X78647658Y-75465678D03*
X78294105Y-75819231D03*
X77940551Y-76172785D03*
X77586998Y-76526338D03*
X77233445Y-76879891D03*
X76879891Y-77233445D03*
X76526338Y-77586998D03*
X76172785Y-77940551D03*
X75819231Y-78294105D03*
X75465678Y-78647658D03*
X75112124Y-79001212D03*
D24*
X75112124Y-80998788D03*
X75465678Y-81352342D03*
X75819231Y-81705895D03*
X76172785Y-82059449D03*
X76526338Y-82413002D03*
X76879891Y-82766555D03*
X77233445Y-83120109D03*
X77586998Y-83473662D03*
X77940551Y-83827215D03*
X78294105Y-84180769D03*
X78647658Y-84534322D03*
X79001212Y-84887876D03*
D23*
X80998788Y-84887876D03*
X81352342Y-84534322D03*
X81705895Y-84180769D03*
X82059449Y-83827215D03*
X82413002Y-83473662D03*
X82766555Y-83120109D03*
X83120109Y-82766555D03*
X83473662Y-82413002D03*
X83827215Y-82059449D03*
X84180769Y-81705895D03*
X84534322Y-81352342D03*
X84887876Y-80998788D03*
D24*
X84887876Y-79001212D03*
X84534322Y-78647658D03*
X84180769Y-78294105D03*
X83827215Y-77940551D03*
X83473662Y-77586998D03*
X83120109Y-77233445D03*
X82766555Y-76879891D03*
X82413002Y-76526338D03*
X82059449Y-76172785D03*
X81705895Y-75819231D03*
X81352342Y-75465678D03*
X80998788Y-75112124D03*
D25*
X96037400Y-66724700D03*
X96037400Y-64999700D03*
X80010000Y-73252500D03*
X80010000Y-71527500D03*
D20*
X93255950Y-62699750D03*
X95080950Y-62699750D03*
D26*
X103870000Y-70487000D03*
X105140000Y-70487000D03*
X106410000Y-70487000D03*
X107680000Y-70487000D03*
X107680000Y-65063000D03*
X106410000Y-65063000D03*
X105140000Y-65063000D03*
X103870000Y-65063000D03*
D15*
X122578500Y-36830000D03*
X120753500Y-36830000D03*
D18*
X55017500Y-69850000D03*
X56742500Y-69850000D03*
D15*
X56792500Y-29972000D03*
X54967500Y-29972000D03*
D27*
X113161600Y-69975000D03*
D28*
X115701600Y-69975000D03*
X118241600Y-69975000D03*
X120781600Y-69975000D03*
X123321600Y-69975000D03*
X125861600Y-69975000D03*
X128401600Y-69975000D03*
X130941600Y-69975000D03*
X133481600Y-69975000D03*
X136021600Y-69975000D03*
D29*
X132790000Y-34290000D03*
X132790000Y-31750000D03*
X126290000Y-31750000D03*
X126290000Y-34290000D03*
D21*
X38735000Y-34647500D03*
X38735000Y-36472500D03*
D18*
X49785100Y-81483200D03*
X51510100Y-81483200D03*
D30*
X42242500Y-34610000D03*
X42242500Y-36510000D03*
X44117500Y-35560000D03*
D22*
X135482500Y-92202000D03*
X133757500Y-92202000D03*
D25*
X49784000Y-42518500D03*
X49784000Y-40793500D03*
D31*
X115457000Y-97028000D03*
X117207000Y-97028000D03*
D32*
X56779200Y-76278500D03*
X54879200Y-76278500D03*
X55829200Y-78153500D03*
D33*
X59365000Y-39624000D03*
D34*
X59365000Y-37084000D03*
X59365000Y-34544000D03*
D15*
X113180500Y-97028000D03*
X111355500Y-97028000D03*
D35*
X41275000Y-44737323D03*
D36*
X41275000Y-48237323D03*
D37*
X45897800Y-74930000D03*
X34544000Y-75107800D03*
D22*
X145109100Y-76200000D03*
X143384100Y-76200000D03*
D29*
X102310000Y-34290000D03*
X102310000Y-31750000D03*
X95810000Y-31750000D03*
X95810000Y-34290000D03*
D37*
X40386000Y-75184000D03*
D25*
X89204800Y-66724700D03*
X89204800Y-64999700D03*
D20*
X142851500Y-89916000D03*
X144676500Y-89916000D03*
D37*
X86283800Y-33782000D03*
D22*
X144626500Y-91948000D03*
X142901500Y-91948000D03*
D37*
X50520600Y-74777600D03*
D38*
X92898450Y-52391750D03*
D39*
X94168450Y-51121750D03*
X95438450Y-52391750D03*
D15*
X132738500Y-36576000D03*
X130913500Y-36576000D03*
D25*
X93116400Y-66724700D03*
X93116400Y-64999700D03*
D15*
X96670500Y-97028000D03*
X94845500Y-97028000D03*
D27*
X62230000Y-76205000D03*
D28*
X62230000Y-73665000D03*
D27*
X38750000Y-30480000D03*
D28*
X41290000Y-30480000D03*
X43830000Y-30480000D03*
D31*
X107329000Y-97028000D03*
X109079000Y-97028000D03*
D37*
X50800000Y-88900000D03*
D15*
X102385500Y-36830000D03*
X100560500Y-36830000D03*
D29*
X122630000Y-34290000D03*
X122630000Y-31750000D03*
X116130000Y-31750000D03*
X116130000Y-34290000D03*
D27*
X128387000Y-45000000D03*
D28*
X125847000Y-45000000D03*
X123307000Y-45000000D03*
X120767000Y-45000000D03*
D20*
X125325500Y-90170000D03*
X127150500Y-90170000D03*
D25*
X91109800Y-66724700D03*
X91109800Y-64999700D03*
D18*
X113387500Y-84550000D03*
X115112500Y-84550000D03*
D40*
X42180000Y-57150000D03*
X56880000Y-57150000D03*
D15*
X112545500Y-36576000D03*
X110720500Y-36576000D03*
D33*
X34538800Y-64185800D03*
D34*
X34538800Y-66725800D03*
X34538800Y-69265800D03*
D41*
X80010000Y-87021500D03*
X80010000Y-88746500D03*
D22*
X127100500Y-92202000D03*
X125375500Y-92202000D03*
D25*
X52832000Y-42518500D03*
X52832000Y-40793500D03*
D42*
X30800000Y-86320000D03*
X30800000Y-81320000D03*
D43*
X31900000Y-82520000D03*
X31900000Y-83170000D03*
X31900000Y-83820000D03*
X31900000Y-84470000D03*
X31900000Y-85120000D03*
D44*
X28050000Y-79945000D03*
D36*
X31850000Y-87545000D03*
X31850000Y-80095000D03*
D44*
X28050000Y-87695000D03*
D31*
X98947000Y-97028000D03*
X100697000Y-97028000D03*
D45*
X52592500Y-32114000D03*
X50052500Y-34654000D03*
X47512500Y-32114000D03*
D19*
X145069000Y-79566400D03*
X139919000Y-79566400D03*
X139919000Y-81266400D03*
X145069000Y-81266400D03*
D16*
X77700000Y-94433000D03*
X76700000Y-94433000D03*
X75700000Y-94433000D03*
X74700000Y-94433000D03*
D17*
X73400000Y-96958000D03*
X79000000Y-96958000D03*
D20*
X116943500Y-36830000D03*
X118768500Y-36830000D03*
X143359500Y-73812400D03*
X145184500Y-73812400D03*
D15*
X105052500Y-97028000D03*
X103227500Y-97028000D03*
D20*
X133707500Y-89916000D03*
X135532500Y-89916000D03*
D46*
X82296000Y-33020000D03*
D47*
X74676000Y-33020000D03*
D48*
X53975000Y-45167000D03*
X52705000Y-45167000D03*
X51435000Y-45167000D03*
X50165000Y-45167000D03*
X50165000Y-50591000D03*
X51435000Y-50591000D03*
X52705000Y-50591000D03*
X53975000Y-50591000D03*
D49*
X47396800Y-86094600D03*
D50*
X41096800Y-83794600D03*
D49*
X47396800Y-83794600D03*
X47396800Y-81494600D03*
D18*
X94388600Y-70612000D03*
X96113600Y-70612000D03*
D19*
X121885000Y-94654000D03*
X127035000Y-94654000D03*
X121885000Y-96354000D03*
X127035000Y-96354000D03*
D46*
X90170000Y-47752000D03*
D47*
X97790000Y-47752000D03*
D29*
X112470000Y-34290000D03*
X112470000Y-31750000D03*
X105970000Y-31750000D03*
X105970000Y-34290000D03*
D25*
X103860600Y-74090700D03*
X103860600Y-72365700D03*
D20*
X96750500Y-36957000D03*
X98575500Y-36957000D03*
X106910500Y-36576000D03*
X108735500Y-36576000D03*
D26*
X97970000Y-70462000D03*
X99240000Y-70462000D03*
X100510000Y-70462000D03*
X101780000Y-70462000D03*
X101780000Y-65038000D03*
X100510000Y-65038000D03*
X99240000Y-65038000D03*
X97970000Y-65038000D03*
D51*
X43180000Y-68580000D03*
X45720000Y-68580000D03*
X48260000Y-68580000D03*
X50800000Y-68580000D03*
D18*
X55017500Y-67056000D03*
X56742500Y-67056000D03*
D20*
X56491500Y-49784000D03*
X58316500Y-49784000D03*
D52*
X64797000Y-50292000D03*
X86597000Y-50292000D03*
D22*
X31952100Y-68072000D03*
X30227100Y-68072000D03*
D20*
X54967500Y-72898000D03*
X56792500Y-72898000D03*
D53*
X99211500Y-89281000D03*
X113386500Y-89281000D03*
D54*
X34391600Y-36474400D03*
D55*
X28391600Y-36474400D03*
D56*
X31391600Y-41174400D03*
D57*
X103338000Y-41796000D03*
D58*
X103338000Y-44590000D03*
X103338000Y-47384000D03*
X103338000Y-50178000D03*
X103338000Y-52972000D03*
X103338000Y-55766000D03*
X103338000Y-58560000D03*
X103338000Y-61354000D03*
X111212000Y-61354000D03*
X111212000Y-58560000D03*
X111212000Y-55766000D03*
X111212000Y-52972000D03*
X111212000Y-50178000D03*
X111212000Y-47384000D03*
X111212000Y-44590000D03*
X111212000Y-41796000D03*
D35*
X67056000Y-29878323D03*
D36*
X67056000Y-33378323D03*
M02*
