G04 #@! TF.GenerationSoftware,KiCad,Pcbnew,(6.0.9)*
G04 #@! TF.CreationDate,2022-12-15T14:24:50+09:00*
G04 #@! TF.ProjectId,nixie9v,6e697869-6539-4762-9e6b-696361645f70,rev?*
G04 #@! TF.SameCoordinates,Original*
G04 #@! TF.FileFunction,Legend,Bot*
G04 #@! TF.FilePolarity,Positive*
%FSLAX46Y46*%
G04 Gerber Fmt 4.6, Leading zero omitted, Abs format (unit mm)*
G04 Created by KiCad (PCBNEW (6.0.9)) date 2022-12-15 14:24:50*
%MOMM*%
%LPD*%
G01*
G04 APERTURE LIST*
G04 Aperture macros list*
%AMRoundRect*
0 Rectangle with rounded corners*
0 $1 Rounding radius*
0 $2 $3 $4 $5 $6 $7 $8 $9 X,Y pos of 4 corners*
0 Add a 4 corners polygon primitive as box body*
4,1,4,$2,$3,$4,$5,$6,$7,$8,$9,$2,$3,0*
0 Add four circle primitives for the rounded corners*
1,1,$1+$1,$2,$3*
1,1,$1+$1,$4,$5*
1,1,$1+$1,$6,$7*
1,1,$1+$1,$8,$9*
0 Add four rect primitives between the rounded corners*
20,1,$1+$1,$2,$3,$4,$5,0*
20,1,$1+$1,$4,$5,$6,$7,0*
20,1,$1+$1,$6,$7,$8,$9,0*
20,1,$1+$1,$8,$9,$2,$3,0*%
G04 Aperture macros list end*
%ADD10R,1.700000X1.700000*%
%ADD11O,1.700000X1.700000*%
%ADD12R,2.000000X1.905000*%
%ADD13O,2.000000X1.905000*%
%ADD14R,2.000000X2.000000*%
%ADD15C,2.000000*%
%ADD16C,2.500000*%
%ADD17R,1.300000X1.300000*%
%ADD18C,1.300000*%
%ADD19C,0.800000*%
%ADD20C,1.800000*%
%ADD21C,1.120000*%
%ADD22R,2.200000X2.200000*%
%ADD23O,2.200000X2.200000*%
%ADD24C,1.725000*%
%ADD25C,3.600000*%
%ADD26R,3.500000X3.500000*%
%ADD27RoundRect,0.750000X-0.750000X-1.000000X0.750000X-1.000000X0.750000X1.000000X-0.750000X1.000000X0*%
%ADD28RoundRect,0.875000X-0.875000X-0.875000X0.875000X-0.875000X0.875000X0.875000X-0.875000X0.875000X0*%
%ADD29R,1.133000X1.133000*%
%ADD30C,1.133000*%
G04 APERTURE END LIST*
%LPC*%
D10*
X113161600Y-69975000D03*
D11*
X115701600Y-69975000D03*
X118241600Y-69975000D03*
X120781600Y-69975000D03*
X123321600Y-69975000D03*
X125861600Y-69975000D03*
X128401600Y-69975000D03*
X130941600Y-69975000D03*
X133481600Y-69975000D03*
X136021600Y-69975000D03*
D12*
X59365000Y-39624000D03*
D13*
X59365000Y-37084000D03*
X59365000Y-34544000D03*
D14*
X41275000Y-44737323D03*
D15*
X41275000Y-48237323D03*
D16*
X45897800Y-74930000D03*
X34544000Y-75107800D03*
X40386000Y-75184000D03*
X86283800Y-33782000D03*
X50520600Y-74777600D03*
D17*
X92898450Y-52391750D03*
D18*
X94168450Y-51121750D03*
X95438450Y-52391750D03*
D10*
X62230000Y-76205000D03*
D11*
X62230000Y-73665000D03*
D10*
X38750000Y-30480000D03*
D11*
X41290000Y-30480000D03*
X43830000Y-30480000D03*
D16*
X50800000Y-88900000D03*
D10*
X128387000Y-45000000D03*
D11*
X125847000Y-45000000D03*
X123307000Y-45000000D03*
X120767000Y-45000000D03*
D12*
X34538800Y-64185800D03*
D13*
X34538800Y-66725800D03*
X34538800Y-69265800D03*
D19*
X30800000Y-86320000D03*
X30800000Y-81320000D03*
D20*
X28050000Y-79945000D03*
D15*
X31850000Y-87545000D03*
X31850000Y-80095000D03*
D20*
X28050000Y-87695000D03*
D21*
X52592500Y-32114000D03*
X50052500Y-34654000D03*
X47512500Y-32114000D03*
D22*
X82296000Y-33020000D03*
D23*
X74676000Y-33020000D03*
D22*
X90170000Y-47752000D03*
D23*
X97790000Y-47752000D03*
D24*
X43180000Y-68580000D03*
X45720000Y-68580000D03*
X48260000Y-68580000D03*
X50800000Y-68580000D03*
D25*
X64797000Y-50292000D03*
X86597000Y-50292000D03*
D26*
X34391600Y-36474400D03*
D27*
X28391600Y-36474400D03*
D28*
X31391600Y-41174400D03*
D29*
X103338000Y-41796000D03*
D30*
X103338000Y-44590000D03*
X103338000Y-47384000D03*
X103338000Y-50178000D03*
X103338000Y-52972000D03*
X103338000Y-55766000D03*
X103338000Y-58560000D03*
X103338000Y-61354000D03*
X111212000Y-61354000D03*
X111212000Y-58560000D03*
X111212000Y-55766000D03*
X111212000Y-52972000D03*
X111212000Y-50178000D03*
X111212000Y-47384000D03*
X111212000Y-44590000D03*
X111212000Y-41796000D03*
D14*
X67056000Y-29878323D03*
D15*
X67056000Y-33378323D03*
M02*
